<?xml version="1.0" standalone="no"?>
<!DOCTYPE svg PUBLIC "-//W3C//DTD SVG 1.1//EN" "http://www.w3.org/Graphics/SVG/1.1/DTD/svg11.dtd" >
<svg xmlns="http://www.w3.org/2000/svg" xmlns:xlink="http://www.w3.org/1999/xlink" version="1.1">
<metadata>
Created by FontForge 20170731 at Tue Dec 12 17:12:30 2017
 By Aleksey,,,
</metadata>
<defs>
<font id="PoppinsVN-100" horiz-adv-x="671" >
  <font-face 
    font-family="PoppinsVN 100"
    font-weight="400"
    font-stretch="normal"
    units-per-em="1000"
    panose-1="0 0 5 0 0 0 0 0 0 0"
    ascent="800"
    descent="-200"
    x-height="540"
    cap-height="704"
    bbox="-290 -264 1075 1046"
    underline-thickness="50"
    underline-position="-150"
    unicode-range="U+000D-FB02"
  />
<missing-glyph horiz-adv-x="497" 
d="M408 -254h-316v994h316v-994zM167 673v-32h65v-37h-66v-33h165v33h-66v37h66v32h-164zM166 545v-103h165v34h-66v69h-99zM232 476h-33v35h33v-35zM166 415v-33h66v-37h-66v-32h99v69h66v33h-165zM298 355v-65h-132v-34h165v99h-33zM232 234v-56h33v23h33v-46h-99v79h-33
v-112h165v112h-99zM166 62v-112h165v112h-165zM298 -17h-99v46h99v-46zM166 -73v-33h70l-70 -47v-32h165v32h-101l69 47h32v33h-165z" />
    <glyph glyph-name=".notdef" horiz-adv-x="497" 
d="M408 -254h-316v994h316v-994zM167 673v-32h65v-37h-66v-33h165v33h-66v37h66v32h-164zM166 545v-103h165v34h-66v69h-99zM232 476h-33v35h33v-35zM166 415v-33h66v-37h-66v-32h99v69h66v33h-165zM298 355v-65h-132v-34h165v99h-33zM232 234v-56h33v23h33v-46h-99v79h-33
v-112h165v112h-99zM166 62v-112h165v112h-165zM298 -17h-99v46h99v-46zM166 -73v-33h70l-70 -47v-32h165v32h-101l69 47h32v33h-165z" />
    <glyph glyph-name=".null" horiz-adv-x="0" 
 />
    <glyph glyph-name=".null" horiz-adv-x="0" 
 />
    <glyph glyph-name="nonmarkingreturn" unicode="&#xd;" horiz-adv-x="250" 
 />
    <glyph glyph-name="space" unicode=" " horiz-adv-x="290" 
 />
    <glyph glyph-name="exclam" unicode="!" horiz-adv-x="224" 
d="M122 704l-6 -537h-12l-6 537h24zM137 49v-49h-50v49h50z" />
    <glyph glyph-name="quotedbl" unicode="&#x22;" horiz-adv-x="196" 
d="M71 793l-7 -179h-16l-8 179h31zM156 793l-7 -179h-16l-8 179h31z" />
    <glyph glyph-name="numbersign" unicode="#" horiz-adv-x="743" 
d="M540 465l-42 -199h155v-18h-159l-53 -248h-20l53 248h-251l-53 -248h-20l53 248h-163v18h167l42 199h-159v18h163l55 257h20l-55 -257h251l55 257h20l-55 -257h159v-18h-163zM520 465h-251l-42 -199h251z" />
    <glyph glyph-name="dollar" unicode="$" horiz-adv-x="536" 
d="M278 367q37 -11 72.5 -24t63.5 -35t45 -55t17 -84q0 -30 -10 -61.5t-33 -57t-59 -41.5t-89 -16h-7v-80h-20v81q-43 4 -77.5 20.5t-59.5 40.5t-40 53.5t-18 60.5h20q3 -20 14 -45.5t32 -48.5t53 -40.5t76 -22.5v341q-37 11 -72.5 23.5t-63.5 33.5t-45 52.5t-17 80.5
q0 35 12 65.5t35.5 53t59 36t83.5 13.5h8v89h20v-90q42 -4 74 -19.5t54 -36.5t35 -46t18 -49h-20q-4 17 -15 38.5t-30.5 41t-48 34.5t-67.5 19v-325zM80 543q0 -42 15 -70t39.5 -47t57 -31t66.5 -22v320h-8q-76 0 -123 -38.5t-47 -111.5zM285 11q44 0 76 12.5t53 34.5
t31.5 50.5t10.5 60.5q0 44 -15 73.5t-39.5 49t-56.5 32.5t-67 23v-336h7z" />
    <glyph glyph-name="percent" unicode="%" horiz-adv-x="529" 
d="M167 711q27 0 50.5 -9.5t40.5 -27t26.5 -41t9.5 -51.5t-9.5 -51.5t-26.5 -40.5t-40.5 -27t-50.5 -10t-50.5 10t-40.5 27t-26.5 40.5t-9.5 51.5t9.5 51.5t26.5 41t40.5 27t50.5 9.5zM487 704l-423 -704h-23l423 704h23zM60 582q0 -48 29.5 -79.5t77.5 -31.5t77.5 31.5
t29.5 79.5t-29.5 79.5t-77.5 31.5t-77.5 -31.5t-29.5 -79.5zM362 250q27 0 50.5 -9.5t40.5 -27t26.5 -41t9.5 -51.5t-9.5 -51.5t-26.5 -40.5t-40.5 -27t-50.5 -10t-50.5 10t-40.5 27t-26.5 40.5t-9.5 51.5t9.5 51.5t26.5 41t40.5 27t50.5 9.5zM255 121q0 -48 29.5 -79.5
t77.5 -31.5t77.5 31.5t29.5 79.5t-29.5 79.5t-77.5 31.5t-77.5 -31.5t-29.5 -79.5z" />
    <glyph glyph-name="ampersand" unicode="&#x26;" horiz-adv-x="672" 
d="M638 0l-238 255q12 -18 17.5 -33.5t5.5 -41.5q0 -41 -14 -75.5t-38.5 -59t-58.5 -38.5t-75 -14q-39 0 -74.5 13.5t-63 39t-43.5 63t-16 85.5t14 84t38 60t55 36t65 12q29 0 53.5 -7.5t39.5 -19.5l-44 45q-16 16 -30.5 32.5t-25.5 36t-17.5 42.5t-6.5 51q0 27 9.5 53.5
t29 46.5t49 32.5t68.5 12.5q45 0 76 -14t51 -37.5t29 -52.5t9 -59v-13.5t-1 -13.5h-20q1 7 1 13v12q0 69 -38.5 108t-106.5 39q-34 0 -59.5 -10.5t-42.5 -28t-25.5 -40.5t-8.5 -48q0 -48 19 -78.5t45 -59.5l397 -428h-24zM237 13q36 0 66.5 12.5t52.5 34.5t34.5 53t12.5 67
q0 41 -16.5 75t-43 58.5t-60 38.5t-66.5 14t-61.5 -10.5t-49.5 -32t-33.5 -53.5t-12.5 -76t14.5 -77.5t39 -56.5t56.5 -35t67 -12z" />
    <glyph glyph-name="quotesingle" unicode="'" horiz-adv-x="119" 
d="M79 793l-11 -179h-16l-12 179h39z" />
    <glyph glyph-name="parenleft" unicode="(" horiz-adv-x="357" 
d="M60 403q0 102 20 190.5t54.5 161.5t81.5 131.5t101 100.5h20v-3q-134 -106 -195.5 -254.5t-61.5 -326.5t61.5 -326.5t195.5 -254.5v-3h-20q-54 42 -101 100.5t-81.5 131.5t-54.5 161.5t-20 190.5z" />
    <glyph glyph-name="parenright" unicode=")" horiz-adv-x="357" 
d="M297 403q0 -102 -20 -190.5t-54.5 -161.5t-81.5 -131.5t-101 -100.5h-20v3q134 106 195.5 254.5t61.5 326.5t-61.5 326.5t-195.5 254.5v3h20q54 -42 101 -100.5t81.5 -131.5t54.5 -161.5t20 -190.5z" />
    <glyph glyph-name="asterisk" unicode="*" horiz-adv-x="429" 
d="M364 653l25 -45l-161 -64l161 -64l-23 -43l-137 94l16 -171h-51l12 171l-141 -97l-25 45l159 64l-159 66l27 47l138 -97l-11 169h50l-15 -169z" />
    <glyph glyph-name="plus" unicode="+" horiz-adv-x="589" 
d="M549 371h-245v-246h-20v246h-244v18h244v246h20v-246h245v-18z" />
    <glyph glyph-name="comma" unicode="," horiz-adv-x="120" 
d="M88 31q4 -34 0.5 -56.5t-12.5 -36t-22 -19t-29 -5.5v18q24 0 33.5 14.5t9.5 39.5v7h-31v38h51z" />
    <glyph glyph-name="hyphen" unicode="-" horiz-adv-x="444" 
d="M329 389v-18h-364v18h364z" />
    <glyph glyph-name="period" unicode="." horiz-adv-x="113" 
d="M81 49v-49h-50v49h50z" />
    <glyph glyph-name="slash" unicode="/" horiz-adv-x="359" 
d="M329 935l-279 -1091h-20l277 1091h22z" />
    <glyph glyph-name="zero" unicode="0" horiz-adv-x="588" 
d="M70 354q0 76 8.5 141.5t33 113.5t68.5 75t114 27t114 -27t68.5 -75t33 -113.5t8.5 -141.5q0 -77 -8.5 -143t-33 -114.5t-68.5 -76t-114 -27.5t-114 27.5t-68.5 76t-33 114.5t-8.5 143zM498 354q0 72 -7.5 134t-29.5 107.5t-62 71.5t-105 26t-105 -26t-62 -71.5
t-29.5 -107.5t-7.5 -134q0 -73 7.5 -136t29.5 -109t62 -72t105 -26t105 26t62 72t29.5 109t7.5 136z" />
    <glyph glyph-name="one" unicode="1" horiz-adv-x="226" 
d="M15 686v18h126v-704h-20v686h-106z" />
    <glyph glyph-name="two" unicode="2" horiz-adv-x="567" 
d="M50 11q92 60 170 123t134 127t87.5 128.5t31.5 125.5q0 34 -8.5 66t-29.5 57t-55.5 40t-86.5 15q-51 0 -88.5 -16.5t-62.5 -45.5t-39 -67.5t-17 -83.5h-20q8 108 67 169.5t160 61.5q38 0 73.5 -10t64 -33t45.5 -60.5t17 -92.5q0 -71 -40 -144t-100 -139t-131 -121.5
t-134 -92.5h429v-18h-467v11z" />
    <glyph glyph-name="three" unicode="3" horiz-adv-x="575" 
d="M297 711q48 0 85 -13.5t62 -37t38 -55t13 -68.5q0 -28 -8.5 -56t-28.5 -51t-53.5 -39.5t-84.5 -20.5v-6q40 -9 74 -23.5t59.5 -36t40 -52.5t14.5 -73q0 -38 -12 -71.5t-38 -59t-66 -40.5t-96 -15q-100 0 -163 53.5t-80 150.5h20q7 -39 25 -73t46 -58.5t66 -38.5t86 -14
q49 0 85 13t60 35.5t35.5 53t11.5 64.5q0 89 -70 133.5t-192 44.5h-17v19h18q132 0 190 43.5t58 117.5q0 69 -45.5 112.5t-132.5 43.5q-37 0 -72.5 -9.5t-64 -30.5t-48.5 -55t-26 -82h-20q10 90 69 142.5t162 52.5z" />
    <glyph glyph-name="four" unicode="4" horiz-adv-x="574" 
d="M20 190v16l397 498h20v-496h122v-18h-122v-190h-20v190h-397zM417 672l-372 -464h372v464z" />
    <glyph glyph-name="five" unicode="5" horiz-adv-x="592" 
d="M503 686h-402v-320q29 42 84.5 68.5t122.5 26.5q62 0 105.5 -19t71 -50t40 -71.5t12.5 -84.5q0 -46 -12.5 -90t-40.5 -78t-72.5 -54.5t-107.5 -20.5q-94 0 -157 52.5t-77 146.5h20q17 -90 74.5 -134.5t138.5 -44.5q55 0 95.5 17t66.5 47t39 70.5t13 88.5q0 95 -53 151
t-156 56q-70 0 -124.5 -29.5t-84.5 -80.5h-18v371h422v-18z" />
    <glyph glyph-name="six" unicode="6" horiz-adv-x="614" 
d="M505 522q-11 80 -56.5 126t-128.5 46q-57 0 -102 -21t-75 -68.5t-44 -123t-9 -184.5q6 40 27 71.5t51.5 53.5t70 34t83.5 12q112 0 172 -65.5t60 -178.5q0 -43 -12 -84.5t-39 -74t-70 -52.5t-106 -20q-82 0 -132 29t-78 77t-37.5 110.5t-9.5 129.5q0 84 13 153t42.5 118
t77 75.5t117.5 26.5q93 0 144 -52.5t61 -137.5h-20zM96 245q0 -42 12.5 -84t40.5 -75.5t71.5 -54t106.5 -20.5q46 0 84 14.5t65.5 42t42.5 67t15 89.5q0 112 -57.5 169t-154.5 57q-39 0 -79.5 -12t-73 -37.5t-53 -64t-20.5 -91.5z" />
    <glyph glyph-name="seven" unicode="7" horiz-adv-x="502" 
d="M462 686l-280 -686h-23l284 686h-433v18h452v-18z" />
    <glyph glyph-name="eight" unicode="8" horiz-adv-x="608" 
d="M75 532q0 81 60 130t169 49t169 -49t60 -130q0 -59 -35 -106t-118 -64q81 -14 127 -62t46 -123q0 -94 -65 -148t-184 -54t-184 54t-65 148q0 75 46 123t127 62q-82 17 -117.5 64t-35.5 106zM95 532q0 -78 56 -119.5t153 -41.5t153 41.5t56 119.5q0 40 -15 70t-43 50.5
t-66 30.5t-85 10q-46 0 -84.5 -10t-66.5 -30.5t-43 -50.5t-15 -70zM75 177q0 -45 16.5 -79.5t46.5 -57.5t72.5 -35t93.5 -12t93.5 12t72.5 35t46.5 57.5t16.5 79.5q0 48 -18.5 81.5t-50 54.5t-73 30.5t-87.5 9.5t-87.5 -9.5t-73 -30.5t-50 -54.5t-18.5 -81.5z" />
    <glyph glyph-name="nine" unicode="9" horiz-adv-x="614" 
d="M109 182q11 -80 56.5 -126t128.5 -46q57 0 102 21t75 68.5t44 123t9 184.5q-6 -40 -27 -71.5t-51.5 -53.5t-70 -34t-83.5 -12q-112 0 -172 65.5t-60 178.5q0 43 12 84.5t39 74t70 52.5t106 20q82 0 132.5 -29t78 -77t37 -110.5t9.5 -129.5q0 -84 -13 -153t-42.5 -118
t-77 -75.5t-117.5 -26.5q-93 0 -143.5 52.5t-61.5 137.5h20zM518 459q0 42 -12.5 84t-40.5 75.5t-71.5 54t-106.5 20.5q-46 0 -84 -14.5t-65.5 -42t-42.5 -67t-15 -89.5q0 -112 57.5 -169t154.5 -57q39 0 79.5 12t73 37.5t53 64t20.5 91.5z" />
    <glyph glyph-name="colon" unicode=":" horiz-adv-x="113" 
d="M81 503v-49h-50v49h50zM81 49v-49h-50v49h50z" />
    <glyph glyph-name="semicolon" unicode=";" horiz-adv-x="140" 
d="M110 504v-49h-50v49h50zM108 31q4 -34 0.5 -56.5t-12.5 -36t-22 -19t-29 -5.5v18q24 0 33.5 14.5t9.5 39.5v7h-31v38h51z" />
    <glyph glyph-name="less" unicode="&#x3c;" horiz-adv-x="381" 
d="M316 143l-276 237l276 238h25l-276 -238l276 -237h-25z" />
    <glyph glyph-name="equal" unicode="=" horiz-adv-x="564" 
d="M524 478v-18h-484v18h484zM524 301v-18h-484v18h484z" />
    <glyph glyph-name="greater" unicode="&#x3e;" horiz-adv-x="381" 
d="M40 618h25l276 -238l-276 -237h-25l276 237z" />
    <glyph glyph-name="question" unicode="?" horiz-adv-x="482" 
d="M242 711q45 0 82 -14t63.5 -39.5t40.5 -61t14 -79.5q0 -61 -19 -103t-53.5 -68t-82.5 -37.5t-106 -11.5v-145h-20v163h16q44 0 88 7t79 28.5t56.5 61.5t21.5 105q0 83 -48.5 129.5t-131.5 46.5q-43 0 -78 -12t-60.5 -34.5t-39.5 -54t-14 -70.5h-20q0 45 17 80.5t46 59.5
t67.5 36.5t81.5 12.5zM197 49v-49h-50v49h50z" />
    <glyph glyph-name="at" unicode="@" horiz-adv-x="1024" 
d="M526 553q67 0 113.5 -25t73.5 -66t35 -93.5t-1 -106.5l-29 -169q-9 -52 11 -69.5t54 -17.5q35 0 66 22t54.5 63t37 99t13.5 131q0 93 -26 170t-78 132.5t-128.5 86t-177.5 30.5q-112 0 -199.5 -39.5t-148 -107.5t-92.5 -160.5t-32 -199.5q0 -118 33.5 -203t93 -140
t141.5 -81.5t180 -28.5l-3 -19q-104 2 -190 31t-147.5 87t-95.5 146t-34 208q0 101 31 195.5t92.5 168t154.5 118t216 44.5q110 0 190.5 -33.5t134 -92.5t79.5 -139t26 -173q0 -73 -15 -134t-41 -105t-60.5 -69t-74.5 -25q-22 0 -41 6.5t-30.5 23t-13 45.5t10.5 74l-2 1
q-35 -69 -93.5 -109.5t-139.5 -40.5q-48 0 -88.5 18t-69 50.5t-44.5 78t-16 100.5q0 69 21 127.5t57.5 100.5t86 66t105.5 24zM526 533q-57 0 -103 -23t-78.5 -63t-50.5 -94.5t-18 -117.5q0 -46 12.5 -87.5t37.5 -73t62 -50t86 -18.5q54 0 101 22.5t81.5 63.5t54.5 97.5
t20 125.5q0 44 -11.5 83.5t-36 69.5t-63.5 47.5t-94 17.5z" />
    <glyph glyph-name="A" unicode="A" horiz-adv-x="601" 
d="M475 194h-348l-74 -194h-23l261 683h20l260 -683h-23zM468 212l-167 439l-167 -439h334z" />
    <glyph glyph-name="B" unicode="B" horiz-adv-x="560" 
d="M357 366q33 -6 61 -21.5t48.5 -39t32 -53t11.5 -64.5q0 -39 -13.5 -73t-41 -59.5t-69.5 -40.5t-99 -15h-202v704h202q55 0 94.5 -13.5t64.5 -36.5t36.5 -54.5t11.5 -67.5q0 -38 -11 -66.5t-30 -48.5t-44 -32.5t-52 -18.5zM105 376h188q90 0 135.5 42t45.5 114
q0 33 -10.5 61t-33.5 48t-58 31.5t-85 11.5h-182v-308zM287 20q97 0 150 45t53 123q0 77 -54 122.5t-151 45.5h-180v-336h182z" />
    <glyph glyph-name="C" unicode="C" horiz-adv-x="769" 
d="M388 711q127 0 206 -58.5t115 -156.5h-20q-15 42 -41.5 78.5t-64 62.5t-86.5 41t-109 15q-64 0 -120 -23.5t-97.5 -67.5t-65.5 -107.5t-24 -143.5q0 -79 24 -142t65.5 -107t97.5 -67.5t120 -23.5q60 0 109 15t86.5 41t64 62t41.5 78h20q-36 -97 -115 -155.5t-206 -58.5
q-72 0 -132 26.5t-103.5 74t-68 113t-24.5 144.5q0 80 24.5 146t68 113.5t103.5 74t132 26.5z" />
    <glyph glyph-name="D" unicode="D" horiz-adv-x="702" 
d="M642 352q0 -166 -94 -259t-278 -93h-185v704h185q184 0 278 -92.5t94 -259.5zM270 18q89 0 155 23t109.5 66.5t65.5 105.5t22 139t-22 139t-65.5 105.5t-109.5 66.5t-155 23h-165v-668h165z" />
    <glyph glyph-name="E" unicode="E" horiz-adv-x="479" 
d="M105 686v-325h294v-18h-294v-325h324v-18h-344v704h344v-18h-324z" />
    <glyph glyph-name="F" unicode="F" horiz-adv-x="469" 
d="M429 704v-18h-324v-325h294v-18h-294v-343h-20v704h344z" />
    <glyph glyph-name="G" unicode="G" horiz-adv-x="792" 
d="M396 710q58 0 107.5 -15.5t89 -43.5t69 -68t47.5 -88h-20q-15 42 -42.5 78.5t-65 62.5t-84 41t-101.5 15q-66 0 -123 -23.5t-100 -67.5t-67.5 -107t-24.5 -143q0 -79 24.5 -142.5t67.5 -107.5t100 -67.5t123 -23.5q65 0 121.5 23t99.5 65.5t68.5 104t27.5 138.5h-332v18
h351v-8q0 -79 -25 -145t-69.5 -113.5t-106 -74t-135.5 -26.5q-73 0 -135 26.5t-106.5 74t-69.5 113.5t-25 145t25 145t69.5 113.5t106.5 74t135 26.5z" />
    <glyph glyph-name="H" unicode="H" horiz-adv-x="649" 
d="M564 704v-704h-20v353h-439v-353h-20v704h20v-333h439v333h20z" />
    <glyph glyph-name="I" unicode="I" horiz-adv-x="190" 
d="M105 704v-704h-20v704h20z" />
    <glyph glyph-name="J" unicode="J" horiz-adv-x="426" 
d="M346 704v-561q0 -31 -10 -58.5t-29.5 -47.5t-48 -32t-65.5 -12q-79 0 -121 48.5t-42 131.5h20q0 -31 7.5 -60.5t24 -52t44 -36t67.5 -13.5q39 0 65 12.5t41 32t21 42.5t6 45v561h20z" />
    <glyph glyph-name="K" unicode="K" horiz-adv-x="494" 
d="M117 352l357 -352h-27l-342 336v-336h-20v704h20v-338l342 338h27z" />
    <glyph glyph-name="L" unicode="L" horiz-adv-x="395" 
d="M105 18h270v-18h-290v704h20v-686z" />
    <glyph glyph-name="M" unicode="M" horiz-adv-x="797" 
d="M712 684v-684h-20v635l-283 -635h-20l-284 633v-633h-20v684h20l294 -657l293 657h20z" />
    <glyph glyph-name="N" unicode="N" horiz-adv-x="647" 
d="M562 0h-20l-437 667v-667h-20v703h20l437 -666v666h20v-703z" />
    <glyph glyph-name="O" unicode="O" horiz-adv-x="792" 
d="M396 710q74 0 135.5 -26.5t106 -74t69.5 -113.5t25 -145t-25 -145t-69.5 -113.5t-106 -74t-135.5 -26.5q-73 0 -135 26.5t-106.5 74t-69.5 113.5t-25 145t25 145t69.5 113.5t106.5 74t135 26.5zM396 692q-66 0 -123 -23.5t-100 -67.5t-67.5 -107t-24.5 -143
q0 -79 24.5 -142.5t67.5 -107.5t100 -67.5t123 -23.5t123 23.5t100 67.5t67.5 107.5t24.5 142.5q0 80 -24.5 143t-67.5 107t-100 67.5t-123 23.5z" />
    <glyph glyph-name="P" unicode="P" horiz-adv-x="528" 
d="M105 317v-317h-20v704h178q60 0 102.5 -14t70 -39.5t40 -61t12.5 -79.5q0 -98 -57.5 -145.5t-167.5 -47.5h-158zM263 338q57 0 96 12.5t63 35t35 54t11 70.5q0 41 -11 73t-35 54.5t-63 34.5t-96 12h-158v-346h158z" />
    <glyph glyph-name="Q" unicode="Q" horiz-adv-x="792" 
d="M708 -149l-202 158q-53 -17 -110 -17q-73 0 -135 26.5t-106.5 74t-69.5 113.5t-25 145t25 145t69.5 113.5t106.5 74t135 26.5q74 0 135.5 -26.5t106 -74t69.5 -113.5t25 -145q0 -120 -54.5 -207.5t-147.5 -125.5l213 -167h-35zM81 351q0 -79 24.5 -142.5t67.5 -107.5
t100 -67.5t123 -23.5t123 23.5t100 67.5t67.5 107.5t24.5 142.5q0 80 -24.5 143t-67.5 107t-100 67.5t-123 23.5t-123 -23.5t-100 -67.5t-67.5 -107t-24.5 -143z" />
    <glyph glyph-name="R" unicode="R" horiz-adv-x="535" 
d="M470 0l-215 307h-150v-307h-20v704h178q60 0 102.5 -14.5t70 -41t40 -63t12.5 -80.5q0 -94 -53.5 -144t-156.5 -54l217 -307h-25zM105 328h158q57 0 96 13t63 36.5t35 56t11 71.5q0 41 -11 74t-35 56.5t-63 36t-96 12.5h-158v-356z" />
    <glyph glyph-name="S" unicode="S" horiz-adv-x="536" 
d="M476 169q0 -30 -10 -61.5t-33 -57t-59 -41.5t-89 -16q-49 0 -88.5 15t-68 39.5t-45 56.5t-20.5 65h20q3 -22 15.5 -49.5t36.5 -51.5t61 -40.5t89 -16.5q44 0 76 12.5t53 34.5t31.5 50.5t10.5 60.5q0 63 -29.5 97t-73.5 54t-95 32.5t-95 33.5t-73.5 56.5t-29.5 100.5
q0 35 12 65.5t35.5 53t59 36t83.5 13.5q50 0 86.5 -14t62 -36.5t40 -49t20.5 -52.5h-20q-4 19 -17 42t-35.5 43.5t-56 34.5t-80.5 14q-76 0 -123 -38.5t-47 -111.5q0 -61 29.5 -93.5t73.5 -51t95 -31.5t95 -34t73.5 -58.5t29.5 -105.5z" />
    <glyph glyph-name="T" unicode="T" horiz-adv-x="470" 
d="M450 704v-18h-205v-686h-20v686h-205v18h430z" />
    <glyph glyph-name="U" unicode="U" horiz-adv-x="629" 
d="M100 704v-437q0 -70 16.5 -119t45.5 -79.5t69 -44t86 -13.5t84.5 13.5t67 44t44.5 79.5t16 119v437h20v-437q0 -73 -17 -125t-47.5 -85t-73 -48.5t-94.5 -15.5t-95.5 15.5t-75 48.5t-49 85t-17.5 125v437h20z" />
    <glyph glyph-name="V" unicode="V" horiz-adv-x="619" 
d="M54 704l254 -669l257 669h24l-270 -704h-20l-269 704h24z" />
    <glyph glyph-name="W" unicode="W" horiz-adv-x="904" 
d="M869 704l-189 -704h-20l-208 668l-208 -668h-20l-189 704h24l176 -661l205 661h24l205 -661l176 661h24z" />
    <glyph glyph-name="X" unicode="X" horiz-adv-x="500" 
d="M261 352l209 -352h-23l-200 338l-194 -338h-23l206 357l-206 347h23l197 -333l197 333h23z" />
    <glyph glyph-name="Y" unicode="Y" horiz-adv-x="518" 
d="M488 704l-218 -409v-295h-20v295l-220 409h24l205 -387l205 387h24z" />
    <glyph glyph-name="Z" unicode="Z" horiz-adv-x="487" 
d="M57 19h395v-19h-417v19l386 665h-373v20h394v-20z" />
    <glyph glyph-name="bracketleft" unicode="[" horiz-adv-x="219" 
d="M179 935v-18h-74v-1054h74v-18h-94v1090h94z" />
    <glyph glyph-name="backslash" unicode="\" horiz-adv-x="474" 
d="M384 -156l-354 1091h23l352 -1091h-21z" />
    <glyph glyph-name="bracketright" unicode="]" horiz-adv-x="219" 
d="M40 -155v18h74v1054h-74v18h94v-1090h-94z" />
    <glyph glyph-name="asciicircum" unicode="^" horiz-adv-x="552" 
d="M60 174h-20l230 509h12l230 -509h-20l-215 479z" />
    <glyph glyph-name="underscore" unicode="_" horiz-adv-x="533" 
d="M493 -30v-18h-453v18h453z" />
    <glyph glyph-name="grave" unicode="`" horiz-adv-x="267" 
d="M226 601l-9 -13l-137 108l12 14z" />
    <glyph glyph-name="a" unicode="a" 
d="M323 547q48 0 88 -13.5t71.5 -37.5t53 -57.5t31.5 -72.5v174h19v-540h-19v174q-10 -39 -31.5 -72.5t-53 -57.5t-71.5 -37.5t-88 -13.5q-58 0 -106.5 19t-83 55t-54 87.5t-19.5 115.5q0 65 19.5 116t54 87t83 55t106.5 19zM323 529q-55 0 -100 -18t-77 -51.5t-49 -81.5
t-17 -108t17 -108t49 -81.5t77 -51.5t100 -18q53 0 97.5 18.5t77 52.5t51 82t18.5 106q0 59 -18.5 106.5t-51 81.5t-77 52.5t-97.5 18.5z" />
    <glyph glyph-name="b" unicode="b" 
d="M348 547q58 0 106.5 -19t83 -55t54 -87t19.5 -116q0 -64 -19.5 -115.5t-54 -87.5t-83 -55t-106.5 -19q-48 0 -88 13.5t-71.5 37.5t-52.5 57.5t-32 72.5v-174h-19v740h19v-374q11 39 32 72.5t52.5 57.5t71.5 37.5t88 13.5zM348 529q-53 0 -97.5 -18.5t-77 -52.5t-51 -81.5
t-18.5 -106.5q0 -58 18.5 -106t51 -82t77 -52.5t97.5 -18.5q56 0 100.5 18t76.5 51.5t49 81.5t17 108t-17 108t-49 81.5t-76.5 51.5t-100.5 18z" />
    <glyph glyph-name="c" unicode="c" horiz-adv-x="628" 
d="M320 547q53 0 95.5 -14t74 -39.5t51.5 -60t27 -76.5h-20q-6 40 -25.5 72t-49.5 54t-69 34t-84 12q-46 0 -89.5 -15.5t-77 -47t-53.5 -80.5t-20 -116t20 -116t53.5 -80.5t77 -47t89.5 -15.5q45 0 84 12t69 34t49.5 54t25.5 72h20q-7 -42 -27 -76.5t-51.5 -60t-74 -39.5
t-95.5 -14q-56 0 -104 19t-82.5 54.5t-54 87t-19.5 116.5t19.5 116.5t54 87t82.5 54.5t104 19z" />
    <glyph glyph-name="d" unicode="d" 
d="M323 547q48 0 88 -13.5t71.5 -37.5t53 -57.5t31.5 -72.5v374h19v-740h-19v174q-10 -39 -31.5 -72.5t-53 -57.5t-71.5 -37.5t-88 -13.5q-58 0 -106.5 19t-83 55t-54 87.5t-19.5 115.5q0 65 19.5 116t54 87t83 55t106.5 19zM323 529q-55 0 -100 -18t-77 -51.5t-49 -81.5
t-17 -108t17 -108t49 -81.5t77 -51.5t100 -18q53 0 97.5 18.5t77 52.5t51 82t18.5 106q0 59 -18.5 106.5t-51 81.5t-77 52.5t-97.5 18.5z" />
    <glyph glyph-name="e" unicode="e" horiz-adv-x="628" 
d="M320 11q45 0 84 12t69 34t49.5 54t25.5 72h20q-7 -42 -27 -76.5t-51.5 -60t-74 -39.5t-95.5 -14q-56 0 -104 19t-82.5 54.5t-54 87t-19.5 116.5t19.5 116.5t54 87t82.5 54.5t104 19q62 0 108.5 -20.5t77.5 -53.5t46.5 -74.5t15.5 -83.5q0 -20 -1 -30t-3 -24h-484
q1 -65 21.5 -112t54 -78t76 -45.5t88.5 -14.5zM320 529q-46 0 -89 -14.5t-76 -45.5t-53.5 -78t-21.5 -112h470q4 65 -14.5 112.5t-51.5 78t-76 45t-88 14.5z" />
    <glyph glyph-name="f" unicode="f" horiz-adv-x="318" 
d="M283 720q-45 0 -74.5 -8.5t-47.5 -26t-25.5 -44.5t-7.5 -63v-38h155v-21h-155v-519h-20v519h-88v21h88v38q0 79 38.5 120.5t136.5 41.5v-20z" />
    <glyph glyph-name="g" unicode="g" 
d="M323 547q48 0 88 -13.5t71.5 -37.5t53 -57.5t31.5 -72.5v174h19v-560q0 -59 -20 -104t-53 -76.5t-76 -47.5t-90 -16q-101 0 -164.5 49t-86.5 127h20q22 -70 79.5 -114t151.5 -44q46 0 86 16t70 45t47 71t17 94v194q-10 -39 -31.5 -72.5t-53 -57.5t-71.5 -37.5t-88 -13.5
q-58 0 -106.5 19t-83 55t-54 87.5t-19.5 115.5q0 65 19.5 116t54 87t83 55t106.5 19zM323 529q-55 0 -100 -18t-77 -51.5t-49 -81.5t-17 -108t17 -108t49 -81.5t77 -51.5t100 -18q53 0 97.5 18.5t77 52.5t51 82t18.5 106q0 59 -18.5 106.5t-51 81.5t-77 52.5t-97.5 18.5z
" />
    <glyph glyph-name="h" unicode="h" horiz-adv-x="614" 
d="M317 552q44 0 83.5 -13.5t69 -42.5t47 -73.5t17.5 -107.5v-315h-19v317q0 108 -54.5 162.5t-143.5 54.5q-46 0 -85 -15t-67 -45.5t-44 -77t-16 -109.5v-287h-20v740h20v-352q10 43 31 74t49.5 51t62.5 29.5t69 9.5z" />
    <glyph glyph-name="i" unicode="i" horiz-adv-x="190" 
d="M69 705q0 13 7.5 20t18.5 7t18.5 -7t7.5 -20t-7.5 -20t-18.5 -7t-18.5 7t-7.5 20zM105 540v-540h-20v540h20z" />
    <glyph glyph-name="j" unicode="j" horiz-adv-x="200" 
d="M105 678q-11 0 -18.5 7t-7.5 20t7.5 20t18.5 7t18.5 -7t7.5 -20t-7.5 -20t-18.5 -7zM-25 -234h36q42 0 63 18.5t21 69.5v686h20v-692q0 -46 -22.5 -74t-81.5 -28h-36v20z" />
    <glyph glyph-name="k" unicode="k" horiz-adv-x="395" 
d="M354 0l-249 253v-253h-20v740h20v-447l243 247h30l-264 -266l271 -274h-31z" />
    <glyph glyph-name="l" unicode="l" horiz-adv-x="190" 
d="M105 740v-740h-20v740h20z" />
    <glyph glyph-name="m" unicode="m" horiz-adv-x="1003" 
d="M718 552q42 0 79 -13.5t65 -42.5t44.5 -73.5t16.5 -107.5v-315h-19v317q0 109 -50.5 163t-135.5 54q-44 0 -81.5 -15t-64.5 -45.5t-42.5 -77t-15.5 -109.5v-287h-19v317q0 109 -50.5 163t-135.5 54q-44 0 -81.5 -15t-64.5 -45.5t-42.5 -77t-15.5 -109.5v-287h-20v540h20
v-151q10 43 30 73.5t47.5 50.5t60 29.5t66.5 9.5q36 0 69 -10t59.5 -31.5t45.5 -55t26 -79.5q9 46 29 79.5t48.5 55t62 31.5t69.5 10z" />
    <glyph glyph-name="n" unicode="n" horiz-adv-x="614" 
d="M317 552q44 0 83.5 -13.5t69 -42.5t47 -73.5t17.5 -107.5v-315h-19v317q0 108 -54.5 162.5t-143.5 54.5q-46 0 -85 -15t-67 -45.5t-44 -77t-16 -109.5v-287h-20v540h20v-152q10 43 31 74t49.5 51t62.5 29.5t69 9.5z" />
    <glyph glyph-name="o" unicode="o" horiz-adv-x="647" 
d="M324 547q56 0 104.5 -19t83.5 -54.5t55 -87t20 -116.5t-20 -116.5t-55 -87t-83.5 -54.5t-104.5 -19t-104.5 19t-84 54.5t-55.5 87t-20 116.5t20 116.5t55.5 87t84 54.5t104.5 19zM324 529q-46 0 -90 -15.5t-78.5 -47t-55 -80.5t-20.5 -116t20.5 -116t55 -80.5t78.5 -47
t90 -15.5q47 0 90.5 15.5t77.5 47t54.5 80.5t20.5 116t-20.5 116t-54.5 80.5t-77.5 47t-90.5 15.5z" />
    <glyph glyph-name="p" unicode="p" 
d="M348 547q58 0 106.5 -19t83 -55t54 -87t19.5 -116q0 -64 -19.5 -115.5t-54 -87.5t-83 -55t-106.5 -19q-48 0 -88 13.5t-71.5 37.5t-52.5 57.5t-32 72.5v-428h-19v794h19v-174q11 39 32 72.5t52.5 57.5t71.5 37.5t88 13.5zM348 529q-53 0 -97.5 -18.5t-77 -52.5t-51 -81.5
t-18.5 -106.5q0 -58 18.5 -106t51 -82t77 -52.5t97.5 -18.5q56 0 100.5 18t76.5 51.5t49 81.5t17 108t-17 108t-49 81.5t-76.5 51.5t-100.5 18z" />
    <glyph glyph-name="q" unicode="q" 
d="M323 547q48 0 88 -13.5t71.5 -37.5t53 -57.5t31.5 -72.5v174h19v-794h-19v428q-10 -39 -31.5 -72.5t-53 -57.5t-71.5 -37.5t-88 -13.5q-58 0 -106.5 19t-83 55t-54 87.5t-19.5 115.5q0 65 19.5 116t54 87t83 55t106.5 19zM323 529q-55 0 -100 -18t-77 -51.5t-49 -81.5
t-17 -108t17 -108t49 -81.5t77 -51.5t100 -18q53 0 97.5 18.5t77 52.5t51 82t18.5 106q0 59 -18.5 106.5t-51 81.5t-77 52.5t-97.5 18.5z" />
    <glyph glyph-name="r" unicode="r" horiz-adv-x="338" 
d="M105 409q32 143 213 143v-22h-9q-36 0 -72.5 -10t-66 -34.5t-47.5 -64.5t-18 -100v-321h-20v540h20v-131z" />
    <glyph glyph-name="s" unicode="s" horiz-adv-x="483" 
d="M230 547q81 0 130.5 -44.5t58.5 -120.5h-20q-3 29 -14.5 55.5t-32.5 46.5t-51 32.5t-71 12.5q-69 0 -106.5 -34t-37.5 -88q0 -45 25 -68.5t62.5 -36.5t81 -21.5t81 -24t62.5 -43.5t25 -80q0 -62 -43 -101t-114 -39q-86 0 -141.5 44.5t-64.5 120.5h20q3 -29 16 -55.5
t36.5 -47t57 -32.5t77.5 -12q66 0 101 35t35 87q0 47 -25 71.5t-62.5 38.5t-81 22.5t-81 23t-62.5 41.5t-25 77q0 65 45 102.5t119 37.5z" />
    <glyph glyph-name="t" unicode="t" horiz-adv-x="338" 
d="M128 520v-378q0 -36 6 -60t19.5 -37.5t35 -19t52.5 -5.5h57v-20h-59q-69 0 -100 31.5t-31 110.5v378h-88v20h88v138h20v-138h170v-20h-170z" />
    <glyph glyph-name="u" unicode="u" horiz-adv-x="599" 
d="M514 540v-540h-20v152q-10 -43 -31 -74t-49.5 -51t-62.5 -29.5t-69 -9.5q-44 0 -83.5 13.5t-69 42.5t-47 73.5t-17.5 107.5v315h19v-317q0 -108 54.5 -162.5t143.5 -54.5q46 0 85 15t67 45.5t44 77t16 109.5v287h20z" />
    <glyph glyph-name="v" unicode="v" horiz-adv-x="515" 
d="M258 35l215 505h22l-230 -540h-15l-230 540h22z" />
    <glyph glyph-name="w" unicode="w" horiz-adv-x="803" 
d="M783 540l-170 -540h-15l-197 503l-196 -503h-15l-170 540h22l157 -499l194 499h17l194 -499l157 499h22z" />
    <glyph glyph-name="x" unicode="x" horiz-adv-x="416" 
d="M372 0l-165 257l-165 -257h-22l175 275l-171 265h24l160 -248l161 248h22l-170 -268l175 -272h-24z" />
    <glyph glyph-name="y" unicode="y" horiz-adv-x="503" 
d="M42 540l218 -511l201 511h22l-308 -794h-25l99 253l-229 541h22z" />
    <glyph glyph-name="z" unicode="z" horiz-adv-x="407" 
d="M51 18h326v-18h-347v18l315 504h-305v18h327v-18z" />
    <glyph glyph-name="braceleft" unicode="{" horiz-adv-x="293" 
d="M52 371q32 -7 55 -23.5t37.5 -38.5t21.5 -48t7 -53q0 -26 -4 -47.5t-9.5 -44.5t-9.5 -50.5t-4 -64.5q0 -41 11.5 -75t29 -61t38 -46.5t38.5 -31.5v-4h-20q-12 7 -31.5 24.5t-38.5 45t-33 66t-14 88.5q0 31 4 58t9.5 51t9.5 47t4 45q0 17 -2.5 38t-13.5 42t-33.5 40
t-63.5 32v24q41 13 63.5 32t33.5 40t13.5 42t2.5 38q0 23 -4 45.5t-9.5 46.5t-9.5 51t-4 58q0 50 14 88.5t33 66t38.5 45t31.5 24.5h20v-4q-18 -12 -38.5 -31.5t-38 -46.5t-29 -61t-11.5 -75q0 -37 4 -64.5t9.5 -50.5t9.5 -44.5t4 -47.5q0 -27 -7 -53t-21.5 -48t-37.5 -38.5
t-55 -23.5v-2z" />
    <glyph glyph-name="bar" unicode="|" horiz-adv-x="190" 
d="M105 -86h-20v864h20v-864z" />
    <glyph glyph-name="braceright" unicode="}" horiz-adv-x="303" 
d="M251 373q-32 7 -55 23.5t-37.5 38.5t-21.5 48t-7 53q0 26 4 47.5t9.5 44.5t9.5 50.5t4 64.5q0 41 -11.5 75t-29 61t-38 46.5t-38.5 31.5v4h20q12 -7 31.5 -24.5t38.5 -45t33 -66t14 -88.5q0 -31 -4 -58t-9.5 -51t-9.5 -46.5t-4 -45.5q0 -17 2.5 -38t13.5 -42t34 -40
t63 -32v-24q-40 -13 -63 -32t-34 -40t-13.5 -42t-2.5 -38q0 -22 4 -45t9.5 -47t9.5 -51t4 -58q0 -50 -14 -88.5t-33 -66t-38.5 -45t-31.5 -24.5h-20v4q18 12 38.5 31.5t38 46.5t29 61t11.5 75q0 37 -4 64.5t-9.5 50.5t-9.5 44.5t-4 47.5q0 27 7 53t21.5 48t37.5 38.5
t55 23.5v2z" />
    <glyph glyph-name="asciitilde" unicode="~" horiz-adv-x="412" 
d="M129 367q25 0 44.5 -10.5t37 -23t35.5 -23t40 -10.5q26 0 43.5 20.5t22.5 46.5h20q-8 -39 -29.5 -63.5t-59.5 -24.5q-25 0 -44 10.5t-37 23t-36 23t-40 10.5q-26 0 -43.5 -20.5t-22.5 -46.5h-20q8 39 29.5 63.5t59.5 24.5z" />
    <glyph glyph-name="exclamdown" unicode="&#xa1;" horiz-adv-x="224" 
d="M87 552h50v-49h-50v49zM104 385h12l6 -537h-24z" />
    <glyph glyph-name="cent" unicode="&#xa2;" horiz-adv-x="588" 
d="M300 41q82 0 138.5 45.5t69.5 126.5h20q-7 -41 -25 -76t-46.5 -60t-67.5 -39.5t-87 -14.5v-116h-20v117q-48 3 -89 21t-70.5 49.5t-46 76t-16.5 99.5q0 56 16.5 100t46 75.5t70.5 49.5t89 21v107h20v-106q48 0 87 -14.5t67.5 -39.5t46.5 -60t25 -76h-20
q-13 81 -69.5 126.5t-138.5 45.5q-43 0 -82.5 -13.5t-70 -41.5t-49 -71.5t-18.5 -102.5t18.5 -102.5t49 -71.5t70 -41.5t82.5 -13.5z" />
    <glyph glyph-name="sterling" unicode="&#xa3;" horiz-adv-x="540" 
d="M212 207q0 -57 -21 -99.5t-63 -87.5h376v-20h-393l-4 19q17 21 33 41.5t28 42t19 45.5t7 54q0 34 -8.5 65t-19.5 61h-116v17h110q-16 41 -30 84t-14 95q0 40 13 74t37.5 59t59.5 39.5t78 14.5q46 0 82 -15t62 -41t41.5 -60.5t20.5 -73.5h-20q-4 37 -19 68.5t-39 54.5
t-56.5 36t-71.5 13q-32 0 -62 -10t-53.5 -30.5t-38 -52.5t-14.5 -76q0 -51 14.5 -94t29.5 -85h193v-17h-186q11 -29 18 -59t7 -62z" />
    <glyph glyph-name="currency" unicode="&#xa4;" horiz-adv-x="501" 
d="M401 377q0 -35 -9.5 -63.5t-26.5 -50.5l62 -60l-14 -13l-60 60q-42 -45 -103 -45q-63 0 -105 44l-59 -59l-14 13l62 60q-34 45 -34 114q0 35 9 63.5t26 51.5l-63 61l14 13l61 -61q42 44 103 44q58 0 102 -44l61 61l14 -13l-63 -62q17 -22 27 -50.5t10 -63.5zM250 223
q26 0 49.5 10.5t41.5 30t29 48.5t11 65t-11 64.5t-29 48.5t-41.5 30.5t-49.5 10.5q-56 0 -93 -41t-37 -113q0 -73 37 -113.5t93 -40.5z" />
    <glyph glyph-name="yen" unicode="&#xa5;" horiz-adv-x="563" 
d="M322 346h173v-18h-182l-18 -33v-66h200v-20h-200v-209h-20v209h-200v20h200v66l-18 33h-182v18h173l-193 358h24l205 -387l205 387h24z" />
    <glyph glyph-name="brokenbar" unicode="&#xa6;" horiz-adv-x="190" 
d="M85 778h20v-350h-20v350zM105 -86h-20v351h20v-351z" />
    <glyph glyph-name="section" unicode="&#xa7;" horiz-adv-x="566" 
d="M259 747q88 0 144.5 -43t67.5 -123h-20q-2 24 -13.5 50t-34.5 48t-58.5 36t-85.5 14q-69 0 -112.5 -26t-43.5 -83q0 -49 39 -80.5t132 -53.5q47 -11 89 -24.5t74 -34.5t50.5 -51.5t18.5 -75.5q0 -33 -15.5 -64t-45 -54.5t-72.5 -35.5t-99 -7v-4q36 -7 73 -17.5t67 -27.5
t49.5 -43t19.5 -64q0 -56 -44.5 -93t-126.5 -37q-89 0 -147.5 43t-69.5 123h20q4 -27 16 -53.5t35.5 -47.5t59 -34t86.5 -13q66 0 108.5 27t42.5 85q0 49 -39 79t-132 52q-47 11 -89 24.5t-74 34.5t-50.5 51.5t-18.5 75.5q0 33 15.5 64.5t45 54.5t72.5 35t99 7v4
q-34 7 -70.5 17.5t-67.5 28t-51 44t-20 65.5q0 55 45.5 91t130.5 36zM280 447q-49 0 -86.5 -12t-63 -32.5t-38 -47t-12.5 -55.5q0 -66 53.5 -106.5t152.5 -40.5q50 0 87 12t62.5 32.5t38 47t12.5 55.5q0 66 -53.5 106.5t-152.5 40.5z" />
    <glyph glyph-name="dieresis" unicode="&#xa8;" horiz-adv-x="319" 
d="M63 657q0 12 8.5 21t21.5 9q12 0 21 -9t9 -21t-9 -21t-21 -9q-13 0 -21.5 9t-8.5 21zM197 657q0 12 8.5 21t21.5 9q12 0 20.5 -9t8.5 -21t-8.5 -21t-20.5 -9q-13 0 -21.5 9t-8.5 21z" />
    <glyph glyph-name="copyright" unicode="&#xa9;" horiz-adv-x="803" 
d="M402 702q76 0 139 -26t108 -72.5t69.5 -110.5t24.5 -141t-24.5 -141t-69.5 -110.5t-108 -72.5t-139 -26t-139 26t-108 72.5t-70 110.5t-25 141t25 141t70 110.5t108 72.5t139 26zM402 684q-74 0 -133.5 -25t-101.5 -69.5t-64.5 -105.5t-22.5 -132t22.5 -132t64.5 -105.5
t101.5 -69.5t133.5 -25t133.5 25t101 69.5t64 105.5t22.5 132t-22.5 132t-64 105.5t-101 69.5t-133.5 25zM405 590q-42 0 -81 -15t-68.5 -45t-47 -74t-17.5 -103t17.5 -104t47 -75t68.5 -45t81 -15q34 0 66 10t59 29.5t47.5 48.5t30.5 67h-21q-21 -68 -71.5 -101.5
t-110.5 -33.5q-37 0 -72 13.5t-62 41t-43.5 68t-16.5 94.5q0 55 16.5 96t43.5 68.5t62 41t72 13.5q60 0 110.5 -33.5t71.5 -101.5h21q-10 38 -30.5 67t-47.5 48.5t-59 29.5t-66 10z" />
    <glyph glyph-name="ordfeminine" unicode="&#xaa;" horiz-adv-x="433" 
d="M202 709q60 0 97.5 -29.5t51.5 -79.5v103h20v-349h-20v102q-14 -50 -51.5 -79.5t-97.5 -29.5q-37 0 -67 13t-51 37t-32.5 57.5t-11.5 73.5t11.5 73.5t32.5 57.5t51 37t67 13zM202 691q-62 0 -102 -44t-40 -119t40 -119t102 -44q66 0 107.5 44t41.5 119t-41.5 119
t-107.5 44z" />
    <glyph glyph-name="guillemotleft" unicode="&#xab;" horiz-adv-x="374" 
d="M152 120l-107 175l107 175h27l-109 -175l109 -175h-27zM297 120l-107 175l107 175h27l-109 -175l109 -175h-27z" />
    <glyph glyph-name="logicalnot" unicode="&#xac;" horiz-adv-x="708" 
d="M663 424v-169h-18v149h-586v20h604z" />
    <glyph glyph-name="registered" unicode="&#xae;" horiz-adv-x="787" 
d="M394 703q74 0 135.5 -24.5t105.5 -70.5t68 -110.5t24 -144.5q0 -77 -24 -141.5t-68 -111.5t-105.5 -73t-135.5 -26t-135.5 26t-105.5 73t-68.5 111.5t-24.5 141.5q0 80 24.5 144.5t68.5 110.5t105.5 70.5t135.5 24.5zM394 28q72 0 130 23.5t98.5 66.5t62.5 102.5
t22 132.5q0 75 -22 136.5t-62.5 105t-98.5 67t-130 23.5t-130.5 -23.5t-99 -67t-62.5 -105t-22 -136.5q0 -73 22 -132.5t62.5 -102.5t99 -66.5t130.5 -23.5zM562 475q0 -62 -39 -93t-109 -32l146 -210h-24l-144 210h-103v-210h-20v458h141q78 0 115 -33t37 -90zM410 369
q73 0 102.5 29t29.5 77q0 51 -29.5 78t-102.5 27h-121v-211h121z" />
    <glyph glyph-name="macron" unicode="&#xaf;" horiz-adv-x="389" 
d="M349 677v-18h-309v18h309z" />
    <glyph glyph-name="degree" unicode="&#xb0;" horiz-adv-x="356" 
d="M178 691q67 0 107.5 -47t40.5 -125t-40.5 -125t-107.5 -47t-107.5 47t-40.5 125t40.5 125t107.5 47zM178 673q-59 0 -93.5 -40.5t-34.5 -113.5t34.5 -113.5t93.5 -40.5t93.5 40.5t34.5 113.5t-34.5 113.5t-93.5 40.5z" />
    <glyph glyph-name="plusminus" unicode="&#xb1;" horiz-adv-x="589" 
d="M549 409v-18h-245v-226h-20v226h-244v18h244v226h20v-226h245zM40 109h509v-18h-509v18z" />
    <glyph glyph-name="uni00B2" unicode="&#xb2;" horiz-adv-x="301" 
d="M261 370v-18h-221v10l114 113q14 14 27 28t24 30.5t17.5 35.5t6.5 41q0 42 -23 60.5t-55 18.5q-82 0 -91 -91h-20q2 21 9 41t20.5 35t33.5 24t48 9q43 0 70.5 -25.5t27.5 -71.5q0 -48 -25 -83t-64 -73l-88 -84h189z" />
    <glyph glyph-name="uni00B3" unicode="&#xb3;" horiz-adv-x="302" 
d="M155 707q45 0 75.5 -26t30.5 -70q0 -30 -16.5 -52.5t-50.5 -31.5v-2q30 -8 49 -29.5t19 -56.5q0 -17 -6.5 -33.5t-20 -29.5t-34.5 -21t-49 -8q-100 0 -112 97h20q5 -47 31 -63t61 -16q44 0 67 20t23 54q0 38 -26.5 57.5t-66.5 19.5h-61v18h64q39 0 64 20t25 57
q0 34 -23.5 55t-62.5 21q-42 0 -64.5 -18.5t-29.5 -49.5h-20q7 37 35 62.5t79 25.5z" />
    <glyph glyph-name="acute" unicode="&#xb4;" horiz-adv-x="267" 
d="M197 686l-146 -92l-11 12l145 99z" />
    <glyph glyph-name="uni00B5" unicode="&#xb5;" horiz-adv-x="619" 
d="M534 540v-540h-20v150q-10 -42 -30 -73t-46.5 -50.5t-58.5 -29t-65 -9.5q-32 0 -64.5 7.5t-60.5 26t-50.5 49.5t-34.5 77v-402h-19v794h19v-277q0 -66 15.5 -114.5t43.5 -80t66.5 -47t84.5 -15.5q44 0 80.5 15t63 45.5t41.5 77t15 109.5v287h20z" />
    <glyph glyph-name="paragraph" unicode="&#xb6;" horiz-adv-x="489" 
d="M404 0h-20v666h-108v-666h-20v297h-1q-118 0 -176.5 53.5t-58.5 139.5q0 88 59 141t176 53h149v-684z" />
    <glyph glyph-name="periodcentered" unicode="&#xb7;" horiz-adv-x="113" 
d="M81 384v-49h-50v49h50z" />
    <glyph glyph-name="cedilla" unicode="&#xb8;" horiz-adv-x="249" 
d="M83 -89q63 4 94.5 -17t31.5 -62q0 -38 -26.5 -62t-79.5 -24h-63v20h60q51 0 70 18.5t19 47.5q0 25 -19 43t-70 18h-37v114h20v-96z" />
    <glyph glyph-name="uni00B9" unicode="&#xb9;" horiz-adv-x="154" 
d="M40 686v18h74v-352h-20v334h-54z" />
    <glyph glyph-name="ordmasculine" unicode="&#xba;" horiz-adv-x="412" 
d="M207 709q36 0 66.5 -13.5t53 -37.5t35 -57.5t12.5 -74.5t-12.5 -74.5t-35 -57.5t-53 -37.5t-66.5 -13.5t-66.5 13.5t-53 37.5t-35 57.5t-12.5 74.5t12.5 74.5t35 57.5t53 37.5t66.5 13.5zM207 689q-31 0 -57.5 -10.5t-46.5 -31.5t-31.5 -51.5t-11.5 -69.5t11.5 -69.5
t31.5 -51.5t46.5 -31.5t57.5 -10.5t57.5 10.5t46.5 31.5t31.5 51.5t11.5 69.5t-11.5 69.5t-31.5 51.5t-46.5 31.5t-57.5 10.5z" />
    <glyph glyph-name="guillemotright" unicode="&#xbb;" horiz-adv-x="374" 
d="M160 295l-110 175h28l106 -175l-106 -175h-28zM305 295l-110 175h28l106 -175l-106 -175h-28z" />
    <glyph glyph-name="onequarter" unicode="&#xbc;" horiz-adv-x="512" 
d="M425 704l-348 -704h-20l348 704h20zM60 686v18h74v-352h-20v334h-54zM472 76h-55v-76h-20v76h-172v18l177 261h15v-259h55v-20zM397 309l-148 -213h148v213z" />
    <glyph glyph-name="onehalf" unicode="&#xbd;" horiz-adv-x="593" 
d="M408 704l-348 -704h-20l348 704h20zM117 686h-54v18h74v-352h-20v334zM553 17v-18h-221v10l114 113q14 14 27 28t24 30.5t17.5 35.5t6.5 41q0 42 -23 60.5t-55 18.5q-82 0 -91 -91h-20q2 21 9 41t20.5 35t33.5 24t48 9q43 0 70.5 -25.5t27.5 -71.5q0 -48 -25 -83t-64 -73
l-88 -84h189z" />
    <glyph glyph-name="threequarters" unicode="&#xbe;" horiz-adv-x="532" 
d="M172 707q45 0 75.5 -26t30.5 -70q0 -30 -16.5 -52.5t-50.5 -31.5v-2q30 -8 49 -29.5t19 -56.5q0 -17 -6.5 -33.5t-20 -29.5t-34.5 -21t-49 -8q-100 0 -112 97h20q5 -47 31 -63t61 -16q44 0 67 20t23 54q0 38 -26.5 57.5t-66.5 19.5h-61v18h64q39 0 64 20t25 57
q0 34 -23.5 55t-62.5 21q-42 0 -64.5 -18.5t-29.5 -49.5h-20q7 37 35 62.5t79 25.5zM475 704l-348 -704h-20l348 704h20zM492 76h-55v-76h-20v76h-172v18l177 261h15v-259h55v-20zM417 309l-148 -213h148v213z" />
    <glyph glyph-name="questiondown" unicode="&#xbf;" horiz-adv-x="462" 
d="M275 488v49h50v-49h-50zM230 -174q-45 0 -82 14t-63.5 39.5t-40.5 61t-14 79.5q0 61 19 103t53.5 68t82.5 37.5t106 11.5v145h20v-163h-16q-44 0 -88 -7t-79 -28.5t-56.5 -61.5t-21.5 -105q0 -83 48.5 -129.5t131.5 -46.5q43 0 78 12t60.5 34.5t39.5 54t14 70.5h20
q0 -45 -17 -80.5t-46 -59.5t-67.5 -36.5t-81.5 -12.5z" />
    <glyph glyph-name="Agrave" unicode="&#xc0;" horiz-adv-x="601" 
d="M384 752l-137 108l12 14l134 -109zM475 194h-348l-74 -194h-23l261 683h20l260 -683h-23zM468 212l-167 439l-167 -439h334z" />
    <glyph glyph-name="Aacute" unicode="&#xc1;" horiz-adv-x="601" 
d="M242 758l-11 12l145 99l12 -19zM475 194h-348l-74 -194h-23l261 683h20l260 -683h-23zM468 212l-167 439l-167 -439h334z" />
    <glyph glyph-name="Acircumflex" unicode="&#xc2;" horiz-adv-x="601" 
d="M189 762l-12 12l124 81l123 -81l-10 -13l-113 74zM475 194h-348l-74 -194h-23l261 683h20l260 -683h-23zM468 212l-167 439l-167 -439h334z" />
    <glyph glyph-name="Atilde" unicode="&#xc3;" horiz-adv-x="601" 
d="M246 816q-36 0 -42 -48h-18q4 30 19 48t41 18q19 0 31.5 -8t23.5 -17t23 -17t30 -8q16 0 28.5 12t15.5 35h18q-2 -27 -19 -46t-43 -19q-19 0 -32.5 8t-25 17t-23 17t-27.5 8zM475 194h-348l-74 -194h-23l261 683h20l260 -683h-23zM468 212l-167 439l-167 -439h334z" />
    <glyph glyph-name="Adieresis" unicode="&#xc4;" horiz-adv-x="601" 
d="M234 791q-13 0 -21.5 9t-8.5 21t8.5 21t21.5 9q12 0 21 -9t9 -21t-9 -21t-21 -9zM368 791q-13 0 -21.5 9t-8.5 21t8.5 21t21.5 9q12 0 20.5 -9t8.5 -21t-8.5 -21t-20.5 -9zM475 194h-348l-74 -194h-23l261 683h20l260 -683h-23zM468 212l-167 439l-167 -439h334z" />
    <glyph glyph-name="Aring" unicode="&#xc5;" horiz-adv-x="601" 
d="M300 779q-37 0 -63.5 24t-26.5 66t26.5 66t63.5 24t63.5 -24t26.5 -66t-26.5 -66t-63.5 -24zM300 941q-30 0 -50 -19t-20 -53t20 -53t50 -19t50 19t20 53t-20 53t-50 19zM475 194h-348l-74 -194h-23l261 683h20l260 -683h-23zM468 212l-167 439l-167 -439h334z" />
    <glyph glyph-name="AE" unicode="&#xc6;" horiz-adv-x="837" 
d="M463 686v-325h294v-18h-294v-325h324v-18h-344v194h-291l-119 -194h-23l433 704h344v-18h-324zM443 212v455l-280 -455h280z" />
    <glyph glyph-name="Ccedilla" unicode="&#xc7;" horiz-adv-x="769" 
d="M388 11q60 0 109 15t86.5 41t64 62t41.5 78h20q-36 -96 -113.5 -154.5t-202.5 -59.5v-82q63 4 94.5 -17t31.5 -62q0 -38 -26.5 -62t-79.5 -24h-63v20h60q51 0 70 18.5t19 47.5q0 25 -19 43t-70 18h-37v100q-69 3 -126.5 30.5t-99 75t-64.5 112t-23 140.5q0 80 24.5 146
t68 113.5t103.5 74t132 26.5q127 0 206 -58.5t115 -156.5h-20q-15 42 -41.5 78.5t-64 62.5t-86.5 41t-109 15q-64 0 -120 -23.5t-97.5 -67.5t-65.5 -107.5t-24 -143.5q0 -79 24 -142t65.5 -107t97.5 -67.5t120 -23.5z" />
    <glyph glyph-name="Egrave" unicode="&#xc8;" horiz-adv-x="479" 
d="M332 765l-9 -13l-137 108l12 14zM105 686v-325h294v-18h-294v-325h324v-18h-344v704h344v-18h-324z" />
    <glyph glyph-name="Eacute" unicode="&#xc9;" horiz-adv-x="479" 
d="M327 850l-146 -92l-11 12l145 99zM105 686v-325h294v-18h-294v-325h324v-18h-344v704h344v-18h-324z" />
    <glyph glyph-name="Ecircumflex" unicode="&#xca;" horiz-adv-x="479" 
d="M240 835l-112 -73l-12 12l124 81l123 -81l-10 -13zM105 686v-325h294v-18h-294v-325h324v-18h-344v704h344v-18h-324z" />
    <glyph glyph-name="Edieresis" unicode="&#xcb;" horiz-adv-x="479" 
d="M161 821q0 12 8.5 21t21.5 9q12 0 21 -9t9 -21t-9 -21t-21 -9q-13 0 -21.5 9t-8.5 21zM295 821q0 12 8.5 21t21.5 9q12 0 20.5 -9t8.5 -21t-8.5 -21t-20.5 -9q-13 0 -21.5 9t-8.5 21zM105 686v-325h294v-18h-294v-325h324v-18h-344v704h344v-18h-324z" />
    <glyph glyph-name="Igrave" unicode="&#xcc;" horiz-adv-x="190" 
d="M187 765l-9 -13l-137 108l12 14zM105 704v-704h-20v704h20z" />
    <glyph glyph-name="Iacute" unicode="&#xcd;" horiz-adv-x="190" 
d="M182 850l-146 -92l-11 12l145 99zM105 704v-704h-20v704h20z" />
    <glyph glyph-name="Icircumflex" unicode="&#xce;" horiz-adv-x="190" 
d="M95 835l-112 -73l-12 12l124 81l123 -81l-10 -13zM105 704v-704h-20v704h20z" />
    <glyph glyph-name="Idieresis" unicode="&#xcf;" horiz-adv-x="190" 
d="M-1 821q0 12 8.5 21t21.5 9q12 0 21 -9t9 -21t-9 -21t-21 -9q-13 0 -21.5 9t-8.5 21zM133 821q0 12 8.5 21t21.5 9q12 0 20.5 -9t8.5 -21t-8.5 -21t-20.5 -9q-13 0 -21.5 9t-8.5 21zM105 704v-704h-20v704h20z" />
    <glyph glyph-name="Eth" unicode="&#xd0;" horiz-adv-x="742" 
d="M310 704q184 0 278 -92.5t94 -259.5q0 -166 -94 -259t-278 -93h-185v343h-115v18h115v343h185zM310 18q89 0 155 23t109.5 66.5t65.5 105.5t22 139t-22 139t-65.5 105.5t-109.5 66.5t-155 23h-165v-325h233v-18h-233v-325h165z" />
    <glyph glyph-name="Ntilde" unicode="&#xd1;" horiz-adv-x="647" 
d="M269 834q19 0 31.5 -8t23.5 -17t23 -17t30 -8q16 0 28.5 12t15.5 35h18q-2 -27 -19 -46t-43 -19q-19 0 -32.5 8t-25 17t-23 17t-27.5 8q-36 0 -42 -48h-18q4 30 19 48t41 18zM562 0h-20l-437 667v-667h-20v703h20l437 -666v666h20v-703z" />
    <glyph glyph-name="Ograve" unicode="&#xd2;" horiz-adv-x="792" 
d="M488 765l-9 -13l-137 108l12 14zM396 710q74 0 135.5 -26.5t106 -74t69.5 -113.5t25 -145t-25 -145t-69.5 -113.5t-106 -74t-135.5 -26.5q-73 0 -135 26.5t-106.5 74t-69.5 113.5t-25 145t25 145t69.5 113.5t106.5 74t135 26.5zM396 692q-66 0 -123 -23.5t-100 -67.5
t-67.5 -107t-24.5 -143q0 -79 24.5 -142.5t67.5 -107.5t100 -67.5t123 -23.5t123 23.5t100 67.5t67.5 107.5t24.5 142.5q0 80 -24.5 143t-67.5 107t-100 67.5t-123 23.5z" />
    <glyph glyph-name="Oacute" unicode="&#xd3;" horiz-adv-x="792" 
d="M483 850l-146 -92l-11 12l145 99zM396 710q74 0 135.5 -26.5t106 -74t69.5 -113.5t25 -145t-25 -145t-69.5 -113.5t-106 -74t-135.5 -26.5q-73 0 -135 26.5t-106.5 74t-69.5 113.5t-25 145t25 145t69.5 113.5t106.5 74t135 26.5zM396 692q-66 0 -123 -23.5t-100 -67.5
t-67.5 -107t-24.5 -143q0 -79 24.5 -142.5t67.5 -107.5t100 -67.5t123 -23.5t123 23.5t100 67.5t67.5 107.5t24.5 142.5q0 80 -24.5 143t-67.5 107t-100 67.5t-123 23.5z" />
    <glyph glyph-name="Ocircumflex" unicode="&#xd4;" horiz-adv-x="792" 
d="M396 835l-112 -73l-12 12l124 81l123 -81l-10 -13zM396 710q74 0 135.5 -26.5t106 -74t69.5 -113.5t25 -145t-25 -145t-69.5 -113.5t-106 -74t-135.5 -26.5q-73 0 -135 26.5t-106.5 74t-69.5 113.5t-25 145t25 145t69.5 113.5t106.5 74t135 26.5zM396 692
q-66 0 -123 -23.5t-100 -67.5t-67.5 -107t-24.5 -143q0 -79 24.5 -142.5t67.5 -107.5t100 -67.5t123 -23.5t123 23.5t100 67.5t67.5 107.5t24.5 142.5q0 80 -24.5 143t-67.5 107t-100 67.5t-123 23.5z" />
    <glyph glyph-name="Otilde" unicode="&#xd5;" horiz-adv-x="792" 
d="M341 834q19 0 31.5 -8t23.5 -17t23 -17t30 -8q16 0 28.5 12t15.5 35h18q-2 -27 -19 -46t-43 -19q-19 0 -32.5 8t-25 17t-23 17t-27.5 8q-36 0 -42 -48h-18q4 30 19 48t41 18zM396 710q74 0 135.5 -26.5t106 -74t69.5 -113.5t25 -145t-25 -145t-69.5 -113.5t-106 -74
t-135.5 -26.5q-73 0 -135 26.5t-106.5 74t-69.5 113.5t-25 145t25 145t69.5 113.5t106.5 74t135 26.5zM396 692q-66 0 -123 -23.5t-100 -67.5t-67.5 -107t-24.5 -143q0 -79 24.5 -142.5t67.5 -107.5t100 -67.5t123 -23.5t123 23.5t100 67.5t67.5 107.5t24.5 142.5
q0 80 -24.5 143t-67.5 107t-100 67.5t-123 23.5z" />
    <glyph glyph-name="Odieresis" unicode="&#xd6;" horiz-adv-x="792" 
d="M300 821q0 12 8.5 21t21.5 9q12 0 21 -9t9 -21t-9 -21t-21 -9q-13 0 -21.5 9t-8.5 21zM434 821q0 12 8.5 21t21.5 9q12 0 20.5 -9t8.5 -21t-8.5 -21t-20.5 -9q-13 0 -21.5 9t-8.5 21zM396 710q74 0 135.5 -26.5t106 -74t69.5 -113.5t25 -145t-25 -145t-69.5 -113.5
t-106 -74t-135.5 -26.5q-73 0 -135 26.5t-106.5 74t-69.5 113.5t-25 145t25 145t69.5 113.5t106.5 74t135 26.5zM396 692q-66 0 -123 -23.5t-100 -67.5t-67.5 -107t-24.5 -143q0 -79 24.5 -142.5t67.5 -107.5t100 -67.5t123 -23.5t123 23.5t100 67.5t67.5 107.5t24.5 142.5
q0 80 -24.5 143t-67.5 107t-100 67.5t-123 23.5z" />
    <glyph glyph-name="multiply" unicode="&#xd7;" horiz-adv-x="469" 
d="M415 185l-181 181l-180 -180l-13 13l180 180l-181 181l14 14l181 -181l180 180l13 -13l-180 -180l181 -181z" />
    <glyph glyph-name="Oslash" unicode="&#xd8;" horiz-adv-x="792" 
d="M641 606q43 -48 67 -112.5t24 -142.5q0 -79 -25 -145t-69.5 -113.5t-106 -74t-135.5 -26.5q-71 0 -129.5 24t-103.5 68l-77 -84h-25l89 97q-43 48 -66.5 112t-23.5 142q0 79 25 145t69.5 113.5t106.5 74t135 26.5q70 0 129 -24t104 -67l78 85h24zM81 351q0 -75 22 -135
t60 -105l453 493q-43 43 -99 65.5t-121 22.5q-66 0 -123 -23.5t-100 -67.5t-67.5 -107t-24.5 -143zM396 10q66 0 123 23.5t100 67.5t67.5 107.5t24.5 142.5q0 75 -22 135.5t-61 104.5l-452 -493q42 -43 98.5 -65.5t121.5 -22.5z" />
    <glyph glyph-name="Ugrave" unicode="&#xd9;" horiz-adv-x="629" 
d="M407 765l-9 -13l-137 108l12 14zM100 704v-437q0 -70 16.5 -119t45.5 -79.5t69 -44t86 -13.5t84.5 13.5t67 44t44.5 79.5t16 119v437h20v-437q0 -73 -17 -125t-47.5 -85t-73 -48.5t-94.5 -15.5t-95.5 15.5t-75 48.5t-49 85t-17.5 125v437h20z" />
    <glyph glyph-name="Uacute" unicode="&#xda;" horiz-adv-x="629" 
d="M402 850l-146 -92l-11 12l145 99zM100 704v-437q0 -70 16.5 -119t45.5 -79.5t69 -44t86 -13.5t84.5 13.5t67 44t44.5 79.5t16 119v437h20v-437q0 -73 -17 -125t-47.5 -85t-73 -48.5t-94.5 -15.5t-95.5 15.5t-75 48.5t-49 85t-17.5 125v437h20z" />
    <glyph glyph-name="Ucircumflex" unicode="&#xdb;" horiz-adv-x="629" 
d="M315 835l-112 -73l-12 12l124 81l123 -81l-10 -13zM100 704v-437q0 -70 16.5 -119t45.5 -79.5t69 -44t86 -13.5t84.5 13.5t67 44t44.5 79.5t16 119v437h20v-437q0 -73 -17 -125t-47.5 -85t-73 -48.5t-94.5 -15.5t-95.5 15.5t-75 48.5t-49 85t-17.5 125v437h20z" />
    <glyph glyph-name="Udieresis" unicode="&#xdc;" horiz-adv-x="629" 
d="M218 821q0 12 8.5 21t21.5 9q12 0 21 -9t9 -21t-9 -21t-21 -9q-13 0 -21.5 9t-8.5 21zM352 821q0 12 8.5 21t21.5 9q12 0 20.5 -9t8.5 -21t-8.5 -21t-20.5 -9q-13 0 -21.5 9t-8.5 21zM100 704v-437q0 -70 16.5 -119t45.5 -79.5t69 -44t86 -13.5t84.5 13.5t67 44
t44.5 79.5t16 119v437h20v-437q0 -73 -17 -125t-47.5 -85t-73 -48.5t-94.5 -15.5t-95.5 15.5t-75 48.5t-49 85t-17.5 125v437h20z" />
    <glyph glyph-name="Yacute" unicode="&#xdd;" horiz-adv-x="518" 
d="M200 758l-11 12l145 99l12 -19zM488 704l-218 -409v-295h-20v295l-220 409h24l205 -387l205 387h24z" />
    <glyph glyph-name="Thorn" unicode="&#xde;" horiz-adv-x="528" 
d="M105 159v-159h-20v704h20v-158h158q60 0 102.5 -14t70 -39.5t40 -61t12.5 -79.5q0 -98 -57.5 -145.5t-167.5 -47.5h-158zM263 180q57 0 96 12.5t63 35t35 54t11 70.5q0 41 -11 73t-35 54.5t-63 34.5t-96 12h-158v-346h158z" />
    <glyph glyph-name="germandbls" unicode="&#xdf;" horiz-adv-x="588" 
d="M423 343q68 -45 96.5 -91.5t28.5 -106.5q0 -34 -13 -63t-36 -50t-54.5 -32.5t-68.5 -11.5q-78 0 -126 44.5t-48 128.5h20q0 -32 9 -60.5t27.5 -49.5t48 -33t69.5 -12t68.5 12.5t47 32.5t27.5 44.5t9 49.5q0 49 -22.5 91t-87.5 86l-164 111v17l45 22q42 20 62 49t20 74
q0 61 -36 99t-96 38q-69 0 -106.5 -39t-37.5 -105v-588h-20v588q0 77 45.5 119.5t118.5 42.5q30 0 57.5 -10t48.5 -30t33.5 -48.5t12.5 -66.5q0 -93 -94 -139l-31 -15z" />
    <glyph glyph-name="agrave" unicode="&#xe0;" 
d="M428 601l-9 -13l-137 108l12 14zM323 547q48 0 88 -13.5t71.5 -37.5t53 -57.5t31.5 -72.5v174h19v-540h-19v174q-10 -39 -31.5 -72.5t-53 -57.5t-71.5 -37.5t-88 -13.5q-58 0 -106.5 19t-83 55t-54 87.5t-19.5 115.5q0 65 19.5 116t54 87t83 55t106.5 19zM323 529
q-55 0 -100 -18t-77 -51.5t-49 -81.5t-17 -108t17 -108t49 -81.5t77 -51.5t100 -18q53 0 97.5 18.5t77 52.5t51 82t18.5 106q0 59 -18.5 106.5t-51 81.5t-77 52.5t-97.5 18.5z" />
    <glyph glyph-name="aacute" unicode="&#xe1;" 
d="M423 686l-146 -92l-11 12l145 99zM323 547q48 0 88 -13.5t71.5 -37.5t53 -57.5t31.5 -72.5v174h19v-540h-19v174q-10 -39 -31.5 -72.5t-53 -57.5t-71.5 -37.5t-88 -13.5q-58 0 -106.5 19t-83 55t-54 87.5t-19.5 115.5q0 65 19.5 116t54 87t83 55t106.5 19zM323 529
q-55 0 -100 -18t-77 -51.5t-49 -81.5t-17 -108t17 -108t49 -81.5t77 -51.5t100 -18q53 0 97.5 18.5t77 52.5t51 82t18.5 106q0 59 -18.5 106.5t-51 81.5t-77 52.5t-97.5 18.5z" />
    <glyph glyph-name="acircumflex" unicode="&#xe2;" 
d="M336 671l-112 -73l-12 12l124 81l123 -81l-10 -13zM323 547q48 0 88 -13.5t71.5 -37.5t53 -57.5t31.5 -72.5v174h19v-540h-19v174q-10 -39 -31.5 -72.5t-53 -57.5t-71.5 -37.5t-88 -13.5q-58 0 -106.5 19t-83 55t-54 87.5t-19.5 115.5q0 65 19.5 116t54 87t83 55
t106.5 19zM323 529q-55 0 -100 -18t-77 -51.5t-49 -81.5t-17 -108t17 -108t49 -81.5t77 -51.5t100 -18q53 0 97.5 18.5t77 52.5t51 82t18.5 106q0 59 -18.5 106.5t-51 81.5t-77 52.5t-97.5 18.5z" />
    <glyph glyph-name="atilde" unicode="&#xe3;" 
d="M281 670q19 0 31.5 -8t23.5 -17t23 -17t30 -8q16 0 28.5 12t15.5 35h18q-2 -27 -19 -46t-43 -19q-19 0 -32.5 8t-25 17t-23 17t-27.5 8q-36 0 -42 -48h-18q4 30 19 48t41 18zM323 547q48 0 88 -13.5t71.5 -37.5t53 -57.5t31.5 -72.5v174h19v-540h-19v174
q-10 -39 -31.5 -72.5t-53 -57.5t-71.5 -37.5t-88 -13.5q-58 0 -106.5 19t-83 55t-54 87.5t-19.5 115.5q0 65 19.5 116t54 87t83 55t106.5 19zM323 529q-55 0 -100 -18t-77 -51.5t-49 -81.5t-17 -108t17 -108t49 -81.5t77 -51.5t100 -18q53 0 97.5 18.5t77 52.5t51 82
t18.5 106q0 59 -18.5 106.5t-51 81.5t-77 52.5t-97.5 18.5z" />
    <glyph glyph-name="adieresis" unicode="&#xe4;" 
d="M227 657q0 12 8.5 21t21.5 9q12 0 21 -9t9 -21t-9 -21t-21 -9q-13 0 -21.5 9t-8.5 21zM361 657q0 12 8.5 21t21.5 9q12 0 20.5 -9t8.5 -21t-8.5 -21t-20.5 -9q-13 0 -21.5 9t-8.5 21zM323 547q48 0 88 -13.5t71.5 -37.5t53 -57.5t31.5 -72.5v174h19v-540h-19v174
q-10 -39 -31.5 -72.5t-53 -57.5t-71.5 -37.5t-88 -13.5q-58 0 -106.5 19t-83 55t-54 87.5t-19.5 115.5q0 65 19.5 116t54 87t83 55t106.5 19zM323 529q-55 0 -100 -18t-77 -51.5t-49 -81.5t-17 -108t17 -108t49 -81.5t77 -51.5t100 -18q53 0 97.5 18.5t77 52.5t51 82
t18.5 106q0 59 -18.5 106.5t-51 81.5t-77 52.5t-97.5 18.5z" />
    <glyph glyph-name="aring" unicode="&#xe5;" 
d="M323 795q37 0 63.5 -24t26.5 -66t-26.5 -66t-63.5 -24t-63.5 24t-26.5 66t26.5 66t63.5 24zM323 777q-30 0 -50 -19t-20 -53t20 -53t50 -19t50 19t20 53t-20 53t-50 19zM323 547q48 0 88 -13.5t71.5 -37.5t53 -57.5t31.5 -72.5v174h19v-540h-19v174q-10 -39 -31.5 -72.5
t-53 -57.5t-71.5 -37.5t-88 -13.5q-58 0 -106.5 19t-83 55t-54 87.5t-19.5 115.5q0 65 19.5 116t54 87t83 55t106.5 19zM323 529q-55 0 -100 -18t-77 -51.5t-49 -81.5t-17 -108t17 -108t49 -81.5t77 -51.5t100 -18q53 0 97.5 18.5t77 52.5t51 82t18.5 106q0 59 -18.5 106.5
t-51 81.5t-77 52.5t-97.5 18.5z" />
    <glyph glyph-name="ae" unicode="&#xe6;" horiz-adv-x="1135" 
d="M827 11q45 0 84 12t69 34t49.5 54t25.5 72h20q-7 -42 -27 -76.5t-51.5 -60t-74 -39.5t-95.5 -14q-42 0 -81 11.5t-71 34t-55 56.5t-34 80v-175h-19v174q-10 -39 -31.5 -72.5t-53 -57.5t-71.5 -37.5t-88 -13.5q-58 0 -106.5 19t-83 55t-54 87.5t-19.5 115.5q0 65 19.5 116
t54 87t83 55t106.5 19q48 0 88 -13.5t71.5 -37.5t53 -57.5t31.5 -72.5v174h19v-175q11 45 34 79t55 57t71 34.5t81 11.5q62 0 108.5 -20.5t77.5 -53.5t46.5 -74.5t15.5 -83.5q0 -20 -1 -30t-3 -24h-484q1 -64 21.5 -111.5t53.5 -78t76 -45.5t89 -15zM323 11q53 0 97.5 18.5
t77 52.5t51 82t18.5 106q0 59 -18.5 106.5t-51 81.5t-77 52.5t-97.5 18.5q-55 0 -100 -18t-77 -51.5t-49 -81.5t-17 -108t17 -108t49 -81.5t77 -51.5t100 -18zM827 529q-46 0 -89 -14.5t-76 -45.5t-53.5 -78t-21.5 -112h470q4 65 -14.5 112.5t-51.5 78t-76 45t-88 14.5z" />
    <glyph glyph-name="ccedilla" unicode="&#xe7;" horiz-adv-x="628" 
d="M320 11q45 0 84 12t69 34t49.5 54t25.5 72h20q-7 -41 -26.5 -76t-51 -60t-73.5 -39.5t-94 -14.5v-82q63 4 94.5 -17t31.5 -62q0 -38 -26.5 -62t-79.5 -24h-63v20h60q51 0 70 18.5t19 47.5q0 25 -19 43t-70 18h-37v100q-53 3 -97.5 23t-77 55.5t-50.5 85.5t-18 113
q0 65 19.5 116.5t54 87t82.5 54.5t104 19q53 0 95.5 -14t74 -39.5t51.5 -60t27 -76.5h-20q-6 40 -25.5 72t-49.5 54t-69 34t-84 12q-46 0 -89.5 -15.5t-77 -47t-53.5 -80.5t-20 -116t20 -116t53.5 -80.5t77 -47t89.5 -15.5z" />
    <glyph glyph-name="egrave" unicode="&#xe8;" horiz-adv-x="628" 
d="M397 588l-137 108l12 14l134 -109zM320 11q45 0 84 12t69 34t49.5 54t25.5 72h20q-7 -42 -27 -76.5t-51.5 -60t-74 -39.5t-95.5 -14q-56 0 -104 19t-82.5 54.5t-54 87t-19.5 116.5t19.5 116.5t54 87t82.5 54.5t104 19q62 0 108.5 -20.5t77.5 -53.5t46.5 -74.5t15.5 -83.5
q0 -20 -1 -30t-3 -24h-484q1 -65 21.5 -112t54 -78t76 -45.5t88.5 -14.5zM320 529q-46 0 -89 -14.5t-76 -45.5t-53.5 -78t-21.5 -112h470q4 65 -14.5 112.5t-51.5 78t-76 45t-88 14.5z" />
    <glyph glyph-name="eacute" unicode="&#xe9;" horiz-adv-x="628" 
d="M255 594l-11 12l145 99l12 -19zM320 11q45 0 84 12t69 34t49.5 54t25.5 72h20q-7 -42 -27 -76.5t-51.5 -60t-74 -39.5t-95.5 -14q-56 0 -104 19t-82.5 54.5t-54 87t-19.5 116.5t19.5 116.5t54 87t82.5 54.5t104 19q62 0 108.5 -20.5t77.5 -53.5t46.5 -74.5t15.5 -83.5
q0 -20 -1 -30t-3 -24h-484q1 -65 21.5 -112t54 -78t76 -45.5t88.5 -14.5zM320 529q-46 0 -89 -14.5t-76 -45.5t-53.5 -78t-21.5 -112h470q4 65 -14.5 112.5t-51.5 78t-76 45t-88 14.5z" />
    <glyph glyph-name="ecircumflex" unicode="&#xea;" horiz-adv-x="628" 
d="M202 598l-12 12l124 81l123 -81l-10 -13l-113 74zM320 11q45 0 84 12t69 34t49.5 54t25.5 72h20q-7 -42 -27 -76.5t-51.5 -60t-74 -39.5t-95.5 -14q-56 0 -104 19t-82.5 54.5t-54 87t-19.5 116.5t19.5 116.5t54 87t82.5 54.5t104 19q62 0 108.5 -20.5t77.5 -53.5
t46.5 -74.5t15.5 -83.5q0 -20 -1 -30t-3 -24h-484q1 -65 21.5 -112t54 -78t76 -45.5t88.5 -14.5zM320 529q-46 0 -89 -14.5t-76 -45.5t-53.5 -78t-21.5 -112h470q4 65 -14.5 112.5t-51.5 78t-76 45t-88 14.5z" />
    <glyph glyph-name="edieresis" unicode="&#xeb;" horiz-adv-x="628" 
d="M248 627q-13 0 -21.5 9t-8.5 21t8.5 21t21.5 9q12 0 21 -9t9 -21t-9 -21t-21 -9zM382 627q-13 0 -21.5 9t-8.5 21t8.5 21t21.5 9q12 0 20.5 -9t8.5 -21t-8.5 -21t-20.5 -9zM320 11q45 0 84 12t69 34t49.5 54t25.5 72h20q-7 -42 -27 -76.5t-51.5 -60t-74 -39.5t-95.5 -14
q-56 0 -104 19t-82.5 54.5t-54 87t-19.5 116.5t19.5 116.5t54 87t82.5 54.5t104 19q62 0 108.5 -20.5t77.5 -53.5t46.5 -74.5t15.5 -83.5q0 -20 -1 -30t-3 -24h-484q1 -65 21.5 -112t54 -78t76 -45.5t88.5 -14.5zM320 529q-46 0 -89 -14.5t-76 -45.5t-53.5 -78t-21.5 -112
h470q4 65 -14.5 112.5t-51.5 78t-76 45t-88 14.5z" />
    <glyph glyph-name="igrave" unicode="&#xec;" horiz-adv-x="190" 
d="M187 601l-9 -13l-137 108l12 14zM105 540v-540h-20v540h20z" />
    <glyph glyph-name="iacute" unicode="&#xed;" horiz-adv-x="190" 
d="M182 686l-146 -92l-11 12l145 99zM105 540v-540h-20v540h20z" />
    <glyph glyph-name="icircumflex" unicode="&#xee;" horiz-adv-x="190" 
d="M95 671l-112 -73l-12 12l124 81l123 -81l-10 -13zM105 540v-540h-20v540h20z" />
    <glyph glyph-name="idieresis" unicode="&#xef;" horiz-adv-x="190" 
d="M-1 657q0 12 8.5 21t21.5 9q12 0 21 -9t9 -21t-9 -21t-21 -9q-13 0 -21.5 9t-8.5 21zM133 657q0 12 8.5 21t21.5 9q12 0 20.5 -9t8.5 -21t-8.5 -21t-20.5 -9q-13 0 -21.5 9t-8.5 21zM105 540v-540h-20v540h20z" />
    <glyph glyph-name="eth" unicode="&#xf0;" horiz-adv-x="645" 
d="M422 674q86 -82 124.5 -170t38.5 -197q0 -79 -19 -138t-53.5 -98t-83 -58.5t-106.5 -19.5q-62 0 -111 21.5t-82.5 60t-51.5 92.5t-18 119q0 60 18.5 109t52.5 84t83 54t109 19q42 0 81 -11.5t71.5 -36.5t57.5 -62.5t38 -90.5q-6 47 -18 88t-31.5 79t-47.5 75t-68 75
l-154 -56v18l140 51q-16 14 -33 29t-37 30h22q17 -14 33.5 -26.5t30.5 -26.5l149 54v-18zM323 11q51 0 95 17.5t77 50.5t51.5 81.5t18.5 109.5q0 64 -19 113t-52 82.5t-77 51t-94 17.5q-52 0 -96.5 -16.5t-77 -48t-51 -77.5t-18.5 -106q0 -65 18 -116t50.5 -86.5t77 -54
t97.5 -18.5z" />
    <glyph glyph-name="ntilde" unicode="&#xf1;" horiz-adv-x="614" 
d="M252 652q-36 0 -42 -48h-18q4 30 19 48t41 18q19 0 31.5 -8t23.5 -17t23 -17t30 -8q16 0 28.5 12t15.5 35h18q-2 -27 -19 -46t-43 -19q-19 0 -32.5 8t-25 17t-23 17t-27.5 8zM317 552q44 0 83.5 -13.5t69 -42.5t47 -73.5t17.5 -107.5v-315h-19v317q0 108 -54.5 162.5
t-143.5 54.5q-46 0 -85 -15t-67 -45.5t-44 -77t-16 -109.5v-287h-20v540h20v-152q10 43 31 74t49.5 51t62.5 29.5t69 9.5z" />
    <glyph glyph-name="ograve" unicode="&#xf2;" horiz-adv-x="647" 
d="M416 601l-9 -13l-137 108l12 14zM324 547q56 0 104.5 -19t83.5 -54.5t55 -87t20 -116.5t-20 -116.5t-55 -87t-83.5 -54.5t-104.5 -19t-104.5 19t-84 54.5t-55.5 87t-20 116.5t20 116.5t55.5 87t84 54.5t104.5 19zM324 529q-46 0 -90 -15.5t-78.5 -47t-55 -80.5
t-20.5 -116t20.5 -116t55 -80.5t78.5 -47t90 -15.5q47 0 90.5 15.5t77.5 47t54.5 80.5t20.5 116t-20.5 116t-54.5 80.5t-77.5 47t-90.5 15.5z" />
    <glyph glyph-name="oacute" unicode="&#xf3;" horiz-adv-x="647" 
d="M411 686l-146 -92l-11 12l145 99zM324 547q56 0 104.5 -19t83.5 -54.5t55 -87t20 -116.5t-20 -116.5t-55 -87t-83.5 -54.5t-104.5 -19t-104.5 19t-84 54.5t-55.5 87t-20 116.5t20 116.5t55.5 87t84 54.5t104.5 19zM324 529q-46 0 -90 -15.5t-78.5 -47t-55 -80.5
t-20.5 -116t20.5 -116t55 -80.5t78.5 -47t90 -15.5q47 0 90.5 15.5t77.5 47t54.5 80.5t20.5 116t-20.5 116t-54.5 80.5t-77.5 47t-90.5 15.5z" />
    <glyph glyph-name="ocircumflex" unicode="&#xf4;" horiz-adv-x="647" 
d="M324 671l-112 -73l-12 12l124 81l123 -81l-10 -13zM324 547q56 0 104.5 -19t83.5 -54.5t55 -87t20 -116.5t-20 -116.5t-55 -87t-83.5 -54.5t-104.5 -19t-104.5 19t-84 54.5t-55.5 87t-20 116.5t20 116.5t55.5 87t84 54.5t104.5 19zM324 529q-46 0 -90 -15.5t-78.5 -47
t-55 -80.5t-20.5 -116t20.5 -116t55 -80.5t78.5 -47t90 -15.5q47 0 90.5 15.5t77.5 47t54.5 80.5t20.5 116t-20.5 116t-54.5 80.5t-77.5 47t-90.5 15.5z" />
    <glyph glyph-name="otilde" unicode="&#xf5;" horiz-adv-x="647" 
d="M269 670q19 0 31.5 -8t23.5 -17t23 -17t30 -8q16 0 28.5 12t15.5 35h18q-2 -27 -19 -46t-43 -19q-19 0 -32.5 8t-25 17t-23 17t-27.5 8q-36 0 -42 -48h-18q4 30 19 48t41 18zM324 547q56 0 104.5 -19t83.5 -54.5t55 -87t20 -116.5t-20 -116.5t-55 -87t-83.5 -54.5
t-104.5 -19t-104.5 19t-84 54.5t-55.5 87t-20 116.5t20 116.5t55.5 87t84 54.5t104.5 19zM324 529q-46 0 -90 -15.5t-78.5 -47t-55 -80.5t-20.5 -116t20.5 -116t55 -80.5t78.5 -47t90 -15.5q47 0 90.5 15.5t77.5 47t54.5 80.5t20.5 116t-20.5 116t-54.5 80.5t-77.5 47
t-90.5 15.5z" />
    <glyph glyph-name="odieresis" unicode="&#xf6;" horiz-adv-x="647" 
d="M227 657q0 12 8.5 21t21.5 9q12 0 21 -9t9 -21t-9 -21t-21 -9q-13 0 -21.5 9t-8.5 21zM361 657q0 12 8.5 21t21.5 9q12 0 20.5 -9t8.5 -21t-8.5 -21t-20.5 -9q-13 0 -21.5 9t-8.5 21zM324 547q56 0 104.5 -19t83.5 -54.5t55 -87t20 -116.5t-20 -116.5t-55 -87
t-83.5 -54.5t-104.5 -19t-104.5 19t-84 54.5t-55.5 87t-20 116.5t20 116.5t55.5 87t84 54.5t104.5 19zM324 529q-46 0 -90 -15.5t-78.5 -47t-55 -80.5t-20.5 -116t20.5 -116t55 -80.5t78.5 -47t90 -15.5q47 0 90.5 15.5t77.5 47t54.5 80.5t20.5 116t-20.5 116t-54.5 80.5
t-77.5 47t-90.5 15.5z" />
    <glyph glyph-name="divide" unicode="&#xf7;" horiz-adv-x="589" 
d="M320 618v-49h-50v49h50zM549 389v-18h-509v18h509zM320 194v-49h-50v49h50z" />
    <glyph glyph-name="oslash" unicode="&#xf8;" horiz-adv-x="647" 
d="M516 469q34 -35 52.5 -85.5t18.5 -113.5q0 -65 -20 -116.5t-55 -87t-83.5 -54.5t-104.5 -19q-54 0 -99.5 16.5t-80.5 48.5l-53 -58h-22l63 70q-34 35 -53 85.5t-19 114.5q0 65 20 116.5t55.5 87t84 54.5t104.5 19q54 0 100 -17t81 -50l54 60h22zM80 270q0 -62 17.5 -108
t47.5 -78l347 382q-34 32 -77.5 47.5t-90.5 15.5q-46 0 -90 -15.5t-78.5 -47t-55 -80.5t-20.5 -116zM324 11q47 0 90.5 15.5t77.5 47t54.5 80.5t20.5 116q0 62 -17 107.5t-46 77.5l-347 -383q34 -31 77.5 -46t89.5 -15z" />
    <glyph glyph-name="ugrave" unicode="&#xf9;" horiz-adv-x="599" 
d="M383 588l-137 108l12 14l134 -109zM514 540v-540h-20v152q-10 -43 -31 -74t-49.5 -51t-62.5 -29.5t-69 -9.5q-44 0 -83.5 13.5t-69 42.5t-47 73.5t-17.5 107.5v315h19v-317q0 -108 54.5 -162.5t143.5 -54.5q46 0 85 15t67 45.5t44 77t16 109.5v287h20z" />
    <glyph glyph-name="uacute" unicode="&#xfa;" horiz-adv-x="599" 
d="M241 594l-11 12l145 99l12 -19zM514 540v-540h-20v152q-10 -43 -31 -74t-49.5 -51t-62.5 -29.5t-69 -9.5q-44 0 -83.5 13.5t-69 42.5t-47 73.5t-17.5 107.5v315h19v-317q0 -108 54.5 -162.5t143.5 -54.5q46 0 85 15t67 45.5t44 77t16 109.5v287h20z" />
    <glyph glyph-name="ucircumflex" unicode="&#xfb;" horiz-adv-x="599" 
d="M188 598l-12 12l124 81l123 -81l-10 -13l-113 74zM514 540v-540h-20v152q-10 -43 -31 -74t-49.5 -51t-62.5 -29.5t-69 -9.5q-44 0 -83.5 13.5t-69 42.5t-47 73.5t-17.5 107.5v315h19v-317q0 -108 54.5 -162.5t143.5 -54.5q46 0 85 15t67 45.5t44 77t16 109.5v287h20z" />
    <glyph glyph-name="udieresis" unicode="&#xfc;" horiz-adv-x="599" 
d="M223 627q-13 0 -21.5 9t-8.5 21t8.5 21t21.5 9q12 0 21 -9t9 -21t-9 -21t-21 -9zM357 627q-13 0 -21.5 9t-8.5 21t8.5 21t21.5 9q12 0 20.5 -9t8.5 -21t-8.5 -21t-20.5 -9zM514 540v-540h-20v152q-10 -43 -31 -74t-49.5 -51t-62.5 -29.5t-69 -9.5q-44 0 -83.5 13.5
t-69 42.5t-47 73.5t-17.5 107.5v315h19v-317q0 -108 54.5 -162.5t143.5 -54.5q46 0 85 15t67 45.5t44 77t16 109.5v287h20z" />
    <glyph glyph-name="yacute" unicode="&#xfd;" horiz-adv-x="503" 
d="M339 686l-146 -92l-11 12l145 99zM42 540l218 -511l201 511h22l-308 -794h-25l99 253l-229 541h22z" />
    <glyph glyph-name="thorn" unicode="&#xfe;" 
d="M348 547q58 0 106.5 -19t83 -55t54 -87t19.5 -116q0 -64 -19.5 -115.5t-54 -87.5t-83 -55t-106.5 -19q-48 0 -88 13.5t-71.5 37.5t-52.5 57.5t-32 72.5v-428h-19v994h19v-374q11 39 32 72.5t52.5 57.5t71.5 37.5t88 13.5zM348 529q-53 0 -97.5 -18.5t-77 -52.5t-51 -81.5
t-18.5 -106.5q0 -58 18.5 -106t51 -82t77 -52.5t97.5 -18.5q56 0 100.5 18t76.5 51.5t49 81.5t17 108t-17 108t-49 81.5t-76.5 51.5t-100.5 18z" />
    <glyph glyph-name="ydieresis" unicode="&#xff;" horiz-adv-x="503" 
d="M155 657q0 12 8.5 21t21.5 9q12 0 21 -9t9 -21t-9 -21t-21 -9q-13 0 -21.5 9t-8.5 21zM289 657q0 12 8.5 21t21.5 9q12 0 20.5 -9t8.5 -21t-8.5 -21t-20.5 -9q-13 0 -21.5 9t-8.5 21zM42 540l218 -511l201 511h22l-308 -794h-25l99 253l-229 541h22z" />
    <glyph glyph-name="Amacron" unicode="&#x100;" horiz-adv-x="601" 
d="M455 823h-309v18h309v-18zM475 194h-348l-74 -194h-23l261 683h20l260 -683h-23zM468 212l-167 439l-167 -439h334z" />
    <glyph glyph-name="amacron" unicode="&#x101;" 
d="M478 677v-18h-309v18h309zM323 547q48 0 88 -13.5t71.5 -37.5t53 -57.5t31.5 -72.5v174h19v-540h-19v174q-10 -39 -31.5 -72.5t-53 -57.5t-71.5 -37.5t-88 -13.5q-58 0 -106.5 19t-83 55t-54 87.5t-19.5 115.5q0 65 19.5 116t54 87t83 55t106.5 19zM323 529
q-55 0 -100 -18t-77 -51.5t-49 -81.5t-17 -108t17 -108t49 -81.5t77 -51.5t100 -18q53 0 97.5 18.5t77 52.5t51 82t18.5 106q0 59 -18.5 106.5t-51 81.5t-77 52.5t-97.5 18.5z" />
    <glyph glyph-name="Abreve" unicode="&#x102;" horiz-adv-x="601" 
d="M301 780q-32 0 -54.5 9.5t-36.5 24.5t-20.5 33.5t-6.5 36.5v4h20q0 -43 25.5 -66.5t72.5 -23.5t72.5 23.5t25.5 66.5h20v-4q0 -18 -6.5 -36.5t-20.5 -33.5t-36.5 -24.5t-54.5 -9.5zM475 194h-348l-74 -194h-23l261 683h20l260 -683h-23zM468 212l-167 439l-167 -439h334z
" />
    <glyph glyph-name="abreve" unicode="&#x103;" 
d="M336 616q-32 0 -54.5 9.5t-36.5 24.5t-20.5 33.5t-6.5 36.5v4h20q0 -43 25.5 -66.5t72.5 -23.5t72.5 23.5t25.5 66.5h20v-4q0 -18 -6.5 -36.5t-20.5 -33.5t-36.5 -24.5t-54.5 -9.5zM323 547q48 0 88 -13.5t71.5 -37.5t53 -57.5t31.5 -72.5v174h19v-540h-19v174
q-10 -39 -31.5 -72.5t-53 -57.5t-71.5 -37.5t-88 -13.5q-58 0 -106.5 19t-83 55t-54 87.5t-19.5 115.5q0 65 19.5 116t54 87t83 55t106.5 19zM323 529q-55 0 -100 -18t-77 -51.5t-49 -81.5t-17 -108t17 -108t49 -81.5t77 -51.5t100 -18q53 0 97.5 18.5t77 52.5t51 82
t18.5 106q0 59 -18.5 106.5t-51 81.5t-77 52.5t-97.5 18.5z" />
    <glyph glyph-name="Aogonek" unicode="&#x104;" horiz-adv-x="601" 
d="M611 -170v-20h-68q-58 0 -86.5 27.5t-28.5 67.5q0 38 28.5 65.5t92.5 29.5l-74 194h-348l-74 -194h-23l261 683h20l260 -683v-20h-28q-45 0 -70 -20t-25 -55t25 -55t70 -20h68zM468 212l-167 437l-167 -437h334z" />
    <glyph glyph-name="aogonek" unicode="&#x105;" 
d="M626 -168v-20h-68q-58 0 -86.5 27.5t-28.5 67.5t28.5 67.5t86.5 27.5h9v172q-10 -39 -31.5 -72.5t-53 -57.5t-71.5 -37.5t-88 -13.5q-58 0 -106.5 19t-83 55t-54 87.5t-19.5 115.5q0 65 19.5 116t54 87t83 55t106.5 19q48 0 88 -13.5t71.5 -37.5t53 -57.5t31.5 -72.5v174
h19v-558h-28q-45 0 -70 -20t-25 -55t25 -55t70 -20h68zM323 11q53 0 97.5 18.5t77 52.5t51 82t18.5 106q0 59 -18.5 106.5t-51 81.5t-77 52.5t-97.5 18.5q-55 0 -100 -18t-77 -51.5t-49 -81.5t-17 -108t17 -108t49 -81.5t77 -51.5t100 -18z" />
    <glyph glyph-name="Cacute" unicode="&#x106;" horiz-adv-x="769" 
d="M472 850l-146 -92l-11 12l145 99zM388 711q127 0 206 -58.5t115 -156.5h-20q-15 42 -41.5 78.5t-64 62.5t-86.5 41t-109 15q-64 0 -120 -23.5t-97.5 -67.5t-65.5 -107.5t-24 -143.5q0 -79 24 -142t65.5 -107t97.5 -67.5t120 -23.5q60 0 109 15t86.5 41t64 62t41.5 78h20
q-36 -97 -115 -155.5t-206 -58.5q-72 0 -132 26.5t-103.5 74t-68 113t-24.5 144.5q0 80 24.5 146t68 113.5t103.5 74t132 26.5z" />
    <glyph glyph-name="cacute" unicode="&#x107;" horiz-adv-x="628" 
d="M401 686l-146 -92l-11 12l145 99zM320 547q53 0 95.5 -14t74 -39.5t51.5 -60t27 -76.5h-20q-6 40 -25.5 72t-49.5 54t-69 34t-84 12q-46 0 -89.5 -15.5t-77 -47t-53.5 -80.5t-20 -116t20 -116t53.5 -80.5t77 -47t89.5 -15.5q45 0 84 12t69 34t49.5 54t25.5 72h20
q-7 -42 -27 -76.5t-51.5 -60t-74 -39.5t-95.5 -14q-56 0 -104 19t-82.5 54.5t-54 87t-19.5 116.5t19.5 116.5t54 87t82.5 54.5t104 19z" />
    <glyph glyph-name="Cdotaccent" unicode="&#x10a;" horiz-adv-x="769" 
d="M354 821q0 12 9 21t21 9t21 -9t9 -21t-9 -21t-21 -9t-21 9t-9 21zM388 711q127 0 206 -58.5t115 -156.5h-20q-15 42 -41.5 78.5t-64 62.5t-86.5 41t-109 15q-64 0 -120 -23.5t-97.5 -67.5t-65.5 -107.5t-24 -143.5q0 -79 24 -142t65.5 -107t97.5 -67.5t120 -23.5
q60 0 109 15t86.5 41t64 62t41.5 78h20q-36 -97 -115 -155.5t-206 -58.5q-72 0 -132 26.5t-103.5 74t-68 113t-24.5 144.5q0 80 24.5 146t68 113.5t103.5 74t132 26.5z" />
    <glyph glyph-name="cdotaccent" unicode="&#x10b;" horiz-adv-x="628" 
d="M284 657q0 12 9 21t21 9t21 -9t9 -21t-9 -21t-21 -9t-21 9t-9 21zM320 547q53 0 95.5 -14t74 -39.5t51.5 -60t27 -76.5h-20q-6 40 -25.5 72t-49.5 54t-69 34t-84 12q-46 0 -89.5 -15.5t-77 -47t-53.5 -80.5t-20 -116t20 -116t53.5 -80.5t77 -47t89.5 -15.5q45 0 84 12
t69 34t49.5 54t25.5 72h20q-7 -42 -27 -76.5t-51.5 -60t-74 -39.5t-95.5 -14q-56 0 -104 19t-82.5 54.5t-54 87t-19.5 116.5t19.5 116.5t54 87t82.5 54.5t104 19z" />
    <glyph glyph-name="Ccaron" unicode="&#x10c;" horiz-adv-x="769" 
d="M508 862l-123 -81l-124 81v20l124 -81l123 81v-20zM388 711q127 0 206 -58.5t115 -156.5h-20q-15 42 -41.5 78.5t-64 62.5t-86.5 41t-109 15q-64 0 -120 -23.5t-97.5 -67.5t-65.5 -107.5t-24 -143.5q0 -79 24 -142t65.5 -107t97.5 -67.5t120 -23.5q60 0 109 15t86.5 41
t64 62t41.5 78h20q-36 -97 -115 -155.5t-206 -58.5q-72 0 -132 26.5t-103.5 74t-68 113t-24.5 144.5q0 80 24.5 146t68 113.5t103.5 74t132 26.5z" />
    <glyph glyph-name="ccaron" unicode="&#x10d;" horiz-adv-x="628" 
d="M438 698l-123 -81l-124 81v20l124 -81l123 81v-20zM320 547q53 0 95.5 -14t74 -39.5t51.5 -60t27 -76.5h-20q-6 40 -25.5 72t-49.5 54t-69 34t-84 12q-46 0 -89.5 -15.5t-77 -47t-53.5 -80.5t-20 -116t20 -116t53.5 -80.5t77 -47t89.5 -15.5q45 0 84 12t69 34t49.5 54
t25.5 72h20q-7 -42 -27 -76.5t-51.5 -60t-74 -39.5t-95.5 -14q-56 0 -104 19t-82.5 54.5t-54 87t-19.5 116.5t19.5 116.5t54 87t82.5 54.5t104 19z" />
    <glyph glyph-name="Dcaron" unicode="&#x10e;" horiz-adv-x="702" 
d="M487 862l-123 -81l-124 81v20l124 -81l123 81v-20zM642 352q0 -166 -94 -259t-278 -93h-185v704h185q184 0 278 -92.5t94 -259.5zM270 18q89 0 155 23t109.5 66.5t65.5 105.5t22 139t-22 139t-65.5 105.5t-109.5 66.5t-155 23h-165v-668h165z" />
    <glyph glyph-name="dcaron" unicode="&#x10f;" 
d="M323 547q48 0 88 -13.5t71.5 -37.5t53 -57.5t31.5 -72.5v374h19v-740h-19v174q-10 -39 -31.5 -72.5t-53 -57.5t-71.5 -37.5t-88 -13.5q-58 0 -106.5 19t-83 55t-54 87.5t-19.5 115.5q0 65 19.5 116t54 87t83 55t106.5 19zM698 740q2 -22 3 -38.5t1 -30.5q0 -48 -18.5 -63
t-48.5 -15v20q26 0 35.5 11.5t9.5 33.5v29h-38v53h56zM323 529q-55 0 -100 -18t-77 -51.5t-49 -81.5t-17 -108t17 -108t49 -81.5t77 -51.5t100 -18q53 0 97.5 18.5t77 52.5t51 82t18.5 106q0 59 -18.5 106.5t-51 81.5t-77 52.5t-97.5 18.5z" />
    <glyph glyph-name="Dcroat" unicode="&#x110;" horiz-adv-x="742" 
d="M310 704q184 0 278 -92.5t94 -259.5q0 -166 -94 -259t-278 -93h-185v343h-115v18h115v343h185zM310 18q89 0 155 23t109.5 66.5t65.5 105.5t22 139t-22 139t-65.5 105.5t-109.5 66.5t-155 23h-165v-325h233v-18h-233v-325h165z" />
    <glyph glyph-name="dcroat" unicode="&#x111;" horiz-adv-x="664" 
d="M654 610h-68v-610h-19v174q-10 -39 -31.5 -72.5t-53 -57.5t-71.5 -37.5t-88 -13.5q-58 0 -106.5 19t-83 55t-54 87.5t-19.5 115.5q0 65 19.5 116t54 87t83 55t106.5 19q48 0 88 -13.5t71.5 -37.5t53 -57.5t31.5 -72.5v244h-205v18h205v112h19v-112h68v-18zM323 11
q53 0 97.5 18.5t77 52.5t51 82t18.5 106q0 59 -18.5 106.5t-51 81.5t-77 52.5t-97.5 18.5q-55 0 -100 -18t-77 -51.5t-49 -81.5t-17 -108t17 -108t49 -81.5t77 -51.5t100 -18z" />
    <glyph glyph-name="Emacron" unicode="&#x112;" horiz-adv-x="479" 
d="M412 841v-18h-309v18h309zM105 686v-325h294v-18h-294v-325h324v-18h-344v704h344v-18h-324z" />
    <glyph glyph-name="emacron" unicode="&#x113;" horiz-adv-x="628" 
d="M469 659h-309v18h309v-18zM320 11q45 0 84 12t69 34t49.5 54t25.5 72h20q-7 -42 -27 -76.5t-51.5 -60t-74 -39.5t-95.5 -14q-56 0 -104 19t-82.5 54.5t-54 87t-19.5 116.5t19.5 116.5t54 87t82.5 54.5t104 19q62 0 108.5 -20.5t77.5 -53.5t46.5 -74.5t15.5 -83.5
q0 -20 -1 -30t-3 -24h-484q1 -65 21.5 -112t54 -78t76 -45.5t88.5 -14.5zM320 529q-46 0 -89 -14.5t-76 -45.5t-53.5 -78t-21.5 -112h470q4 65 -14.5 112.5t-51.5 78t-76 45t-88 14.5z" />
    <glyph glyph-name="Ebreve" unicode="&#x114;" horiz-adv-x="479" 
d="M240 780q-32 0 -54.5 9.5t-36.5 24.5t-20.5 33.5t-6.5 36.5v4h20q0 -43 25.5 -66.5t72.5 -23.5t72.5 23.5t25.5 66.5h20v-4q0 -18 -6.5 -36.5t-20.5 -33.5t-36.5 -24.5t-54.5 -9.5zM105 686v-325h294v-18h-294v-325h324v-18h-344v704h344v-18h-324z" />
    <glyph glyph-name="ebreve" unicode="&#x115;" horiz-adv-x="628" 
d="M314 616q-32 0 -54.5 9.5t-36.5 24.5t-20.5 33.5t-6.5 36.5v4h20q0 -43 25.5 -66.5t72.5 -23.5t72.5 23.5t25.5 66.5h20v-4q0 -18 -6.5 -36.5t-20.5 -33.5t-36.5 -24.5t-54.5 -9.5zM320 11q45 0 84 12t69 34t49.5 54t25.5 72h20q-7 -42 -27 -76.5t-51.5 -60t-74 -39.5
t-95.5 -14q-56 0 -104 19t-82.5 54.5t-54 87t-19.5 116.5t19.5 116.5t54 87t82.5 54.5t104 19q62 0 108.5 -20.5t77.5 -53.5t46.5 -74.5t15.5 -83.5q0 -20 -1 -30t-3 -24h-484q1 -65 21.5 -112t54 -78t76 -45.5t88.5 -14.5zM320 529q-46 0 -89 -14.5t-76 -45.5t-53.5 -78
t-21.5 -112h470q4 65 -14.5 112.5t-51.5 78t-76 45t-88 14.5z" />
    <glyph glyph-name="Edotaccent" unicode="&#x116;" horiz-adv-x="479" 
d="M227 821q0 12 9 21t21 9t21 -9t9 -21t-9 -21t-21 -9t-21 9t-9 21zM105 686v-325h294v-18h-294v-325h324v-18h-344v704h344v-18h-324z" />
    <glyph glyph-name="edotaccent" unicode="&#x117;" horiz-adv-x="628" 
d="M314 627q-12 0 -21 9t-9 21t9 21t21 9t21 -9t9 -21t-9 -21t-21 -9zM320 11q45 0 84 12t69 34t49.5 54t25.5 72h20q-7 -42 -27 -76.5t-51.5 -60t-74 -39.5t-95.5 -14q-56 0 -104 19t-82.5 54.5t-54 87t-19.5 116.5t19.5 116.5t54 87t82.5 54.5t104 19q62 0 108.5 -20.5
t77.5 -53.5t46.5 -74.5t15.5 -83.5q0 -20 -1 -30t-3 -24h-484q1 -65 21.5 -112t54 -78t76 -45.5t88.5 -14.5zM320 529q-46 0 -89 -14.5t-76 -45.5t-53.5 -78t-21.5 -112h470q4 65 -14.5 112.5t-51.5 78t-76 45t-88 14.5z" />
    <glyph glyph-name="Eogonek" unicode="&#x118;" horiz-adv-x="479" 
d="M469 -168v-20h-68q-58 0 -86.5 27.5t-28.5 67.5q0 35 21.5 60.5t65.5 32.5h-288v704h344v-18h-324v-325h294v-18h-294v-325h324v-36h-28q-45 0 -70 -20t-25 -55t25 -55t70 -20h68z" />
    <glyph glyph-name="eogonek" unicode="&#x119;" horiz-adv-x="628" 
d="M320 11q45 0 84 12t69 34t49.5 54t25.5 72h20q-12 -76 -67.5 -127.5t-144.5 -60.5q-14 -2 -19 -8.5t-5 -18.5q0 -28 25 -46.5t70 -18.5h68v-20h-68q-58 0 -86.5 27.5t-28.5 67.5v15q-55 1 -101 20.5t-79.5 55t-52.5 86.5t-19 115q0 65 19.5 116.5t54 87t82.5 54.5t104 19
q62 0 108.5 -20.5t77.5 -53.5t46.5 -74.5t15.5 -83.5q0 -20 -1 -30t-3 -24h-484q1 -65 21.5 -112t54 -78t76 -45.5t88.5 -14.5zM320 529q-46 0 -89 -14.5t-76 -45.5t-53.5 -78t-21.5 -112h470q4 65 -14.5 112.5t-51.5 78t-76 45t-88 14.5z" />
    <glyph glyph-name="Ecaron" unicode="&#x11a;" horiz-adv-x="479" 
d="M381 862l-123 -81l-124 81v20l124 -81l123 81v-20zM105 686v-325h294v-18h-294v-325h324v-18h-344v704h344v-18h-324z" />
    <glyph glyph-name="ecaron" unicode="&#x11b;" horiz-adv-x="628" 
d="M315 617l-124 81v20l124 -81l123 81v-20zM320 11q45 0 84 12t69 34t49.5 54t25.5 72h20q-7 -42 -27 -76.5t-51.5 -60t-74 -39.5t-95.5 -14q-56 0 -104 19t-82.5 54.5t-54 87t-19.5 116.5t19.5 116.5t54 87t82.5 54.5t104 19q62 0 108.5 -20.5t77.5 -53.5t46.5 -74.5
t15.5 -83.5q0 -20 -1 -30t-3 -24h-484q1 -65 21.5 -112t54 -78t76 -45.5t88.5 -14.5zM320 529q-46 0 -89 -14.5t-76 -45.5t-53.5 -78t-21.5 -112h470q4 65 -14.5 112.5t-51.5 78t-76 45t-88 14.5z" />
    <glyph glyph-name="Gbreve" unicode="&#x11e;" horiz-adv-x="792" 
d="M396 780q-32 0 -54.5 9.5t-36.5 24.5t-20.5 33.5t-6.5 36.5v4h20q0 -43 25.5 -66.5t72.5 -23.5t72.5 23.5t25.5 66.5h20v-4q0 -18 -6.5 -36.5t-20.5 -33.5t-36.5 -24.5t-54.5 -9.5zM396 710q58 0 107.5 -15.5t89 -43.5t69 -68t47.5 -88h-20q-15 42 -42.5 78.5t-65 62.5
t-84 41t-101.5 15q-66 0 -123 -23.5t-100 -67.5t-67.5 -107t-24.5 -143q0 -79 24.5 -142.5t67.5 -107.5t100 -67.5t123 -23.5q65 0 121.5 23t99.5 65.5t68.5 104t27.5 138.5h-332v18h351v-8q0 -79 -25 -145t-69.5 -113.5t-106 -74t-135.5 -26.5q-73 0 -135 26.5t-106.5 74
t-69.5 113.5t-25 145t25 145t69.5 113.5t106.5 74t135 26.5z" />
    <glyph glyph-name="gbreve" unicode="&#x11f;" 
d="M336 616q-32 0 -54.5 9.5t-36.5 24.5t-20.5 33.5t-6.5 36.5v4h20q0 -43 25.5 -66.5t72.5 -23.5t72.5 23.5t25.5 66.5h20v-4q0 -18 -6.5 -36.5t-20.5 -33.5t-36.5 -24.5t-54.5 -9.5zM323 547q48 0 88 -13.5t71.5 -37.5t53 -57.5t31.5 -72.5v174h19v-560q0 -59 -20 -104
t-53 -76.5t-76 -47.5t-90 -16q-101 0 -164.5 49t-86.5 127h20q22 -70 79.5 -114t151.5 -44q46 0 86 16t70 45t47 71t17 94v194q-10 -39 -31.5 -72.5t-53 -57.5t-71.5 -37.5t-88 -13.5q-58 0 -106.5 19t-83 55t-54 87.5t-19.5 115.5q0 65 19.5 116t54 87t83 55t106.5 19z
M323 529q-55 0 -100 -18t-77 -51.5t-49 -81.5t-17 -108t17 -108t49 -81.5t77 -51.5t100 -18q53 0 97.5 18.5t77 52.5t51 82t18.5 106q0 59 -18.5 106.5t-51 81.5t-77 52.5t-97.5 18.5z" />
    <glyph glyph-name="Gdotaccent" unicode="&#x120;" horiz-adv-x="792" 
d="M366 821q0 12 9 21t21 9t21 -9t9 -21t-9 -21t-21 -9t-21 9t-9 21zM396 710q58 0 107.5 -15.5t89 -43.5t69 -68t47.5 -88h-20q-15 42 -42.5 78.5t-65 62.5t-84 41t-101.5 15q-66 0 -123 -23.5t-100 -67.5t-67.5 -107t-24.5 -143q0 -79 24.5 -142.5t67.5 -107.5t100 -67.5
t123 -23.5q65 0 121.5 23t99.5 65.5t68.5 104t27.5 138.5h-332v18h351v-8q0 -79 -25 -145t-69.5 -113.5t-106 -74t-135.5 -26.5q-73 0 -135 26.5t-106.5 74t-69.5 113.5t-25 145t25 145t69.5 113.5t106.5 74t135 26.5z" />
    <glyph glyph-name="gdotaccent" unicode="&#x121;" 
d="M293 657q0 12 9 21t21 9t21 -9t9 -21t-9 -21t-21 -9t-21 9t-9 21zM323 547q48 0 88 -13.5t71.5 -37.5t53 -57.5t31.5 -72.5v174h19v-560q0 -59 -20 -104t-53 -76.5t-76 -47.5t-90 -16q-101 0 -164.5 49t-86.5 127h20q22 -70 79.5 -114t151.5 -44q46 0 86 16t70 45t47 71
t17 94v194q-10 -39 -31.5 -72.5t-53 -57.5t-71.5 -37.5t-88 -13.5q-58 0 -106.5 19t-83 55t-54 87.5t-19.5 115.5q0 65 19.5 116t54 87t83 55t106.5 19zM323 529q-55 0 -100 -18t-77 -51.5t-49 -81.5t-17 -108t17 -108t49 -81.5t77 -51.5t100 -18q53 0 97.5 18.5t77 52.5
t51 82t18.5 106q0 59 -18.5 106.5t-51 81.5t-77 52.5t-97.5 18.5z" />
    <glyph glyph-name="Gcommaaccent" unicode="&#x122;" horiz-adv-x="792" 
d="M396 710q58 0 107.5 -15.5t89 -43.5t69 -68t47.5 -88h-20q-15 42 -42.5 78.5t-65 62.5t-84 41t-101.5 15q-66 0 -123 -23.5t-100 -67.5t-67.5 -107t-24.5 -143q0 -79 24.5 -142.5t67.5 -107.5t100 -67.5t123 -23.5q65 0 121.5 23t99.5 65.5t68.5 104t27.5 138.5h-332v18
h351v-8q0 -79 -25 -145t-69.5 -113.5t-106 -74t-135.5 -26.5q-73 0 -135 26.5t-106.5 74t-69.5 113.5t-25 145t25 145t69.5 113.5t106.5 74t135 26.5zM428 -59q1 -7 1.5 -15.5t0.5 -15.5q0 -27 -5 -43.5t-14 -26t-20.5 -13t-25.5 -3.5v18q24 0 33.5 14.5t9.5 39.5v7h-31v38
h51z" />
    <glyph glyph-name="gcommaaccent" unicode="&#x123;" 
d="M294 593q-2 22 -3 38.5t-1 30.5q0 48 18.5 63t48.5 15v-20q-26 0 -35.5 -11.5t-9.5 -33.5v-29h38v-53h-56zM323 547q48 0 88 -13.5t71.5 -37.5t53 -57.5t31.5 -72.5v174h19v-560q0 -59 -20 -104t-53 -76.5t-76 -47.5t-90 -16q-101 0 -164.5 49t-86.5 127h20
q22 -70 79.5 -114t151.5 -44q46 0 86 16t70 45t47 71t17 94v194q-10 -39 -31.5 -72.5t-53 -57.5t-71.5 -37.5t-88 -13.5q-58 0 -106.5 19t-83 55t-54 87.5t-19.5 115.5q0 65 19.5 116t54 87t83 55t106.5 19zM323 529q-55 0 -100 -18t-77 -51.5t-49 -81.5t-17 -108t17 -108
t49 -81.5t77 -51.5t100 -18q53 0 97.5 18.5t77 52.5t51 82t18.5 106q0 59 -18.5 106.5t-51 81.5t-77 52.5t-97.5 18.5z" />
    <glyph glyph-name="Itilde" unicode="&#x128;" horiz-adv-x="190" 
d="M40 834q19 0 31.5 -8t23.5 -17t23 -17t30 -8q16 0 28.5 12t15.5 35h18q-2 -27 -19 -46t-43 -19q-19 0 -32.5 8t-25 17t-23 17t-27.5 8q-36 0 -42 -48h-18q4 30 19 48t41 18zM105 704v-704h-20v704h20z" />
    <glyph glyph-name="itilde" unicode="&#x129;" horiz-adv-x="190" 
d="M40 670q19 0 31.5 -8t23.5 -17t23 -17t30 -8q16 0 28.5 12t15.5 35h18q-2 -27 -19 -46t-43 -19q-19 0 -32.5 8t-25 17t-23 17t-27.5 8q-36 0 -42 -48h-18q4 30 19 48t41 18zM105 540v-540h-20v540h20z" />
    <glyph glyph-name="Imacron" unicode="&#x12a;" horiz-adv-x="190" 
d="M250 841v-18h-309v18h309zM105 704v-704h-20v704h20z" />
    <glyph glyph-name="imacron" unicode="&#x12b;" horiz-adv-x="190" 
d="M250 677v-18h-309v18h309zM105 540v-540h-20v540h20z" />
    <glyph glyph-name="Ibreve" unicode="&#x12c;" horiz-adv-x="190" 
d="M95 780q-32 0 -54.5 9.5t-36.5 24.5t-20.5 33.5t-6.5 36.5v4h20q0 -43 25.5 -66.5t72.5 -23.5t72.5 23.5t25.5 66.5h20v-4q0 -18 -6.5 -36.5t-20.5 -33.5t-36.5 -24.5t-54.5 -9.5zM105 704v-704h-20v704h20z" />
    <glyph glyph-name="ibreve" unicode="&#x12d;" horiz-adv-x="190" 
d="M95 616q-32 0 -54.5 9.5t-36.5 24.5t-20.5 33.5t-6.5 36.5v4h20q0 -43 25.5 -66.5t72.5 -23.5t72.5 23.5t25.5 66.5h20v-4q0 -18 -6.5 -36.5t-20.5 -33.5t-36.5 -24.5t-54.5 -9.5zM105 540v-540h-20v540h20z" />
    <glyph glyph-name="Iogonek" unicode="&#x12e;" horiz-adv-x="190" 
d="M145 -168v-20h-68q-58 0 -86.5 27.5t-28.5 67.5t28.5 67.5t86.5 27.5h8v702h20v-722h-28q-45 0 -70 -20t-25 -55t25 -55t70 -20h68z" />
    <glyph glyph-name="iogonek" unicode="&#x12f;" horiz-adv-x="190" 
d="M95 678q-11 0 -18.5 7t-7.5 20t7.5 20t18.5 7t18.5 -7t7.5 -20t-7.5 -20t-18.5 -7zM145 -168v-20h-68q-58 0 -86.5 27.5t-28.5 67.5t28.5 67.5t86.5 27.5h8v538h20v-558h-28q-45 0 -70 -20t-25 -55t25 -55t70 -20h68z" />
    <glyph glyph-name="Idotaccent" unicode="&#x130;" horiz-adv-x="190" 
d="M65 821q0 12 9 21t21 9t21 -9t9 -21t-9 -21t-21 -9t-21 9t-9 21zM105 704v-704h-20v704h20z" />
    <glyph glyph-name="dotlessi" unicode="&#x131;" horiz-adv-x="190" 
d="M105 540v-540h-20v540h20z" />
    <glyph glyph-name="Kcommaaccent" unicode="&#x136;" horiz-adv-x="494" 
d="M117 352l357 -352h-27l-342 336v-336h-20v704h20v-338l342 338h27zM268 -59q1 -7 1.5 -15.5t0.5 -15.5q0 -27 -5 -43.5t-14 -26t-20.5 -13t-25.5 -3.5v18q24 0 33.5 14.5t9.5 39.5v7h-31v38h51z" />
    <glyph glyph-name="kcommaaccent" unicode="&#x137;" horiz-adv-x="395" 
d="M385 0h-31l-249 253v-253h-20v740h20v-447l243 247h30l-264 -266zM228 -59q1 -7 1.5 -15.5t0.5 -15.5q0 -27 -5 -43.5t-14 -26t-20.5 -13t-25.5 -3.5v18q24 0 33.5 14.5t9.5 39.5v7h-31v38h51z" />
    <glyph glyph-name="Lacute" unicode="&#x139;" horiz-adv-x="395" 
d="M285 850l-146 -92l-11 12l145 99zM105 18h270v-18h-290v704h20v-686z" />
    <glyph glyph-name="lacute" unicode="&#x13a;" horiz-adv-x="190" 
d="M105 637v-637h-20v625l-49 -31l-11 12l60 41v93h20v-79l65 44l12 -19z" />
    <glyph glyph-name="Lcommaaccent" unicode="&#x13b;" horiz-adv-x="395" 
d="M105 18h270v-18h-290v704h20v-686zM258 -59q1 -7 1.5 -15.5t0.5 -15.5q0 -27 -5 -43.5t-14 -26t-20.5 -13t-25.5 -3.5v18q24 0 33.5 14.5t9.5 39.5v7h-31v38h51z" />
    <glyph glyph-name="lcommaaccent" unicode="&#x13c;" horiz-adv-x="190" 
d="M105 740v-740h-20v740h20zM118 -59q1 -7 1.5 -15.5t0.5 -15.5q0 -27 -5 -43.5t-14 -26t-20.5 -13t-25.5 -3.5v18q24 0 33.5 14.5t9.5 39.5v7h-31v38h51z" />
    <glyph glyph-name="Lcaron" unicode="&#x13d;" horiz-adv-x="395" 
d="M105 18h270v-18h-290v704h20v-686zM288 704q2 -22 3 -38.5t1 -30.5q0 -48 -18.5 -63t-48.5 -15v20q26 0 35.5 11.5t9.5 33.5v29h-38v53h56z" />
    <glyph glyph-name="lcaron" unicode="&#x13e;" horiz-adv-x="190" 
d="M105 740v-740h-20v740h20zM218 740q2 -22 3 -38.5t1 -30.5q0 -48 -18.5 -63t-48.5 -15v20q26 0 35.5 11.5t9.5 33.5v29h-38v53h56z" />
    <glyph glyph-name="Ldot" unicode="&#x13f;" horiz-adv-x="395" 
d="M105 18h270v-18h-290v704h20v-686zM315 352q0 12 9 21t21 9t21 -9t9 -21t-9 -21t-21 -9t-21 9t-9 21z" />
    <glyph glyph-name="ldot" unicode="&#x140;" horiz-adv-x="190" 
d="M105 740v-740h-20v740h20zM160 370q0 12 9 21t21 9t21 -9t9 -21t-9 -21t-21 -9t-21 9t-9 21z" />
    <glyph glyph-name="Lslash" unicode="&#x141;" horiz-adv-x="415" 
d="M395 18v-18h-290v357l-95 -45v22l95 45v325h20v-316l161 76v-22l-161 -76v-348h270z" />
    <glyph glyph-name="lslash" unicode="&#x142;" horiz-adv-x="210" 
d="M200 531l-85 -49v-482h-20v471l-85 -49v19l85 49v250h20v-239l85 49v-19z" />
    <glyph glyph-name="Nacute" unicode="&#x143;" horiz-adv-x="647" 
d="M411 850l-146 -92l-11 12l145 99zM562 0h-20l-437 667v-667h-20v703h20l437 -666v666h20v-703z" />
    <glyph glyph-name="nacute" unicode="&#x144;" horiz-adv-x="614" 
d="M248 594l-11 12l145 99l12 -19zM317 552q44 0 83.5 -13.5t69 -42.5t47 -73.5t17.5 -107.5v-315h-19v317q0 108 -54.5 162.5t-143.5 54.5q-46 0 -85 -15t-67 -45.5t-44 -77t-16 -109.5v-287h-20v540h20v-152q10 43 31 74t49.5 51t62.5 29.5t69 9.5z" />
    <glyph glyph-name="Ncommaaccent" unicode="&#x145;" horiz-adv-x="647" 
d="M562 0h-20l-437 667v-667h-20v703h20l437 -666v666h20v-703zM348 -59q1 -7 1.5 -15.5t0.5 -15.5q0 -27 -5 -43.5t-14 -26t-20.5 -13t-25.5 -3.5v18q24 0 33.5 14.5t9.5 39.5v7h-31v38h51z" />
    <glyph glyph-name="ncommaaccent" unicode="&#x146;" horiz-adv-x="614" 
d="M317 552q44 0 83.5 -13.5t69 -42.5t47 -73.5t17.5 -107.5v-315h-19v317q0 108 -54.5 162.5t-143.5 54.5q-46 0 -85 -15t-67 -45.5t-44 -77t-16 -109.5v-287h-20v540h20v-152q10 43 31 74t49.5 51t62.5 29.5t69 9.5zM338 -59q1 -7 1.5 -15.5t0.5 -15.5q0 -27 -5 -43.5
t-14 -26t-20.5 -13t-25.5 -3.5v18q24 0 33.5 14.5t9.5 39.5v7h-31v38h51z" />
    <glyph glyph-name="Ncaron" unicode="&#x147;" horiz-adv-x="647" 
d="M447 862l-123 -81l-124 81v20l124 -81l123 81v-20zM562 0h-20l-437 667v-667h-20v703h20l437 -666v666h20v-703z" />
    <glyph glyph-name="ncaron" unicode="&#x148;" horiz-adv-x="614" 
d="M310 617l-124 81v20l124 -81l123 81v-20zM317 552q44 0 83.5 -13.5t69 -42.5t47 -73.5t17.5 -107.5v-315h-19v317q0 108 -54.5 162.5t-143.5 54.5q-46 0 -85 -15t-67 -45.5t-44 -77t-16 -109.5v-287h-20v540h20v-152q10 43 31 74t49.5 51t62.5 29.5t69 9.5z" />
    <glyph glyph-name="Omacron" unicode="&#x14c;" horiz-adv-x="792" 
d="M551 841v-18h-309v18h309zM396 710q74 0 135.5 -26.5t106 -74t69.5 -113.5t25 -145t-25 -145t-69.5 -113.5t-106 -74t-135.5 -26.5q-73 0 -135 26.5t-106.5 74t-69.5 113.5t-25 145t25 145t69.5 113.5t106.5 74t135 26.5zM396 692q-66 0 -123 -23.5t-100 -67.5
t-67.5 -107t-24.5 -143q0 -79 24.5 -142.5t67.5 -107.5t100 -67.5t123 -23.5t123 23.5t100 67.5t67.5 107.5t24.5 142.5q0 80 -24.5 143t-67.5 107t-100 67.5t-123 23.5z" />
    <glyph glyph-name="omacron" unicode="&#x14d;" horiz-adv-x="647" 
d="M478 677v-18h-309v18h309zM324 547q56 0 104.5 -19t83.5 -54.5t55 -87t20 -116.5t-20 -116.5t-55 -87t-83.5 -54.5t-104.5 -19t-104.5 19t-84 54.5t-55.5 87t-20 116.5t20 116.5t55.5 87t84 54.5t104.5 19zM324 529q-46 0 -90 -15.5t-78.5 -47t-55 -80.5t-20.5 -116
t20.5 -116t55 -80.5t78.5 -47t90 -15.5q47 0 90.5 15.5t77.5 47t54.5 80.5t20.5 116t-20.5 116t-54.5 80.5t-77.5 47t-90.5 15.5z" />
    <glyph glyph-name="Obreve" unicode="&#x14e;" horiz-adv-x="792" 
d="M396 780q-32 0 -54.5 9.5t-36.5 24.5t-20.5 33.5t-6.5 36.5v4h20q0 -43 25.5 -66.5t72.5 -23.5t72.5 23.5t25.5 66.5h20v-4q0 -18 -6.5 -36.5t-20.5 -33.5t-36.5 -24.5t-54.5 -9.5zM396 710q74 0 135.5 -26.5t106 -74t69.5 -113.5t25 -145t-25 -145t-69.5 -113.5
t-106 -74t-135.5 -26.5q-73 0 -135 26.5t-106.5 74t-69.5 113.5t-25 145t25 145t69.5 113.5t106.5 74t135 26.5zM396 692q-66 0 -123 -23.5t-100 -67.5t-67.5 -107t-24.5 -143q0 -79 24.5 -142.5t67.5 -107.5t100 -67.5t123 -23.5t123 23.5t100 67.5t67.5 107.5t24.5 142.5
q0 80 -24.5 143t-67.5 107t-100 67.5t-123 23.5z" />
    <glyph glyph-name="obreve" unicode="&#x14f;" horiz-adv-x="647" 
d="M324 616q-32 0 -54.5 9.5t-36.5 24.5t-20.5 33.5t-6.5 36.5v4h20q0 -43 25.5 -66.5t72.5 -23.5t72.5 23.5t25.5 66.5h20v-4q0 -18 -6.5 -36.5t-20.5 -33.5t-36.5 -24.5t-54.5 -9.5zM324 547q56 0 104.5 -19t83.5 -54.5t55 -87t20 -116.5t-20 -116.5t-55 -87t-83.5 -54.5
t-104.5 -19t-104.5 19t-84 54.5t-55.5 87t-20 116.5t20 116.5t55.5 87t84 54.5t104.5 19zM324 529q-46 0 -90 -15.5t-78.5 -47t-55 -80.5t-20.5 -116t20.5 -116t55 -80.5t78.5 -47t90 -15.5q47 0 90.5 15.5t77.5 47t54.5 80.5t20.5 116t-20.5 116t-54.5 80.5t-77.5 47
t-90.5 15.5z" />
    <glyph glyph-name="Ohungarumlaut" unicode="&#x150;" horiz-adv-x="792" 
d="M346 765h-20l60 104h23zM458 765h-20l65 104h23zM396 710q74 0 135.5 -26.5t106 -74t69.5 -113.5t25 -145t-25 -145t-69.5 -113.5t-106 -74t-135.5 -26.5q-73 0 -135 26.5t-106.5 74t-69.5 113.5t-25 145t25 145t69.5 113.5t106.5 74t135 26.5zM396 692q-66 0 -123 -23.5
t-100 -67.5t-67.5 -107t-24.5 -143q0 -79 24.5 -142.5t67.5 -107.5t100 -67.5t123 -23.5t123 23.5t100 67.5t67.5 107.5t24.5 142.5q0 80 -24.5 143t-67.5 107t-100 67.5t-123 23.5z" />
    <glyph glyph-name="ohungarumlaut" unicode="&#x151;" horiz-adv-x="647" 
d="M273 601h-20l60 104h23zM385 601h-20l65 104h23zM324 547q56 0 104.5 -19t83.5 -54.5t55 -87t20 -116.5t-20 -116.5t-55 -87t-83.5 -54.5t-104.5 -19t-104.5 19t-84 54.5t-55.5 87t-20 116.5t20 116.5t55.5 87t84 54.5t104.5 19zM324 529q-46 0 -90 -15.5t-78.5 -47
t-55 -80.5t-20.5 -116t20.5 -116t55 -80.5t78.5 -47t90 -15.5q47 0 90.5 15.5t77.5 47t54.5 80.5t20.5 116t-20.5 116t-54.5 80.5t-77.5 47t-90.5 15.5z" />
    <glyph glyph-name="OE" unicode="&#x152;" horiz-adv-x="1106" 
d="M732 361h294v-18h-294v-325h324v-18h-344v240q-12 -56 -41 -102t-71 -78.5t-94 -50t-110 -17.5q-73 0 -135 26.5t-106.5 74t-69.5 113.5t-25 145t25 145t69.5 113.5t106.5 74t135 26.5q58 0 110 -17.5t94 -50t71 -78.5t41 -102v242h344v-18h-324v-325zM396 10
q66 0 123 23.5t100 67.5t67.5 107.5t24.5 142.5q0 80 -24.5 143t-67.5 107t-100 67.5t-123 23.5t-123 -23.5t-100 -67.5t-67.5 -107t-24.5 -143q0 -79 24.5 -142.5t67.5 -107.5t100 -67.5t123 -23.5z" />
    <glyph glyph-name="oe" unicode="&#x153;" horiz-adv-x="1135" 
d="M827 11q45 0 84 12t69 34t49.5 54t25.5 72h20q-7 -42 -27 -76.5t-51.5 -60t-74 -39.5t-95.5 -14q-94 0 -160.5 50t-89.5 142q-23 -92 -91 -142t-162 -50q-56 0 -104.5 19t-84 54.5t-55.5 87t-20 116.5t20 116.5t55.5 87t84 54.5t104.5 19q94 0 162 -50t91 -142
q23 92 89.5 142t160.5 50q62 0 108.5 -20.5t77.5 -53.5t46.5 -74.5t15.5 -83.5q0 -20 -1 -30t-3 -24h-484q1 -65 21.5 -112t54 -78t76 -45.5t88.5 -14.5zM324 11q47 0 90.5 15.5t77.5 47t54.5 80.5t20.5 116t-20.5 116t-54.5 80.5t-77.5 47t-90.5 15.5q-46 0 -90 -15.5
t-78.5 -47t-55 -80.5t-20.5 -116t20.5 -116t55 -80.5t78.5 -47t90 -15.5zM827 529q-46 0 -89 -14.5t-76 -45.5t-53.5 -78t-21.5 -112h470q4 65 -14.5 112.5t-51.5 78t-76 45t-88 14.5z" />
    <glyph glyph-name="Racute" unicode="&#x154;" horiz-adv-x="535" 
d="M209 758l-11 12l145 99l12 -19zM470 0l-215 307h-150v-307h-20v704h178q60 0 102.5 -14.5t70 -41t40 -63t12.5 -80.5q0 -94 -53.5 -144t-156.5 -54l217 -307h-25zM105 328h158q57 0 96 13t63 36.5t35 56t11 71.5q0 41 -11 74t-35 56.5t-63 36t-96 12.5h-158v-356z" />
    <glyph glyph-name="racute" unicode="&#x155;" horiz-adv-x="338" 
d="M110 594l-11 12l145 99l12 -19zM105 409q32 143 213 143v-22h-9q-36 0 -72.5 -10t-66 -34.5t-47.5 -64.5t-18 -100v-321h-20v540h20v-131z" />
    <glyph glyph-name="Rcommaaccent" unicode="&#x156;" horiz-adv-x="535" 
d="M495 0h-25l-215 307h-150v-307h-20v704h178q60 0 102.5 -14.5t70 -41t40 -63t12.5 -80.5q0 -94 -53.5 -144t-156.5 -54zM105 328h158q57 0 96 13t63 36.5t35 56t11 71.5q0 41 -11 74t-35 56.5t-63 36t-96 12.5h-158v-356zM288 -59q1 -7 1.5 -15.5t0.5 -15.5
q0 -27 -5 -43.5t-14 -26t-20.5 -13t-25.5 -3.5v18q24 0 33.5 14.5t9.5 39.5v7h-31v38h51z" />
    <glyph glyph-name="rcommaaccent" unicode="&#x157;" horiz-adv-x="338" 
d="M105 409q32 143 213 143v-22h-9q-36 0 -72.5 -10t-66 -34.5t-47.5 -64.5t-18 -100v-321h-20v540h20v-131zM118 -59q1 -7 1.5 -15.5t0.5 -15.5q0 -27 -5 -43.5t-14 -26t-20.5 -13t-25.5 -3.5v18q24 0 33.5 14.5t9.5 39.5v7h-31v38h51z" />
    <glyph glyph-name="Rcaron" unicode="&#x158;" horiz-adv-x="535" 
d="M291 781l-124 81v20l124 -81l123 81v-20zM470 0l-215 307h-150v-307h-20v704h178q60 0 102.5 -14.5t70 -41t40 -63t12.5 -80.5q0 -94 -53.5 -144t-156.5 -54l217 -307h-25zM105 328h158q57 0 96 13t63 36.5t35 56t11 71.5q0 41 -11 74t-35 56.5t-63 36t-96 12.5h-158
v-356z" />
    <glyph glyph-name="rcaron" unicode="&#x159;" horiz-adv-x="338" 
d="M325 718v-20l-123 -81l-124 81v20l124 -81zM105 409q32 143 213 143v-22h-9q-36 0 -72.5 -10t-66 -34.5t-47.5 -64.5t-18 -100v-321h-20v540h20v-131z" />
    <glyph glyph-name="Sacute" unicode="&#x15a;" horiz-adv-x="536" 
d="M355 850l-146 -92l-11 12l145 99zM476 169q0 -30 -10 -61.5t-33 -57t-59 -41.5t-89 -16q-49 0 -88.5 15t-68 39.5t-45 56.5t-20.5 65h20q3 -22 15.5 -49.5t36.5 -51.5t61 -40.5t89 -16.5q44 0 76 12.5t53 34.5t31.5 50.5t10.5 60.5q0 63 -29.5 97t-73.5 54t-95 32.5
t-95 33.5t-73.5 56.5t-29.5 100.5q0 35 12 65.5t35.5 53t59 36t83.5 13.5q50 0 86.5 -14t62 -36.5t40 -49t20.5 -52.5h-20q-4 19 -17 42t-35.5 43.5t-56 34.5t-80.5 14q-76 0 -123 -38.5t-47 -111.5q0 -61 29.5 -93.5t73.5 -51t95 -31.5t95 -34t73.5 -58.5t29.5 -105.5z" />
    <glyph glyph-name="sacute" unicode="&#x15b;" horiz-adv-x="483" 
d="M329 686l-146 -92l-11 12l145 99zM230 547q81 0 130.5 -44.5t58.5 -120.5h-20q-3 29 -14.5 55.5t-32.5 46.5t-51 32.5t-71 12.5q-69 0 -106.5 -34t-37.5 -88q0 -45 25 -68.5t62.5 -36.5t81 -21.5t81 -24t62.5 -43.5t25 -80q0 -62 -43 -101t-114 -39q-86 0 -141.5 44.5
t-64.5 120.5h20q3 -29 16 -55.5t36.5 -47t57 -32.5t77.5 -12q66 0 101 35t35 87q0 47 -25 71.5t-62.5 38.5t-81 22.5t-81 23t-62.5 41.5t-25 77q0 65 45 102.5t119 37.5z" />
    <glyph glyph-name="Scedilla" unicode="&#x15e;" horiz-adv-x="536" 
d="M277 -7v-82q63 4 94.5 -17t31.5 -62q0 -38 -26.5 -62t-79.5 -24h-63v20h60q51 0 70 18.5t19 47.5q0 25 -19 43t-70 18h-37v101q-43 4 -77.5 20.5t-59 40.5t-39.5 53.5t-18 60.5h20q3 -22 15.5 -49.5t36.5 -51.5t61 -40.5t89 -16.5q44 0 76 12.5t53 34.5t31.5 50.5
t10.5 60.5q0 63 -29.5 97t-73.5 54t-95 32.5t-95 33.5t-73.5 56.5t-29.5 100.5q0 35 12 65.5t35.5 53t59 36t83.5 13.5q50 0 86.5 -14t62 -36.5t40 -49t20.5 -52.5h-20q-4 19 -17 42t-35.5 43.5t-56 34.5t-80.5 14q-76 0 -123 -38.5t-47 -111.5q0 -61 29.5 -93.5t73.5 -51
t95 -31.5t95 -34t73.5 -58.5t29.5 -105.5q0 -30 -10 -61.5t-33 -57t-59 -41.5t-89 -16h-8z" />
    <glyph glyph-name="scedilla" unicode="&#x15f;" horiz-adv-x="483" 
d="M250 -7v-82q63 4 94.5 -17t31.5 -62q0 -38 -26.5 -62t-79.5 -24h-63v20h60q51 0 70 18.5t19 47.5q0 25 -19 43t-70 18h-37v102q-72 9 -117 52t-53 111h20q3 -29 16 -55.5t36.5 -47t57 -32.5t77.5 -12q66 0 101 35t35 87q0 47 -25 71.5t-62.5 38.5t-81 22.5t-81 23
t-62.5 41.5t-25 77q0 65 45 102.5t119 37.5q81 0 130.5 -44.5t58.5 -120.5h-20q-3 29 -14.5 55.5t-32.5 46.5t-51 32.5t-71 12.5q-69 0 -106.5 -34t-37.5 -88q0 -45 25 -68.5t62.5 -36.5t81 -21.5t81 -24t62.5 -43.5t25 -80q0 -62 -43 -101t-114 -39h-16z" />
    <glyph glyph-name="Scaron" unicode="&#x160;" horiz-adv-x="536" 
d="M392 862l-123 -81l-124 81v20l124 -81l123 81v-20zM476 169q0 -30 -10 -61.5t-33 -57t-59 -41.5t-89 -16q-49 0 -88.5 15t-68 39.5t-45 56.5t-20.5 65h20q3 -22 15.5 -49.5t36.5 -51.5t61 -40.5t89 -16.5q44 0 76 12.5t53 34.5t31.5 50.5t10.5 60.5q0 63 -29.5 97
t-73.5 54t-95 32.5t-95 33.5t-73.5 56.5t-29.5 100.5q0 35 12 65.5t35.5 53t59 36t83.5 13.5q50 0 86.5 -14t62 -36.5t40 -49t20.5 -52.5h-20q-4 19 -17 42t-35.5 43.5t-56 34.5t-80.5 14q-76 0 -123 -38.5t-47 -111.5q0 -61 29.5 -93.5t73.5 -51t95 -31.5t95 -34
t73.5 -58.5t29.5 -105.5z" />
    <glyph glyph-name="scaron" unicode="&#x161;" horiz-adv-x="483" 
d="M365 698l-123 -81l-124 81v20l124 -81l123 81v-20zM230 547q81 0 130.5 -44.5t58.5 -120.5h-20q-3 29 -14.5 55.5t-32.5 46.5t-51 32.5t-71 12.5q-69 0 -106.5 -34t-37.5 -88q0 -45 25 -68.5t62.5 -36.5t81 -21.5t81 -24t62.5 -43.5t25 -80q0 -62 -43 -101t-114 -39
q-86 0 -141.5 44.5t-64.5 120.5h20q3 -29 16 -55.5t36.5 -47t57 -32.5t77.5 -12q66 0 101 35t35 87q0 47 -25 71.5t-62.5 38.5t-81 22.5t-81 23t-62.5 41.5t-25 77q0 65 45 102.5t119 37.5z" />
    <glyph glyph-name="uni0162" unicode="&#x162;" horiz-adv-x="470" 
d="M245 686v-687q69 3 97.5 -19t28.5 -59q0 -38 -26.5 -62t-79.5 -24h-63v20h60q51 0 70 18.5t19 47.5q0 25 -19 43t-70 18h-37v704h-205v18h430v-18h-205z" />
    <glyph glyph-name="uni0163" unicode="&#x163;" horiz-adv-x="338" 
d="M223 -89q63 4 94.5 -17t31.5 -62q0 -38 -26.5 -62t-79.5 -24h-63v20h60q51 0 70 18.5t19 47.5q0 25 -19 43t-70 18h-37v109q-50 8 -72.5 40t-22.5 100v378h-88v20h88v138h20v-138h170v-20h-170v-378q0 -36 6 -60t19.5 -37.5t35 -19t52.5 -5.5h57v-20h-59h-16v-89z" />
    <glyph glyph-name="Tcaron" unicode="&#x164;" horiz-adv-x="470" 
d="M359 862l-123 -81l-124 81v20l124 -81l123 81v-20zM450 704v-18h-205v-686h-20v686h-205v18h430z" />
    <glyph glyph-name="tcaron" unicode="&#x165;" horiz-adv-x="338" 
d="M262 671q0 -48 -18.5 -63t-48.5 -15v20q26 0 35.5 11.5t9.5 33.5v29h-38v53h56q2 -22 3 -38.5t1 -30.5zM128 520v-378q0 -36 6 -60t19.5 -37.5t35 -19t52.5 -5.5h57v-20h-59q-69 0 -100 31.5t-31 110.5v378h-88v20h88v138h20v-138h170v-20h-170z" />
    <glyph glyph-name="Utilde" unicode="&#x168;" horiz-adv-x="629" 
d="M260 834q19 0 31.5 -8t23.5 -17t23 -17t30 -8q16 0 28.5 12t15.5 35h18q-2 -27 -19 -46t-43 -19q-19 0 -32.5 8t-25 17t-23 17t-27.5 8q-36 0 -42 -48h-18q4 30 19 48t41 18zM100 704v-437q0 -70 16.5 -119t45.5 -79.5t69 -44t86 -13.5t84.5 13.5t67 44t44.5 79.5t16 119
v437h20v-437q0 -73 -17 -125t-47.5 -85t-73 -48.5t-94.5 -15.5t-95.5 15.5t-75 48.5t-49 85t-17.5 125v437h20z" />
    <glyph glyph-name="utilde" unicode="&#x169;" horiz-adv-x="599" 
d="M245 652q-36 0 -42 -48h-18q4 30 19 48t41 18q19 0 31.5 -8t23.5 -17t23 -17t30 -8q16 0 28.5 12t15.5 35h18q-2 -27 -19 -46t-43 -19q-19 0 -32.5 8t-25 17t-23 17t-27.5 8zM514 540v-540h-20v152q-10 -43 -31 -74t-49.5 -51t-62.5 -29.5t-69 -9.5q-44 0 -83.5 13.5
t-69 42.5t-47 73.5t-17.5 107.5v315h19v-317q0 -108 54.5 -162.5t143.5 -54.5q46 0 85 15t67 45.5t44 77t16 109.5v287h20z" />
    <glyph glyph-name="Umacron" unicode="&#x16a;" horiz-adv-x="629" 
d="M469 841v-18h-309v18h309zM100 704v-437q0 -70 16.5 -119t45.5 -79.5t69 -44t86 -13.5t84.5 13.5t67 44t44.5 79.5t16 119v437h20v-437q0 -73 -17 -125t-47.5 -85t-73 -48.5t-94.5 -15.5t-95.5 15.5t-75 48.5t-49 85t-17.5 125v437h20z" />
    <glyph glyph-name="umacron" unicode="&#x16b;" horiz-adv-x="599" 
d="M444 659h-309v18h309v-18zM514 540v-540h-20v152q-10 -43 -31 -74t-49.5 -51t-62.5 -29.5t-69 -9.5q-44 0 -83.5 13.5t-69 42.5t-47 73.5t-17.5 107.5v315h19v-317q0 -108 54.5 -162.5t143.5 -54.5q46 0 85 15t67 45.5t44 77t16 109.5v287h20z" />
    <glyph glyph-name="Ubreve" unicode="&#x16c;" horiz-adv-x="629" 
d="M315 780q-32 0 -54.5 9.5t-36.5 24.5t-20.5 33.5t-6.5 36.5v4h20q0 -43 25.5 -66.5t72.5 -23.5t72.5 23.5t25.5 66.5h20v-4q0 -18 -6.5 -36.5t-20.5 -33.5t-36.5 -24.5t-54.5 -9.5zM100 704v-437q0 -70 16.5 -119t45.5 -79.5t69 -44t86 -13.5t84.5 13.5t67 44t44.5 79.5
t16 119v437h20v-437q0 -73 -17 -125t-47.5 -85t-73 -48.5t-94.5 -15.5t-95.5 15.5t-75 48.5t-49 85t-17.5 125v437h20z" />
    <glyph glyph-name="ubreve" unicode="&#x16d;" horiz-adv-x="599" 
d="M300 616q-32 0 -54.5 9.5t-36.5 24.5t-20.5 33.5t-6.5 36.5v4h20q0 -43 25.5 -66.5t72.5 -23.5t72.5 23.5t25.5 66.5h20v-4q0 -18 -6.5 -36.5t-20.5 -33.5t-36.5 -24.5t-54.5 -9.5zM514 540v-540h-20v152q-10 -43 -31 -74t-49.5 -51t-62.5 -29.5t-69 -9.5
q-44 0 -83.5 13.5t-69 42.5t-47 73.5t-17.5 107.5v315h19v-317q0 -108 54.5 -162.5t143.5 -54.5q46 0 85 15t67 45.5t44 77t16 109.5v287h20z" />
    <glyph glyph-name="Uring" unicode="&#x16e;" horiz-adv-x="629" 
d="M314 959q37 0 63.5 -24t26.5 -66t-26.5 -66t-63.5 -24t-63.5 24t-26.5 66t26.5 66t63.5 24zM314 941q-30 0 -50 -19t-20 -53t20 -53t50 -19t50 19t20 53t-20 53t-50 19zM100 704v-437q0 -70 16.5 -119t45.5 -79.5t69 -44t86 -13.5t84.5 13.5t67 44t44.5 79.5t16 119v437
h20v-437q0 -73 -17 -125t-47.5 -85t-73 -48.5t-94.5 -15.5t-95.5 15.5t-75 48.5t-49 85t-17.5 125v437h20z" />
    <glyph glyph-name="uring" unicode="&#x16f;" horiz-adv-x="599" 
d="M289 615q-37 0 -63.5 24t-26.5 66t26.5 66t63.5 24t63.5 -24t26.5 -66t-26.5 -66t-63.5 -24zM289 777q-30 0 -50 -19t-20 -53t20 -53t50 -19t50 19t20 53t-20 53t-50 19zM514 540v-540h-20v152q-10 -43 -31 -74t-49.5 -51t-62.5 -29.5t-69 -9.5q-44 0 -83.5 13.5
t-69 42.5t-47 73.5t-17.5 107.5v315h19v-317q0 -108 54.5 -162.5t143.5 -54.5q46 0 85 15t67 45.5t44 77t16 109.5v287h20z" />
    <glyph glyph-name="Uhungarumlaut" unicode="&#x170;" horiz-adv-x="629" 
d="M264 765h-20l60 104h23zM376 765h-20l65 104h23zM100 704v-437q0 -70 16.5 -119t45.5 -79.5t69 -44t86 -13.5t84.5 13.5t67 44t44.5 79.5t16 119v437h20v-437q0 -73 -17 -125t-47.5 -85t-73 -48.5t-94.5 -15.5t-95.5 15.5t-75 48.5t-49 85t-17.5 125v437h20z" />
    <glyph glyph-name="uhungarumlaut" unicode="&#x171;" horiz-adv-x="599" 
d="M239 601h-20l60 104h23zM351 601h-20l65 104h23zM514 540v-540h-20v152q-10 -43 -31 -74t-49.5 -51t-62.5 -29.5t-69 -9.5q-44 0 -83.5 13.5t-69 42.5t-47 73.5t-17.5 107.5v315h19v-317q0 -108 54.5 -162.5t143.5 -54.5q46 0 85 15t67 45.5t44 77t16 109.5v287h20z" />
    <glyph glyph-name="Uogonek" unicode="&#x172;" horiz-adv-x="629" 
d="M348 -177q-58 0 -86.5 27.5t-28.5 67.5q0 26 14.5 48t38.5 29q-43 6 -81 24.5t-65.5 52t-43.5 82t-16 113.5v437h20v-437q0 -70 16.5 -119t45.5 -79.5t69 -44t86 -13.5q41 0 79 11t67.5 39.5t47.5 78t18 127.5v437h20v-437q0 -70 -15.5 -120.5t-44 -83.5t-68.5 -50
t-88 -20q-38 -3 -59 -23t-21 -52q0 -35 25 -55t70 -20h68v-20h-68z" />
    <glyph glyph-name="uogonek" unicode="&#x173;" horiz-adv-x="599" 
d="M554 -168v-20h-68q-58 0 -86.5 27.5t-28.5 67.5t28.5 67.5t86.5 27.5h8v150q-10 -43 -31 -74t-49.5 -51t-62.5 -29.5t-69 -9.5q-44 0 -83.5 13.5t-69 42.5t-47 73.5t-17.5 107.5v315h19v-317q0 -108 54.5 -162.5t143.5 -54.5q46 0 85 15t67 45.5t44 77t16 109.5v287h20
v-558h-28q-45 0 -70 -20t-25 -55t25 -55t70 -20h68z" />
    <glyph glyph-name="Wcircumflex" unicode="&#x174;" horiz-adv-x="904" 
d="M340 762l-12 12l124 81l123 -81l-10 -13l-113 74zM869 704l-189 -704h-20l-208 668l-208 -668h-20l-189 704h24l176 -661l205 661h24l205 -661l176 661h24z" />
    <glyph glyph-name="wcircumflex" unicode="&#x175;" horiz-adv-x="803" 
d="M290 598l-12 12l124 81l123 -81l-10 -13l-113 74zM783 540l-170 -540h-15l-197 503l-196 -503h-15l-170 540h22l157 -499l194 499h17l194 -499l157 499h22z" />
    <glyph glyph-name="Ycircumflex" unicode="&#x176;" horiz-adv-x="518" 
d="M147 762l-12 12l124 81l123 -81l-10 -13l-113 74zM488 704l-218 -409v-295h-20v295l-220 409h24l205 -387l205 387h24z" />
    <glyph glyph-name="ycircumflex" unicode="&#x177;" horiz-adv-x="503" 
d="M252 671l-112 -73l-12 12l124 81l123 -81l-10 -13zM42 540l218 -511l201 511h22l-308 -794h-25l99 253l-229 541h22z" />
    <glyph glyph-name="Ydieresis" unicode="&#x178;" horiz-adv-x="518" 
d="M193 791q-13 0 -21.5 9t-8.5 21t8.5 21t21.5 9q12 0 21 -9t9 -21t-9 -21t-21 -9zM327 791q-13 0 -21.5 9t-8.5 21t8.5 21t21.5 9q12 0 20.5 -9t8.5 -21t-8.5 -21t-20.5 -9zM488 704l-218 -409v-295h-20v295l-220 409h24l205 -387l205 387h24z" />
    <glyph glyph-name="Zacute" unicode="&#x179;" horiz-adv-x="487" 
d="M331 850l-146 -92l-11 12l145 99zM57 19h395v-19h-417v19l386 665h-373v20h394v-20z" />
    <glyph glyph-name="zacute" unicode="&#x17a;" horiz-adv-x="407" 
d="M291 686l-146 -92l-11 12l145 99zM51 18h326v-18h-347v18l315 504h-305v18h327v-18z" />
    <glyph glyph-name="Zdotaccent" unicode="&#x17b;" horiz-adv-x="487" 
d="M213 821q0 12 9 21t21 9t21 -9t9 -21t-9 -21t-21 -9t-21 9t-9 21zM57 19h395v-19h-417v19l386 665h-373v20h394v-20z" />
    <glyph glyph-name="zdotaccent" unicode="&#x17c;" horiz-adv-x="407" 
d="M173 657q0 12 9 21t21 9t21 -9t9 -21t-9 -21t-21 -9t-21 9t-9 21zM51 18h326v-18h-347v18l315 504h-305v18h327v-18z" />
    <glyph glyph-name="Zcaron" unicode="&#x17d;" horiz-adv-x="487" 
d="M367 862l-123 -81l-124 81v20l124 -81l123 81v-20zM57 19h395v-19h-417v19l386 665h-373v20h394v-20z" />
    <glyph glyph-name="zcaron" unicode="&#x17e;" horiz-adv-x="407" 
d="M327 698l-123 -81l-124 81v20l124 -81l123 81v-20zM51 18h326v-18h-347v18l315 504h-305v18h327v-18z" />
    <glyph glyph-name="florin" unicode="&#x192;" horiz-adv-x="331" 
d="M340 735q-74 0 -114 -30t-47 -96l-7 -69h155l-1 -18h-156l-59 -556q-3 -23 -8.5 -42t-17.5 -32.5t-31 -20.5t-49 -7h-30l1 18h27q41 0 61.5 15.5t26.5 68.5l60 556h-87v18h89l7 69q8 77 54.5 110.5t126.5 33.5z" />
    <glyph glyph-name="Ohorn" unicode="&#x1a0;" horiz-adv-x="792" 
d="M507 693q51 -17 92.5 -49t71 -76t45.5 -99t16 -118q0 -79 -25 -145t-69.5 -113.5t-106 -74t-135.5 -26.5q-73 0 -135 26.5t-106.5 74t-69.5 113.5t-25 145t25 145t69.5 113.5t106.5 74t135 26.5q34 0 67 -6q46 1 76 28t30 92h20q0 -56 -22.5 -88t-59.5 -43zM396 10
q66 0 123 23.5t100 67.5t67.5 107.5t24.5 142.5q0 80 -24.5 143t-67.5 107t-100 67.5t-123 23.5t-123 -23.5t-100 -67.5t-67.5 -107t-24.5 -143q0 -79 24.5 -142.5t67.5 -107.5t100 -67.5t123 -23.5z" />
    <glyph glyph-name="ohorn" unicode="&#x1a1;" horiz-adv-x="647" 
d="M430 527q71 -28 114 -93.5t43 -163.5q0 -65 -20 -116.5t-55 -87t-83.5 -54.5t-104.5 -19t-104.5 19t-84 54.5t-55.5 87t-20 116.5t20 116.5t55.5 87t84 54.5t104.5 19q37 0 65 -7q47 1 77 28t30 92h20q0 -57 -24 -89.5t-62 -43.5zM324 11q47 0 90.5 15.5t77.5 47
t54.5 80.5t20.5 116t-20.5 116t-54.5 80.5t-77.5 47t-90.5 15.5q-46 0 -90 -15.5t-78.5 -47t-55 -80.5t-20.5 -116t20.5 -116t55 -80.5t78.5 -47t90 -15.5z" />
    <glyph glyph-name="Uhorn" unicode="&#x1af;" horiz-adv-x="629" 
d="M673 824q0 -70 -35.5 -103t-88.5 -35v-419q0 -73 -17 -125t-47.5 -85t-73 -48.5t-94.5 -15.5t-95.5 15.5t-75 48.5t-49 85t-17.5 125v437h20v-437q0 -70 16.5 -119t45.5 -79.5t69 -44t86 -13.5t84.5 13.5t67 44t44.5 79.5t16 119v437h16q47 0 77.5 27t30.5 93h20z" />
    <glyph glyph-name="uhorn" unicode="&#x1b0;" horiz-adv-x="599" 
d="M627 660q0 -67 -32 -100t-81 -37v-523h-20v152q-10 -43 -31 -74t-49.5 -51t-62.5 -29.5t-69 -9.5q-44 0 -83.5 13.5t-69 42.5t-47 73.5t-17.5 107.5v315h19v-317q0 -108 54.5 -162.5t143.5 -54.5q46 0 85 15t67 45.5t44 77t16 109.5v287h5q47 0 77.5 27t30.5 93h20z" />
    <glyph glyph-name="AEacute" unicode="&#x1fc;" horiz-adv-x="837" 
d="M467 758l-11 12l145 99l12 -19zM463 686v-325h294v-18h-294v-325h324v-18h-344v194h-291l-119 -194h-23l433 704h344v-18h-324zM443 212v455l-280 -455h280z" />
    <glyph glyph-name="aeacute" unicode="&#x1fd;" horiz-adv-x="1135" 
d="M575 594l-11 12l145 99l12 -19zM827 11q45 0 84 12t69 34t49.5 54t25.5 72h20q-7 -42 -27 -76.5t-51.5 -60t-74 -39.5t-95.5 -14q-42 0 -81 11.5t-71 34t-55 56.5t-34 80v-175h-19v174q-10 -39 -31.5 -72.5t-53 -57.5t-71.5 -37.5t-88 -13.5q-58 0 -106.5 19t-83 55
t-54 87.5t-19.5 115.5q0 65 19.5 116t54 87t83 55t106.5 19q48 0 88 -13.5t71.5 -37.5t53 -57.5t31.5 -72.5v174h19v-175q11 45 34 79t55 57t71 34.5t81 11.5q62 0 108.5 -20.5t77.5 -53.5t46.5 -74.5t15.5 -83.5q0 -20 -1 -30t-3 -24h-484q1 -64 21.5 -111.5t53.5 -78
t76 -45.5t89 -15zM323 11q53 0 97.5 18.5t77 52.5t51 82t18.5 106q0 59 -18.5 106.5t-51 81.5t-77 52.5t-97.5 18.5q-55 0 -100 -18t-77 -51.5t-49 -81.5t-17 -108t17 -108t49 -81.5t77 -51.5t100 -18zM827 529q-46 0 -89 -14.5t-76 -45.5t-53.5 -78t-21.5 -112h470
q4 65 -14.5 112.5t-51.5 78t-76 45t-88 14.5z" />
    <glyph glyph-name="Scommaaccent" unicode="&#x218;" horiz-adv-x="536" 
d="M476 169q0 -30 -10 -61.5t-33 -57t-59 -41.5t-89 -16q-49 0 -88.5 15t-68 39.5t-45 56.5t-20.5 65h20q3 -22 15.5 -49.5t36.5 -51.5t61 -40.5t89 -16.5q44 0 76 12.5t53 34.5t31.5 50.5t10.5 60.5q0 63 -29.5 97t-73.5 54t-95 32.5t-95 33.5t-73.5 56.5t-29.5 100.5
q0 35 12 65.5t35.5 53t59 36t83.5 13.5q50 0 86.5 -14t62 -36.5t40 -49t20.5 -52.5h-20q-4 19 -17 42t-35.5 43.5t-56 34.5t-80.5 14q-76 0 -123 -38.5t-47 -111.5q0 -61 29.5 -93.5t73.5 -51t95 -31.5t95 -34t73.5 -58.5t29.5 -105.5zM318 -59q1 -7 1.5 -15.5t0.5 -15.5
q0 -27 -5 -43.5t-14 -26t-20.5 -13t-25.5 -3.5v18q24 0 33.5 14.5t9.5 39.5v7h-31v38h51z" />
    <glyph glyph-name="scommaaccent" unicode="&#x219;" horiz-adv-x="483" 
d="M230 547q81 0 130.5 -44.5t58.5 -120.5h-20q-3 29 -14.5 55.5t-32.5 46.5t-51 32.5t-71 12.5q-69 0 -106.5 -34t-37.5 -88q0 -45 25 -68.5t62.5 -36.5t81 -21.5t81 -24t62.5 -43.5t25 -80q0 -62 -43 -101t-114 -39q-86 0 -141.5 44.5t-64.5 120.5h20q3 -29 16 -55.5
t36.5 -47t57 -32.5t77.5 -12q66 0 101 35t35 87q0 47 -25 71.5t-62.5 38.5t-81 22.5t-81 23t-62.5 41.5t-25 77q0 65 45 102.5t119 37.5zM288 -59q1 -7 1.5 -15.5t0.5 -15.5q0 -27 -5 -43.5t-14 -26t-20.5 -13t-25.5 -3.5v18q24 0 33.5 14.5t9.5 39.5v7h-31v38h51z" />
    <glyph glyph-name="uni021A" unicode="&#x21a;" horiz-adv-x="470" 
d="M450 704v-18h-205v-686h-20v686h-205v18h430zM258 -59q1 -7 1.5 -15.5t0.5 -15.5q0 -27 -5 -43.5t-14 -26t-20.5 -13t-25.5 -3.5v18q24 0 33.5 14.5t9.5 39.5v7h-31v38h51z" />
    <glyph glyph-name="uni021B" unicode="&#x21b;" horiz-adv-x="338" 
d="M128 520v-378q0 -36 6 -60t19.5 -37.5t35 -19t52.5 -5.5h57v-20h-59q-69 0 -100 31.5t-31 110.5v378h-88v20h88v138h20v-138h170v-20h-170zM228 -59q1 -7 1.5 -15.5t0.5 -15.5q0 -27 -5 -43.5t-14 -26t-20.5 -13t-25.5 -3.5v18q24 0 33.5 14.5t9.5 39.5v7h-31v38h51z" />
    <glyph glyph-name="circumflex" unicode="&#x2c6;" horiz-adv-x="327" 
d="M164 701l-112 -73l-12 12l124 81l123 -81l-10 -13z" />
    <glyph glyph-name="caron" unicode="&#x2c7;" horiz-adv-x="327" 
d="M287 698l-123 -81l-124 81v20l124 -81l123 81v-20z" />
    <glyph glyph-name="breve" unicode="&#x2d8;" horiz-adv-x="316" 
d="M158 616q-32 0 -54.5 9.5t-36.5 24.5t-20.5 33.5t-6.5 36.5v4h20q0 -43 25.5 -66.5t72.5 -23.5t72.5 23.5t25.5 66.5h20v-4q0 -18 -6.5 -36.5t-20.5 -33.5t-36.5 -24.5t-54.5 -9.5z" />
    <glyph glyph-name="dotaccent" unicode="&#x2d9;" horiz-adv-x="154" 
d="M47 657q0 12 9 21t21 9t21 -9t9 -21t-9 -21t-21 -9t-21 9t-9 21z" />
    <glyph glyph-name="ring" unicode="&#x2da;" horiz-adv-x="260" 
d="M130 795q37 0 63.5 -24t26.5 -66t-26.5 -66t-63.5 -24t-63.5 24t-26.5 66t26.5 66t63.5 24zM130 777q-30 0 -50 -19t-20 -53t20 -53t50 -19t50 19t20 53t-20 53t-50 19z" />
    <glyph glyph-name="ogonek" unicode="&#x2db;" horiz-adv-x="263" 
d="M183 -36v-20h-28q-45 0 -70 -20t-25 -55t25 -55t70 -20h68v-20h-68q-58 0 -86.5 27.5t-28.5 67.5t28.5 67.5t86.5 27.5h28z" />
    <glyph glyph-name="tilde" unicode="&#x2dc;" horiz-adv-x="310" 
d="M100 670q19 0 31.5 -8t23.5 -17t23 -17t30 -8q16 0 28.5 12t15.5 35h18q-2 -27 -19 -46t-43 -19q-19 0 -32.5 8t-25 17t-23 17t-27.5 8q-36 0 -42 -48h-18q4 30 19 48t41 18z" />
    <glyph glyph-name="hungarumlaut" unicode="&#x2dd;" horiz-adv-x="280" 
d="M60 601h-20l60 104h23zM172 601h-20l65 104h23z" />
    <glyph glyph-name="gravecomb" unicode="&#x300;" horiz-adv-x="0" 
d="M-41 601l-9 -13l-137 108l12 14z" />
    <glyph glyph-name="acutecomb" unicode="&#x301;" horiz-adv-x="0" 
d="M-70 686l-146 -92l-11 12l145 99z" />
    <glyph glyph-name="uni0302" unicode="&#x302;" horiz-adv-x="0" 
d="M-163 701l-112 -73l-12 12l124 81l123 -81l-10 -13z" />
    <glyph glyph-name="tildecomb" unicode="&#x303;" horiz-adv-x="0" 
d="M-210 670q19 0 31.5 -8t23.5 -17t23 -17t30 -8q16 0 28.5 12t15.5 35h18q-2 -27 -19 -46t-43 -19q-20 0 -33 8t-24.5 17t-23 17t-27.5 8q-36 0 -42 -48h-18q4 30 19 48t41 18z" />
    <glyph glyph-name="uni0306" unicode="&#x306;" horiz-adv-x="0" 
d="M-158 616q-32 0 -54.5 9.5t-36.5 24.5t-20.5 33.5t-6.5 36.5v4h20q0 -43 25.5 -66.5t72.5 -23.5t72.5 23.5t25.5 66.5h20v-4q0 -18 -6.5 -36.5t-20.5 -33.5t-36.5 -24.5t-54.5 -9.5z" />
    <glyph glyph-name="hookabovecomb" unicode="&#x309;" horiz-adv-x="0" 
d="M-152 728q70 0 70 -67q0 -26 -17 -44.5t-47 -47.5l-13 13q21 21 39.5 39t18.5 40q0 27 -12 38t-39 11q-29 0 -37.5 -15t-12.5 -38h-19q1 11 4 23t10 23t20 18t35 7z" />
    <glyph glyph-name="uni031B" unicode="&#x31b;" horiz-adv-x="0" 
d="M-158 540q47 0 77.5 27t30.5 93h20q0 -72 -37 -105t-91 -33v18z" />
    <glyph glyph-name="dotbelowcomb" unicode="&#x323;" horiz-adv-x="0" 
d="M-107 -114q0 12 9 21t21 9t21 -9t9 -21t-9 -21t-21 -9t-21 9t-9 21z" />
    <glyph glyph-name="pi" unicode="&#x3c0;" horiz-adv-x="721" 
d="M656 540v-18h-87v-522h-20v522h-377v-522h-20v522h-87v18h591z" />
    <glyph glyph-name="Wgrave" unicode="&#x1e80;" horiz-adv-x="904" 
d="M535 752l-137 108l12 14l134 -109zM869 704l-189 -704h-20l-208 668l-208 -668h-20l-189 704h24l176 -661l205 661h24l205 -661l176 661h24z" />
    <glyph glyph-name="wgrave" unicode="&#x1e81;" horiz-adv-x="803" 
d="M485 588l-137 108l12 14l134 -109zM783 540l-170 -540h-15l-197 503l-196 -503h-15l-170 540h22l157 -499l194 499h17l194 -499l157 499h22z" />
    <glyph glyph-name="Wacute" unicode="&#x1e82;" horiz-adv-x="904" 
d="M393 758l-11 12l145 99l12 -19zM869 704l-189 -704h-20l-208 668l-208 -668h-20l-189 704h24l176 -661l205 661h24l205 -661l176 661h24z" />
    <glyph glyph-name="wacute" unicode="&#x1e83;" horiz-adv-x="803" 
d="M343 594l-11 12l145 99l12 -19zM783 540l-170 -540h-15l-197 503l-196 -503h-15l-170 540h22l157 -499l194 499h17l194 -499l157 499h22z" />
    <glyph glyph-name="Wdieresis" unicode="&#x1e84;" horiz-adv-x="904" 
d="M386 791q-13 0 -21.5 9t-8.5 21t8.5 21t21.5 9q12 0 21 -9t9 -21t-9 -21t-21 -9zM520 791q-13 0 -21.5 9t-8.5 21t8.5 21t21.5 9q12 0 20.5 -9t8.5 -21t-8.5 -21t-20.5 -9zM869 704l-189 -704h-20l-208 668l-208 -668h-20l-189 704h24l176 -661l205 661h24l205 -661
l176 661h24z" />
    <glyph glyph-name="wdieresis" unicode="&#x1e85;" horiz-adv-x="803" 
d="M335 627q-13 0 -21.5 9t-8.5 21t8.5 21t21.5 9q12 0 21 -9t9 -21t-9 -21t-21 -9zM469 627q-13 0 -21.5 9t-8.5 21t8.5 21t21.5 9q12 0 20.5 -9t8.5 -21t-8.5 -21t-20.5 -9zM783 540l-170 -540h-15l-197 503l-196 -503h-15l-170 540h22l157 -499l194 499h17l194 -499
l157 499h22z" />
    <glyph glyph-name="uni1EA0" unicode="&#x1ea0;" horiz-adv-x="601" 
d="M548 0l-73 194h-348l-74 -194h-23l261 683h20l260 -683h-23zM468 212l-167 439l-167 -439h334zM301 -84q12 0 21 -9t9 -21t-9 -21t-21 -9t-21 9t-9 21t9 21t21 9z" />
    <glyph glyph-name="uni1EA1" unicode="&#x1ea1;" 
d="M323 547q48 0 88 -13.5t71.5 -37.5t53 -57.5t31.5 -72.5v174h19v-540h-19v174q-10 -39 -31.5 -72.5t-53 -57.5t-71.5 -37.5t-88 -13.5q-58 0 -106.5 19t-83 55t-54 87.5t-19.5 115.5q0 65 19.5 116t54 87t83 55t106.5 19zM323 529q-55 0 -100 -18t-77 -51.5t-49 -81.5
t-17 -108t17 -108t49 -81.5t77 -51.5t100 -18q53 0 97.5 18.5t77 52.5t51 82t18.5 106q0 59 -18.5 106.5t-51 81.5t-77 52.5t-97.5 18.5zM306 -114q0 12 9 21t21 9t21 -9t9 -21t-9 -21t-21 -9t-21 9t-9 21z" />
    <glyph glyph-name="uni1EA2" unicode="&#x1ea2;" horiz-adv-x="601" 
d="M300 914q-29 0 -37.5 -15t-12.5 -38h-19q1 11 4 23t10 23t20 18t35 7q70 0 70 -67q0 -26 -17 -44.5t-47 -47.5l-13 13q21 21 39.5 39t18.5 40q0 27 -12 38t-39 11zM475 194h-348l-74 -194h-23l261 683h20l260 -683h-23zM468 212l-167 439l-167 -439h334z" />
    <glyph glyph-name="uni1EA3" unicode="&#x1ea3;" 
d="M335 768q70 0 70 -67q0 -26 -17 -44.5t-47 -47.5l-13 13q21 21 39.5 39t18.5 40q0 27 -12 38t-39 11q-29 0 -37.5 -15t-12.5 -38h-19q1 11 4 23t10 23t20 18t35 7zM323 547q48 0 88 -13.5t71.5 -37.5t53 -57.5t31.5 -72.5v174h19v-540h-19v174q-10 -39 -31.5 -72.5
t-53 -57.5t-71.5 -37.5t-88 -13.5q-58 0 -106.5 19t-83 55t-54 87.5t-19.5 115.5q0 65 19.5 116t54 87t83 55t106.5 19zM323 529q-55 0 -100 -18t-77 -51.5t-49 -81.5t-17 -108t17 -108t49 -81.5t77 -51.5t100 -18q53 0 97.5 18.5t77 52.5t51 82t18.5 106q0 59 -18.5 106.5
t-51 81.5t-77 52.5t-97.5 18.5z" />
    <glyph glyph-name="uni1EA4" unicode="&#x1ea4;" horiz-adv-x="601" 
d="M240 860l-11 12l145 99l12 -19zM189 762l-12 12l124 81l123 -81l-10 -13l-113 74zM475 194h-348l-74 -194h-23l261 683h20l260 -683h-23zM468 212l-167 439l-167 -439h334z" />
    <glyph glyph-name="uni1EA5" unicode="&#x1ea5;" 
d="M421 788l-146 -92l-11 12l145 99zM336 671l-112 -73l-12 12l124 81l123 -81l-10 -13zM323 547q48 0 88 -13.5t71.5 -37.5t53 -57.5t31.5 -72.5v174h19v-540h-19v174q-10 -39 -31.5 -72.5t-53 -57.5t-71.5 -37.5t-88 -13.5q-58 0 -106.5 19t-83 55t-54 87.5t-19.5 115.5
q0 65 19.5 116t54 87t83 55t106.5 19zM323 529q-55 0 -100 -18t-77 -51.5t-49 -81.5t-17 -108t17 -108t49 -81.5t77 -51.5t100 -18q53 0 97.5 18.5t77 52.5t51 82t18.5 106q0 59 -18.5 106.5t-51 81.5t-77 52.5t-97.5 18.5z" />
    <glyph glyph-name="uni1EA6" unicode="&#x1ea6;" horiz-adv-x="601" 
d="M423 839l-137 108l12 14l134 -109zM189 762l-12 12l124 81l123 -81l-10 -13l-113 74zM475 194h-348l-74 -194h-23l261 683h20l260 -683h-23zM468 212l-167 439l-167 -439h334z" />
    <glyph glyph-name="uni1EA7" unicode="&#x1ea7;" 
d="M467 688l-9 -13l-137 108l12 14zM336 671l-112 -73l-12 12l124 81l123 -81l-10 -13zM323 547q48 0 88 -13.5t71.5 -37.5t53 -57.5t31.5 -72.5v174h19v-540h-19v174q-10 -39 -31.5 -72.5t-53 -57.5t-71.5 -37.5t-88 -13.5q-58 0 -106.5 19t-83 55t-54 87.5t-19.5 115.5
q0 65 19.5 116t54 87t83 55t106.5 19zM323 529q-55 0 -100 -18t-77 -51.5t-49 -81.5t-17 -108t17 -108t49 -81.5t77 -51.5t100 -18q53 0 97.5 18.5t77 52.5t51 82t18.5 106q0 59 -18.5 106.5t-51 81.5t-77 52.5t-97.5 18.5z" />
    <glyph glyph-name="uni1EA8" unicode="&#x1ea8;" horiz-adv-x="601" 
d="M445 945q-29 0 -37.5 -15t-12.5 -38h-19q1 11 4 23t10 23t20 18t35 7q70 0 70 -67q0 -26 -17 -44.5t-47 -47.5l-13 13q21 21 39.5 39t18.5 40q0 27 -12 38t-39 11zM189 762l-12 12l124 81l123 -81l-10 -13l-113 74zM475 194h-348l-74 -194h-23l261 683h20l260 -683h-23z
M468 212l-167 439l-167 -439h334z" />
    <glyph glyph-name="uni1EA9" unicode="&#x1ea9;" 
d="M480 799q70 0 70 -67q0 -26 -17 -44.5t-47 -47.5l-13 13q21 21 39.5 39t18.5 40q0 27 -12 38t-39 11q-29 0 -37.5 -15t-12.5 -38h-19q1 11 4 23t10 23t20 18t35 7zM336 671l-112 -73l-12 12l124 81l123 -81l-10 -13zM323 547q48 0 88 -13.5t71.5 -37.5t53 -57.5
t31.5 -72.5v174h19v-540h-19v174q-10 -39 -31.5 -72.5t-53 -57.5t-71.5 -37.5t-88 -13.5q-58 0 -106.5 19t-83 55t-54 87.5t-19.5 115.5q0 65 19.5 116t54 87t83 55t106.5 19zM323 529q-55 0 -100 -18t-77 -51.5t-49 -81.5t-17 -108t17 -108t49 -81.5t77 -51.5t100 -18
q53 0 97.5 18.5t77 52.5t51 82t18.5 106q0 59 -18.5 106.5t-51 81.5t-77 52.5t-97.5 18.5z" />
    <glyph glyph-name="uni1EAA" unicode="&#x1eaa;" horiz-adv-x="601" 
d="M259 918q-36 0 -42 -48h-18q4 30 19 48t41 18q19 0 31.5 -8t23.5 -17t23 -17t30 -8q16 0 28.5 12t15.5 35h18q-2 -27 -19 -46t-43 -19q-19 0 -32.5 8t-25 17t-23 17t-27.5 8zM189 762l-12 12l124 81l123 -81l-10 -13l-113 74zM475 194h-348l-74 -194h-23l261 683h20
l260 -683h-23zM468 212l-167 439l-167 -439h334z" />
    <glyph glyph-name="uni1EAB" unicode="&#x1eab;" 
d="M294 772q19 0 31.5 -8t23.5 -17t23 -17t30 -8q16 0 28.5 12t15.5 35h18q-2 -27 -19 -46t-43 -19q-19 0 -32.5 8t-25 17t-23 17t-27.5 8q-36 0 -42 -48h-18q4 30 19 48t41 18zM336 671l-112 -73l-12 12l124 81l123 -81l-10 -13zM323 547q48 0 88 -13.5t71.5 -37.5
t53 -57.5t31.5 -72.5v174h19v-540h-19v174q-10 -39 -31.5 -72.5t-53 -57.5t-71.5 -37.5t-88 -13.5q-58 0 -106.5 19t-83 55t-54 87.5t-19.5 115.5q0 65 19.5 116t54 87t83 55t106.5 19zM323 529q-55 0 -100 -18t-77 -51.5t-49 -81.5t-17 -108t17 -108t49 -81.5t77 -51.5
t100 -18q53 0 97.5 18.5t77 52.5t51 82t18.5 106q0 59 -18.5 106.5t-51 81.5t-77 52.5t-97.5 18.5z" />
    <glyph glyph-name="uni1EAC" unicode="&#x1eac;" horiz-adv-x="601" 
d="M189 762l-12 12l124 81l123 -81l-10 -13l-113 74zM548 0l-73 194h-348l-74 -194h-23l261 683h20l260 -683h-23zM468 212l-167 439l-167 -439h334zM301 -84q12 0 21 -9t9 -21t-9 -21t-21 -9t-21 9t-9 21t9 21t21 9z" />
    <glyph glyph-name="uni1EAD" unicode="&#x1ead;" 
d="M336 671l-112 -73l-12 12l124 81l123 -81l-10 -13zM323 547q48 0 88 -13.5t71.5 -37.5t53 -57.5t31.5 -72.5v174h19v-540h-19v174q-10 -39 -31.5 -72.5t-53 -57.5t-71.5 -37.5t-88 -13.5q-58 0 -106.5 19t-83 55t-54 87.5t-19.5 115.5q0 65 19.5 116t54 87t83 55
t106.5 19zM323 529q-55 0 -100 -18t-77 -51.5t-49 -81.5t-17 -108t17 -108t49 -81.5t77 -51.5t100 -18q53 0 97.5 18.5t77 52.5t51 82t18.5 106q0 59 -18.5 106.5t-51 81.5t-77 52.5t-97.5 18.5zM306 -114q0 12 9 21t21 9t21 -9t9 -21t-9 -21t-21 -9t-21 9t-9 21z" />
    <glyph glyph-name="uni1EAE" unicode="&#x1eae;" horiz-adv-x="601" 
d="M296 908l-11 12l145 99l12 -19zM301 780q-32 0 -54.5 9.5t-36.5 24.5t-20.5 33.5t-6.5 36.5v4h20q0 -43 25.5 -66.5t72.5 -23.5t72.5 23.5t25.5 66.5h20v-4q0 -18 -6.5 -36.5t-20.5 -33.5t-36.5 -24.5t-54.5 -9.5zM475 194h-348l-74 -194h-23l261 683h20l260 -683h-23z
M468 212l-167 439l-167 -439h334z" />
    <glyph glyph-name="uni1EAF" unicode="&#x1eaf;" 
d="M477 836l-146 -92l-11 12l145 99zM336 616q-32 0 -54.5 9.5t-36.5 24.5t-20.5 33.5t-6.5 36.5v4h20q0 -43 25.5 -66.5t72.5 -23.5t72.5 23.5t25.5 66.5h20v-4q0 -18 -6.5 -36.5t-20.5 -33.5t-36.5 -24.5t-54.5 -9.5zM323 547q48 0 88 -13.5t71.5 -37.5t53 -57.5
t31.5 -72.5v174h19v-540h-19v174q-10 -39 -31.5 -72.5t-53 -57.5t-71.5 -37.5t-88 -13.5q-58 0 -106.5 19t-83 55t-54 87.5t-19.5 115.5q0 65 19.5 116t54 87t83 55t106.5 19zM323 529q-55 0 -100 -18t-77 -51.5t-49 -81.5t-17 -108t17 -108t49 -81.5t77 -51.5t100 -18
q53 0 97.5 18.5t77 52.5t51 82t18.5 106q0 59 -18.5 106.5t-51 81.5t-77 52.5t-97.5 18.5z" />
    <glyph glyph-name="uni1EB0" unicode="&#x1eb0;" horiz-adv-x="601" 
d="M306 895l-137 108l12 14l134 -109zM203 888q0 -43 25.5 -66.5t72.5 -23.5t72.5 23.5t25.5 66.5h20v-4q0 -18 -6.5 -36.5t-20.5 -33.5t-36.5 -24.5t-54.5 -9.5t-54.5 9.5t-36.5 24.5t-20.5 33.5t-6.5 36.5v4h20zM475 194h-348l-74 -194h-23l261 683h20l260 -683h-23z
M468 212l-167 439l-167 -439h334z" />
    <glyph glyph-name="uni1EB1" unicode="&#x1eb1;" 
d="M350 744l-9 -13l-137 108l12 14zM336 616q-32 0 -54.5 9.5t-36.5 24.5t-20.5 33.5t-6.5 36.5v4h20q0 -43 25.5 -66.5t72.5 -23.5t72.5 23.5t25.5 66.5h20v-4q0 -18 -6.5 -36.5t-20.5 -33.5t-36.5 -24.5t-54.5 -9.5zM323 547q48 0 88 -13.5t71.5 -37.5t53 -57.5
t31.5 -72.5v174h19v-540h-19v174q-10 -39 -31.5 -72.5t-53 -57.5t-71.5 -37.5t-88 -13.5q-58 0 -106.5 19t-83 55t-54 87.5t-19.5 115.5q0 65 19.5 116t54 87t83 55t106.5 19zM323 529q-55 0 -100 -18t-77 -51.5t-49 -81.5t-17 -108t17 -108t49 -81.5t77 -51.5t100 -18
q53 0 97.5 18.5t77 52.5t51 82t18.5 106q0 59 -18.5 106.5t-51 81.5t-77 52.5t-97.5 18.5z" />
    <glyph glyph-name="uni1EB2" unicode="&#x1eb2;" horiz-adv-x="601" 
d="M292 1028q-29 0 -37.5 -15t-12.5 -38h-19q1 11 4 23t10 23t20 18t35 7q70 0 70 -67q0 -26 -17 -44.5t-47 -47.5l-13 13q21 21 39.5 39t18.5 40q0 27 -12 38t-39 11zM301 780q-32 0 -54.5 9.5t-36.5 24.5t-20.5 33.5t-6.5 36.5v4h20q0 -43 25.5 -66.5t72.5 -23.5
t72.5 23.5t25.5 66.5h20v-4q0 -18 -6.5 -36.5t-20.5 -33.5t-36.5 -24.5t-54.5 -9.5zM475 194h-348l-74 -194h-23l261 683h20l260 -683h-23zM468 212l-167 439l-167 -439h334z" />
    <glyph glyph-name="uni1EB3" unicode="&#x1eb3;" 
d="M327 882q70 0 70 -67q0 -26 -17 -44.5t-47 -47.5l-13 13q21 21 39.5 39t18.5 40q0 27 -12 38t-39 11q-29 0 -37.5 -15t-12.5 -38h-19q1 11 4 23t10 23t20 18t35 7zM336 616q-32 0 -54.5 9.5t-36.5 24.5t-20.5 33.5t-6.5 36.5v4h20q0 -43 25.5 -66.5t72.5 -23.5t72.5 23.5
t25.5 66.5h20v-4q0 -18 -6.5 -36.5t-20.5 -33.5t-36.5 -24.5t-54.5 -9.5zM323 547q48 0 88 -13.5t71.5 -37.5t53 -57.5t31.5 -72.5v174h19v-540h-19v174q-10 -39 -31.5 -72.5t-53 -57.5t-71.5 -37.5t-88 -13.5q-58 0 -106.5 19t-83 55t-54 87.5t-19.5 115.5q0 65 19.5 116
t54 87t83 55t106.5 19zM323 529q-55 0 -100 -18t-77 -51.5t-49 -81.5t-17 -108t17 -108t49 -81.5t77 -51.5t100 -18q53 0 97.5 18.5t77 52.5t51 82t18.5 106q0 59 -18.5 106.5t-51 81.5t-77 52.5t-97.5 18.5z" />
    <glyph glyph-name="uni1EB4" unicode="&#x1eb4;" horiz-adv-x="601" 
d="M246 972q-36 0 -42 -48h-18q4 30 19 48t41 18q19 0 31.5 -8t23.5 -17t23 -17t30 -8q16 0 28.5 12t15.5 35h18q-2 -27 -19 -46t-43 -19q-19 0 -32.5 8t-25 17t-23 17t-27.5 8zM301 780q-32 0 -54.5 9.5t-36.5 24.5t-20.5 33.5t-6.5 36.5v4h20q0 -43 25.5 -66.5t72.5 -23.5
t72.5 23.5t25.5 66.5h20v-4q0 -18 -6.5 -36.5t-20.5 -33.5t-36.5 -24.5t-54.5 -9.5zM475 194h-348l-74 -194h-23l261 683h20l260 -683h-23zM468 212l-167 439l-167 -439h334z" />
    <glyph glyph-name="uni1EB5" unicode="&#x1eb5;" 
d="M281 826q19 0 31.5 -8t23.5 -17t23 -17t30 -8q16 0 28.5 12t15.5 35h18q-2 -27 -19 -46t-43 -19q-19 0 -32.5 8t-25 17t-23 17t-27.5 8q-36 0 -42 -48h-18q4 30 19 48t41 18zM336 616q-32 0 -54.5 9.5t-36.5 24.5t-20.5 33.5t-6.5 36.5v4h20q0 -43 25.5 -66.5t72.5 -23.5
t72.5 23.5t25.5 66.5h20v-4q0 -18 -6.5 -36.5t-20.5 -33.5t-36.5 -24.5t-54.5 -9.5zM323 547q48 0 88 -13.5t71.5 -37.5t53 -57.5t31.5 -72.5v174h19v-540h-19v174q-10 -39 -31.5 -72.5t-53 -57.5t-71.5 -37.5t-88 -13.5q-58 0 -106.5 19t-83 55t-54 87.5t-19.5 115.5
q0 65 19.5 116t54 87t83 55t106.5 19zM323 529q-55 0 -100 -18t-77 -51.5t-49 -81.5t-17 -108t17 -108t49 -81.5t77 -51.5t100 -18q53 0 97.5 18.5t77 52.5t51 82t18.5 106q0 59 -18.5 106.5t-51 81.5t-77 52.5t-97.5 18.5z" />
    <glyph glyph-name="uni1EB6" unicode="&#x1eb6;" horiz-adv-x="601" 
d="M301 780q-32 0 -54.5 9.5t-36.5 24.5t-20.5 33.5t-6.5 36.5v4h20q0 -43 25.5 -66.5t72.5 -23.5t72.5 23.5t25.5 66.5h20v-4q0 -18 -6.5 -36.5t-20.5 -33.5t-36.5 -24.5t-54.5 -9.5zM548 0l-73 194h-348l-74 -194h-23l261 683h20l260 -683h-23zM468 212l-167 439
l-167 -439h334zM301 -84q12 0 21 -9t9 -21t-9 -21t-21 -9t-21 9t-9 21t9 21t21 9z" />
    <glyph glyph-name="uni1EB7" unicode="&#x1eb7;" 
d="M336 616q-32 0 -54.5 9.5t-36.5 24.5t-20.5 33.5t-6.5 36.5v4h20q0 -43 25.5 -66.5t72.5 -23.5t72.5 23.5t25.5 66.5h20v-4q0 -18 -6.5 -36.5t-20.5 -33.5t-36.5 -24.5t-54.5 -9.5zM323 547q48 0 88 -13.5t71.5 -37.5t53 -57.5t31.5 -72.5v174h19v-540h-19v174
q-10 -39 -31.5 -72.5t-53 -57.5t-71.5 -37.5t-88 -13.5q-58 0 -106.5 19t-83 55t-54 87.5t-19.5 115.5q0 65 19.5 116t54 87t83 55t106.5 19zM323 529q-55 0 -100 -18t-77 -51.5t-49 -81.5t-17 -108t17 -108t49 -81.5t77 -51.5t100 -18q53 0 97.5 18.5t77 52.5t51 82
t18.5 106q0 59 -18.5 106.5t-51 81.5t-77 52.5t-97.5 18.5zM306 -114q0 12 9 21t21 9t21 -9t9 -21t-9 -21t-21 -9t-21 9t-9 21z" />
    <glyph glyph-name="uni1EB8" unicode="&#x1eb8;" horiz-adv-x="479" 
d="M105 686v-325h294v-18h-294v-325h324v-18h-344v704h344v-18h-324zM210 -114q0 12 9 21t21 9t21 -9t9 -21t-9 -21t-21 -9t-21 9t-9 21z" />
    <glyph glyph-name="uni1EB9" unicode="&#x1eb9;" horiz-adv-x="628" 
d="M320 11q45 0 84 12t69 34t49.5 54t25.5 72h20q-7 -42 -27 -76.5t-51.5 -60t-74 -39.5t-95.5 -14q-56 0 -104 19t-82.5 54.5t-54 87t-19.5 116.5t19.5 116.5t54 87t82.5 54.5t104 19q62 0 108.5 -20.5t77.5 -53.5t46.5 -74.5t15.5 -83.5q0 -20 -1 -30t-3 -24h-484
q1 -65 21.5 -112t54 -78t76 -45.5t88.5 -14.5zM320 529q-46 0 -89 -14.5t-76 -45.5t-53.5 -78t-21.5 -112h470q4 65 -14.5 112.5t-51.5 78t-76 45t-88 14.5zM314 -84q12 0 21 -9t9 -21t-9 -21t-21 -9t-21 9t-9 21t9 21t21 9z" />
    <glyph glyph-name="uni1EBA" unicode="&#x1eba;" horiz-adv-x="479" 
d="M239 932q70 0 70 -67q0 -26 -17 -44.5t-47 -47.5l-13 13q21 21 39.5 39t18.5 40q0 27 -12 38t-39 11q-29 0 -37.5 -15t-12.5 -38h-19q1 11 4 23t10 23t20 18t35 7zM105 686v-325h294v-18h-294v-325h324v-18h-344v704h344v-18h-324z" />
    <glyph glyph-name="uni1EBB" unicode="&#x1ebb;" horiz-adv-x="628" 
d="M313 750q-29 0 -37.5 -15t-12.5 -38h-19q1 11 4 23t10 23t20 18t35 7q70 0 70 -67q0 -26 -17 -44.5t-47 -47.5l-13 13q21 21 39.5 39t18.5 40q0 27 -12 38t-39 11zM320 11q45 0 84 12t69 34t49.5 54t25.5 72h20q-7 -42 -27 -76.5t-51.5 -60t-74 -39.5t-95.5 -14
q-56 0 -104 19t-82.5 54.5t-54 87t-19.5 116.5t19.5 116.5t54 87t82.5 54.5t104 19q62 0 108.5 -20.5t77.5 -53.5t46.5 -74.5t15.5 -83.5q0 -20 -1 -30t-3 -24h-484q1 -65 21.5 -112t54 -78t76 -45.5t88.5 -14.5zM320 529q-46 0 -89 -14.5t-76 -45.5t-53.5 -78t-21.5 -112
h470q4 65 -14.5 112.5t-51.5 78t-76 45t-88 14.5z" />
    <glyph glyph-name="uni1EBC" unicode="&#x1ebc;" horiz-adv-x="479" 
d="M185 834q19 0 31.5 -8t23.5 -17t23 -17t30 -8q16 0 28.5 12t15.5 35h18q-2 -27 -19 -46t-43 -19q-19 0 -32.5 8t-25 17t-23 17t-27.5 8q-36 0 -42 -48h-18q4 30 19 48t41 18zM105 686v-325h294v-18h-294v-325h324v-18h-344v704h344v-18h-324z" />
    <glyph glyph-name="uni1EBD" unicode="&#x1ebd;" horiz-adv-x="628" 
d="M259 652q-36 0 -42 -48h-18q4 30 19 48t41 18q19 0 31.5 -8t23.5 -17t23 -17t30 -8q16 0 28.5 12t15.5 35h18q-2 -27 -19 -46t-43 -19q-19 0 -32.5 8t-25 17t-23 17t-27.5 8zM320 11q45 0 84 12t69 34t49.5 54t25.5 72h20q-7 -42 -27 -76.5t-51.5 -60t-74 -39.5
t-95.5 -14q-56 0 -104 19t-82.5 54.5t-54 87t-19.5 116.5t19.5 116.5t54 87t82.5 54.5t104 19q62 0 108.5 -20.5t77.5 -53.5t46.5 -74.5t15.5 -83.5q0 -20 -1 -30t-3 -24h-484q1 -65 21.5 -112t54 -78t76 -45.5t88.5 -14.5zM320 529q-46 0 -89 -14.5t-76 -45.5t-53.5 -78
t-21.5 -112h470q4 65 -14.5 112.5t-51.5 78t-76 45t-88 14.5z" />
    <glyph glyph-name="uni1EBE" unicode="&#x1ebe;" horiz-adv-x="479" 
d="M325 952l-146 -92l-11 12l145 99zM240 835l-112 -73l-12 12l124 81l123 -81l-10 -13zM105 686v-325h294v-18h-294v-325h324v-18h-344v704h344v-18h-324z" />
    <glyph glyph-name="uni1EBF" unicode="&#x1ebf;" horiz-adv-x="628" 
d="M253 696l-11 12l145 99l12 -19zM202 598l-12 12l124 81l123 -81l-10 -13l-113 74zM320 11q45 0 84 12t69 34t49.5 54t25.5 72h20q-7 -42 -27 -76.5t-51.5 -60t-74 -39.5t-95.5 -14q-56 0 -104 19t-82.5 54.5t-54 87t-19.5 116.5t19.5 116.5t54 87t82.5 54.5t104 19
q62 0 108.5 -20.5t77.5 -53.5t46.5 -74.5t15.5 -83.5q0 -20 -1 -30t-3 -24h-484q1 -65 21.5 -112t54 -78t76 -45.5t88.5 -14.5zM320 529q-46 0 -89 -14.5t-76 -45.5t-53.5 -78t-21.5 -112h470q4 65 -14.5 112.5t-51.5 78t-76 45t-88 14.5z" />
    <glyph glyph-name="uni1EC0" unicode="&#x1ec0;" horiz-adv-x="479" 
d="M371 852l-9 -13l-137 108l12 14zM240 835l-112 -73l-12 12l124 81l123 -81l-10 -13zM105 686v-325h294v-18h-294v-325h324v-18h-344v704h344v-18h-324z" />
    <glyph glyph-name="uni1EC1" unicode="&#x1ec1;" horiz-adv-x="628" 
d="M436 675l-137 108l12 14l134 -109zM202 598l-12 12l124 81l123 -81l-10 -13l-113 74zM320 11q45 0 84 12t69 34t49.5 54t25.5 72h20q-7 -42 -27 -76.5t-51.5 -60t-74 -39.5t-95.5 -14q-56 0 -104 19t-82.5 54.5t-54 87t-19.5 116.5t19.5 116.5t54 87t82.5 54.5t104 19
q62 0 108.5 -20.5t77.5 -53.5t46.5 -74.5t15.5 -83.5q0 -20 -1 -30t-3 -24h-484q1 -65 21.5 -112t54 -78t76 -45.5t88.5 -14.5zM320 529q-46 0 -89 -14.5t-76 -45.5t-53.5 -78t-21.5 -112h470q4 65 -14.5 112.5t-51.5 78t-76 45t-88 14.5z" />
    <glyph glyph-name="uni1EC2" unicode="&#x1ec2;" horiz-adv-x="479" 
d="M384 963q70 0 70 -67q0 -26 -17 -44.5t-47 -47.5l-13 13q21 21 39.5 39t18.5 40q0 27 -12 38t-39 11q-29 0 -37.5 -15t-12.5 -38h-19q1 11 4 23t10 23t20 18t35 7zM240 835l-112 -73l-12 12l124 81l123 -81l-10 -13zM105 686v-325h294v-18h-294v-325h324v-18h-344v704
h344v-18h-324z" />
    <glyph glyph-name="uni1EC3" unicode="&#x1ec3;" horiz-adv-x="628" 
d="M458 781q-29 0 -37.5 -15t-12.5 -38h-19q1 11 4 23t10 23t20 18t35 7q70 0 70 -67q0 -26 -17 -44.5t-47 -47.5l-13 13q21 21 39.5 39t18.5 40q0 27 -12 38t-39 11zM202 598l-12 12l124 81l123 -81l-10 -13l-113 74zM320 11q45 0 84 12t69 34t49.5 54t25.5 72h20
q-7 -42 -27 -76.5t-51.5 -60t-74 -39.5t-95.5 -14q-56 0 -104 19t-82.5 54.5t-54 87t-19.5 116.5t19.5 116.5t54 87t82.5 54.5t104 19q62 0 108.5 -20.5t77.5 -53.5t46.5 -74.5t15.5 -83.5q0 -20 -1 -30t-3 -24h-484q1 -65 21.5 -112t54 -78t76 -45.5t88.5 -14.5zM320 529
q-46 0 -89 -14.5t-76 -45.5t-53.5 -78t-21.5 -112h470q4 65 -14.5 112.5t-51.5 78t-76 45t-88 14.5z" />
    <glyph glyph-name="uni1EC4" unicode="&#x1ec4;" horiz-adv-x="479" 
d="M198 936q19 0 31.5 -8t23.5 -17t23 -17t30 -8q16 0 28.5 12t15.5 35h18q-2 -27 -19 -46t-43 -19q-19 0 -32.5 8t-25 17t-23 17t-27.5 8q-36 0 -42 -48h-18q4 30 19 48t41 18zM240 835l-112 -73l-12 12l124 81l123 -81l-10 -13zM105 686v-325h294v-18h-294v-325h324v-18
h-344v704h344v-18h-324z" />
    <glyph glyph-name="uni1EC5" unicode="&#x1ec5;" horiz-adv-x="628" 
d="M272 754q-36 0 -42 -48h-18q4 30 19 48t41 18q19 0 31.5 -8t23.5 -17t23 -17t30 -8q16 0 28.5 12t15.5 35h18q-2 -27 -19 -46t-43 -19q-19 0 -32.5 8t-25 17t-23 17t-27.5 8zM202 598l-12 12l124 81l123 -81l-10 -13l-113 74zM320 11q45 0 84 12t69 34t49.5 54t25.5 72
h20q-7 -42 -27 -76.5t-51.5 -60t-74 -39.5t-95.5 -14q-56 0 -104 19t-82.5 54.5t-54 87t-19.5 116.5t19.5 116.5t54 87t82.5 54.5t104 19q62 0 108.5 -20.5t77.5 -53.5t46.5 -74.5t15.5 -83.5q0 -20 -1 -30t-3 -24h-484q1 -65 21.5 -112t54 -78t76 -45.5t88.5 -14.5z
M320 529q-46 0 -89 -14.5t-76 -45.5t-53.5 -78t-21.5 -112h470q4 65 -14.5 112.5t-51.5 78t-76 45t-88 14.5z" />
    <glyph glyph-name="uni1EC6" unicode="&#x1ec6;" horiz-adv-x="479" 
d="M240 835l-112 -73l-12 12l124 81l123 -81l-10 -13zM105 686v-325h294v-18h-294v-325h324v-18h-344v704h344v-18h-324zM210 -114q0 12 9 21t21 9t21 -9t9 -21t-9 -21t-21 -9t-21 9t-9 21z" />
    <glyph glyph-name="uni1EC7" unicode="&#x1ec7;" horiz-adv-x="628" 
d="M202 598l-12 12l124 81l123 -81l-10 -13l-113 74zM320 11q45 0 84 12t69 34t49.5 54t25.5 72h20q-7 -42 -27 -76.5t-51.5 -60t-74 -39.5t-95.5 -14q-56 0 -104 19t-82.5 54.5t-54 87t-19.5 116.5t19.5 116.5t54 87t82.5 54.5t104 19q62 0 108.5 -20.5t77.5 -53.5
t46.5 -74.5t15.5 -83.5q0 -20 -1 -30t-3 -24h-484q1 -65 21.5 -112t54 -78t76 -45.5t88.5 -14.5zM320 529q-46 0 -89 -14.5t-76 -45.5t-53.5 -78t-21.5 -112h470q4 65 -14.5 112.5t-51.5 78t-76 45t-88 14.5zM314 -84q12 0 21 -9t9 -21t-9 -21t-21 -9t-21 9t-9 21t9 21t21 9
z" />
    <glyph glyph-name="uni1EC8" unicode="&#x1ec8;" horiz-adv-x="190" 
d="M94 932q70 0 70 -67q0 -26 -17 -44.5t-47 -47.5l-13 13q21 21 39.5 39t18.5 40q0 27 -12 38t-39 11q-29 0 -37.5 -15t-12.5 -38h-19q1 11 4 23t10 23t20 18t35 7zM105 704v-704h-20v704h20z" />
    <glyph glyph-name="uni1EC9" unicode="&#x1ec9;" horiz-adv-x="190" 
d="M94 768q70 0 70 -67q0 -26 -17 -44.5t-47 -47.5l-13 13q21 21 39.5 39t18.5 40q0 27 -12 38t-39 11q-29 0 -37.5 -15t-12.5 -38h-19q1 11 4 23t10 23t20 18t35 7zM105 540v-540h-20v540h20z" />
    <glyph glyph-name="uni1ECA" unicode="&#x1eca;" horiz-adv-x="190" 
d="M105 704v-704h-20v704h20zM65 -114q0 12 9 21t21 9t21 -9t9 -21t-9 -21t-21 -9t-21 9t-9 21z" />
    <glyph glyph-name="uni1ECB" unicode="&#x1ecb;" horiz-adv-x="190" 
d="M69 705q0 13 7.5 20t18.5 7t18.5 -7t7.5 -20t-7.5 -20t-18.5 -7t-18.5 7t-7.5 20zM105 540v-540h-20v540h20zM65 -114q0 12 9 21t21 9t21 -9t9 -21t-9 -21t-21 -9t-21 9t-9 21z" />
    <glyph glyph-name="uni1ECC" unicode="&#x1ecc;" horiz-adv-x="792" 
d="M396 710q74 0 135.5 -26.5t106 -74t69.5 -113.5t25 -145t-25 -145t-69.5 -113.5t-106 -74t-135.5 -26.5q-73 0 -135 26.5t-106.5 74t-69.5 113.5t-25 145t25 145t69.5 113.5t106.5 74t135 26.5zM396 692q-66 0 -123 -23.5t-100 -67.5t-67.5 -107t-24.5 -143
q0 -79 24.5 -142.5t67.5 -107.5t100 -67.5t123 -23.5t123 23.5t100 67.5t67.5 107.5t24.5 142.5q0 80 -24.5 143t-67.5 107t-100 67.5t-123 23.5zM366 -114q0 12 9 21t21 9t21 -9t9 -21t-9 -21t-21 -9t-21 9t-9 21z" />
    <glyph glyph-name="uni1ECD" unicode="&#x1ecd;" horiz-adv-x="647" 
d="M324 547q56 0 104.5 -19t83.5 -54.5t55 -87t20 -116.5t-20 -116.5t-55 -87t-83.5 -54.5t-104.5 -19t-104.5 19t-84 54.5t-55.5 87t-20 116.5t20 116.5t55.5 87t84 54.5t104.5 19zM324 529q-46 0 -90 -15.5t-78.5 -47t-55 -80.5t-20.5 -116t20.5 -116t55 -80.5t78.5 -47
t90 -15.5q47 0 90.5 15.5t77.5 47t54.5 80.5t20.5 116t-20.5 116t-54.5 80.5t-77.5 47t-90.5 15.5zM294 -114q0 12 9 21t21 9t21 -9t9 -21t-9 -21t-21 -9t-21 9t-9 21z" />
    <glyph glyph-name="uni1ECE" unicode="&#x1ece;" horiz-adv-x="792" 
d="M395 932q70 0 70 -67q0 -26 -17 -44.5t-47 -47.5l-13 13q21 21 39.5 39t18.5 40q0 27 -12 38t-39 11q-29 0 -37.5 -15t-12.5 -38h-19q1 11 4 23t10 23t20 18t35 7zM396 710q74 0 135.5 -26.5t106 -74t69.5 -113.5t25 -145t-25 -145t-69.5 -113.5t-106 -74t-135.5 -26.5
q-73 0 -135 26.5t-106.5 74t-69.5 113.5t-25 145t25 145t69.5 113.5t106.5 74t135 26.5zM396 692q-66 0 -123 -23.5t-100 -67.5t-67.5 -107t-24.5 -143q0 -79 24.5 -142.5t67.5 -107.5t100 -67.5t123 -23.5t123 23.5t100 67.5t67.5 107.5t24.5 142.5q0 80 -24.5 143
t-67.5 107t-100 67.5t-123 23.5z" />
    <glyph glyph-name="uni1ECF" unicode="&#x1ecf;" horiz-adv-x="647" 
d="M323 768q70 0 70 -67q0 -26 -17 -44.5t-47 -47.5l-13 13q21 21 39.5 39t18.5 40q0 27 -12 38t-39 11q-29 0 -37.5 -15t-12.5 -38h-19q1 11 4 23t10 23t20 18t35 7zM324 547q56 0 104.5 -19t83.5 -54.5t55 -87t20 -116.5t-20 -116.5t-55 -87t-83.5 -54.5t-104.5 -19
t-104.5 19t-84 54.5t-55.5 87t-20 116.5t20 116.5t55.5 87t84 54.5t104.5 19zM324 529q-46 0 -90 -15.5t-78.5 -47t-55 -80.5t-20.5 -116t20.5 -116t55 -80.5t78.5 -47t90 -15.5q47 0 90.5 15.5t77.5 47t54.5 80.5t20.5 116t-20.5 116t-54.5 80.5t-77.5 47t-90.5 15.5z" />
    <glyph glyph-name="uni1ED0" unicode="&#x1ed0;" horiz-adv-x="792" 
d="M481 952l-146 -92l-11 12l145 99zM396 835l-112 -73l-12 12l124 81l123 -81l-10 -13zM396 710q74 0 135.5 -26.5t106 -74t69.5 -113.5t25 -145t-25 -145t-69.5 -113.5t-106 -74t-135.5 -26.5q-73 0 -135 26.5t-106.5 74t-69.5 113.5t-25 145t25 145t69.5 113.5t106.5 74
t135 26.5zM396 692q-66 0 -123 -23.5t-100 -67.5t-67.5 -107t-24.5 -143q0 -79 24.5 -142.5t67.5 -107.5t100 -67.5t123 -23.5t123 23.5t100 67.5t67.5 107.5t24.5 142.5q0 80 -24.5 143t-67.5 107t-100 67.5t-123 23.5z" />
    <glyph glyph-name="uni1ED1" unicode="&#x1ed1;" horiz-adv-x="647" 
d="M409 788l-146 -92l-11 12l145 99zM324 671l-112 -73l-12 12l124 81l123 -81l-10 -13zM324 547q56 0 104.5 -19t83.5 -54.5t55 -87t20 -116.5t-20 -116.5t-55 -87t-83.5 -54.5t-104.5 -19t-104.5 19t-84 54.5t-55.5 87t-20 116.5t20 116.5t55.5 87t84 54.5t104.5 19z
M324 529q-46 0 -90 -15.5t-78.5 -47t-55 -80.5t-20.5 -116t20.5 -116t55 -80.5t78.5 -47t90 -15.5q47 0 90.5 15.5t77.5 47t54.5 80.5t20.5 116t-20.5 116t-54.5 80.5t-77.5 47t-90.5 15.5z" />
    <glyph glyph-name="uni1ED2" unicode="&#x1ed2;" horiz-adv-x="792" 
d="M527 852l-9 -13l-137 108l12 14zM396 835l-112 -73l-12 12l124 81l123 -81l-10 -13zM396 710q74 0 135.5 -26.5t106 -74t69.5 -113.5t25 -145t-25 -145t-69.5 -113.5t-106 -74t-135.5 -26.5q-73 0 -135 26.5t-106.5 74t-69.5 113.5t-25 145t25 145t69.5 113.5t106.5 74
t135 26.5zM396 692q-66 0 -123 -23.5t-100 -67.5t-67.5 -107t-24.5 -143q0 -79 24.5 -142.5t67.5 -107.5t100 -67.5t123 -23.5t123 23.5t100 67.5t67.5 107.5t24.5 142.5q0 80 -24.5 143t-67.5 107t-100 67.5t-123 23.5z" />
    <glyph glyph-name="uni1ED3" unicode="&#x1ed3;" horiz-adv-x="647" 
d="M455 688l-9 -13l-137 108l12 14zM324 671l-112 -73l-12 12l124 81l123 -81l-10 -13zM324 547q56 0 104.5 -19t83.5 -54.5t55 -87t20 -116.5t-20 -116.5t-55 -87t-83.5 -54.5t-104.5 -19t-104.5 19t-84 54.5t-55.5 87t-20 116.5t20 116.5t55.5 87t84 54.5t104.5 19z
M324 529q-46 0 -90 -15.5t-78.5 -47t-55 -80.5t-20.5 -116t20.5 -116t55 -80.5t78.5 -47t90 -15.5q47 0 90.5 15.5t77.5 47t54.5 80.5t20.5 116t-20.5 116t-54.5 80.5t-77.5 47t-90.5 15.5z" />
    <glyph glyph-name="uni1ED4" unicode="&#x1ed4;" horiz-adv-x="792" 
d="M540 963q70 0 70 -67q0 -26 -17 -44.5t-47 -47.5l-13 13q21 21 39.5 39t18.5 40q0 27 -12 38t-39 11q-29 0 -37.5 -15t-12.5 -38h-19q1 11 4 23t10 23t20 18t35 7zM396 835l-112 -73l-12 12l124 81l123 -81l-10 -13zM396 710q74 0 135.5 -26.5t106 -74t69.5 -113.5
t25 -145t-25 -145t-69.5 -113.5t-106 -74t-135.5 -26.5q-73 0 -135 26.5t-106.5 74t-69.5 113.5t-25 145t25 145t69.5 113.5t106.5 74t135 26.5zM396 692q-66 0 -123 -23.5t-100 -67.5t-67.5 -107t-24.5 -143q0 -79 24.5 -142.5t67.5 -107.5t100 -67.5t123 -23.5t123 23.5
t100 67.5t67.5 107.5t24.5 142.5q0 80 -24.5 143t-67.5 107t-100 67.5t-123 23.5z" />
    <glyph glyph-name="uni1ED5" unicode="&#x1ed5;" horiz-adv-x="647" 
d="M468 799q70 0 70 -67q0 -26 -17 -44.5t-47 -47.5l-13 13q21 21 39.5 39t18.5 40q0 27 -12 38t-39 11q-29 0 -37.5 -15t-12.5 -38h-19q1 11 4 23t10 23t20 18t35 7zM324 671l-112 -73l-12 12l124 81l123 -81l-10 -13zM324 547q56 0 104.5 -19t83.5 -54.5t55 -87t20 -116.5
t-20 -116.5t-55 -87t-83.5 -54.5t-104.5 -19t-104.5 19t-84 54.5t-55.5 87t-20 116.5t20 116.5t55.5 87t84 54.5t104.5 19zM324 529q-46 0 -90 -15.5t-78.5 -47t-55 -80.5t-20.5 -116t20.5 -116t55 -80.5t78.5 -47t90 -15.5q47 0 90.5 15.5t77.5 47t54.5 80.5t20.5 116
t-20.5 116t-54.5 80.5t-77.5 47t-90.5 15.5z" />
    <glyph glyph-name="uni1ED6" unicode="&#x1ed6;" horiz-adv-x="792" 
d="M354 936q19 0 31.5 -8t23.5 -17t23 -17t30 -8q16 0 28.5 12t15.5 35h18q-2 -27 -19 -46t-43 -19q-19 0 -32.5 8t-25 17t-23 17t-27.5 8q-36 0 -42 -48h-18q4 30 19 48t41 18zM396 835l-112 -73l-12 12l124 81l123 -81l-10 -13zM396 710q74 0 135.5 -26.5t106 -74
t69.5 -113.5t25 -145t-25 -145t-69.5 -113.5t-106 -74t-135.5 -26.5q-73 0 -135 26.5t-106.5 74t-69.5 113.5t-25 145t25 145t69.5 113.5t106.5 74t135 26.5zM396 692q-66 0 -123 -23.5t-100 -67.5t-67.5 -107t-24.5 -143q0 -79 24.5 -142.5t67.5 -107.5t100 -67.5
t123 -23.5t123 23.5t100 67.5t67.5 107.5t24.5 142.5q0 80 -24.5 143t-67.5 107t-100 67.5t-123 23.5z" />
    <glyph glyph-name="uni1ED7" unicode="&#x1ed7;" horiz-adv-x="647" 
d="M282 772q19 0 31.5 -8t23.5 -17t23 -17t30 -8q16 0 28.5 12t15.5 35h18q-2 -27 -19 -46t-43 -19q-19 0 -32.5 8t-25 17t-23 17t-27.5 8q-36 0 -42 -48h-18q4 30 19 48t41 18zM324 671l-112 -73l-12 12l124 81l123 -81l-10 -13zM324 547q56 0 104.5 -19t83.5 -54.5t55 -87
t20 -116.5t-20 -116.5t-55 -87t-83.5 -54.5t-104.5 -19t-104.5 19t-84 54.5t-55.5 87t-20 116.5t20 116.5t55.5 87t84 54.5t104.5 19zM324 529q-46 0 -90 -15.5t-78.5 -47t-55 -80.5t-20.5 -116t20.5 -116t55 -80.5t78.5 -47t90 -15.5q47 0 90.5 15.5t77.5 47t54.5 80.5
t20.5 116t-20.5 116t-54.5 80.5t-77.5 47t-90.5 15.5z" />
    <glyph glyph-name="uni1ED8" unicode="&#x1ed8;" horiz-adv-x="792" 
d="M396 835l-112 -73l-12 12l124 81l123 -81l-10 -13zM396 710q74 0 135.5 -26.5t106 -74t69.5 -113.5t25 -145t-25 -145t-69.5 -113.5t-106 -74t-135.5 -26.5q-73 0 -135 26.5t-106.5 74t-69.5 113.5t-25 145t25 145t69.5 113.5t106.5 74t135 26.5zM396 692
q-66 0 -123 -23.5t-100 -67.5t-67.5 -107t-24.5 -143q0 -79 24.5 -142.5t67.5 -107.5t100 -67.5t123 -23.5t123 23.5t100 67.5t67.5 107.5t24.5 142.5q0 80 -24.5 143t-67.5 107t-100 67.5t-123 23.5zM366 -114q0 12 9 21t21 9t21 -9t9 -21t-9 -21t-21 -9t-21 9t-9 21z" />
    <glyph glyph-name="uni1ED9" unicode="&#x1ed9;" horiz-adv-x="647" 
d="M324 671l-112 -73l-12 12l124 81l123 -81l-10 -13zM324 547q56 0 104.5 -19t83.5 -54.5t55 -87t20 -116.5t-20 -116.5t-55 -87t-83.5 -54.5t-104.5 -19t-104.5 19t-84 54.5t-55.5 87t-20 116.5t20 116.5t55.5 87t84 54.5t104.5 19zM324 529q-46 0 -90 -15.5t-78.5 -47
t-55 -80.5t-20.5 -116t20.5 -116t55 -80.5t78.5 -47t90 -15.5q47 0 90.5 15.5t77.5 47t54.5 80.5t20.5 116t-20.5 116t-54.5 80.5t-77.5 47t-90.5 15.5zM294 -114q0 12 9 21t21 9t21 -9t9 -21t-9 -21t-21 -9t-21 9t-9 21z" />
    <glyph glyph-name="uni1EDA" unicode="&#x1eda;" horiz-adv-x="792" 
d="M337 758l-11 12l145 99l12 -19zM507 693q51 -17 92.5 -49t71 -76t45.5 -99t16 -118q0 -79 -25 -145t-69.5 -113.5t-106 -74t-135.5 -26.5q-73 0 -135 26.5t-106.5 74t-69.5 113.5t-25 145t25 145t69.5 113.5t106.5 74t135 26.5q34 0 67 -6q46 1 76 28t30 92h20
q0 -56 -22.5 -88t-59.5 -43zM396 10q66 0 123 23.5t100 67.5t67.5 107.5t24.5 142.5q0 80 -24.5 143t-67.5 107t-100 67.5t-123 23.5t-123 -23.5t-100 -67.5t-67.5 -107t-24.5 -143q0 -79 24.5 -142.5t67.5 -107.5t100 -67.5t123 -23.5z" />
    <glyph glyph-name="uni1EDB" unicode="&#x1edb;" horiz-adv-x="647" 
d="M265 594l-11 12l145 99l12 -19zM430 527q71 -28 114 -93.5t43 -163.5q0 -65 -20 -116.5t-55 -87t-83.5 -54.5t-104.5 -19t-104.5 19t-84 54.5t-55.5 87t-20 116.5t20 116.5t55.5 87t84 54.5t104.5 19q37 0 65 -7q47 1 77 28t30 92h20q0 -57 -24 -89.5t-62 -43.5zM324 11
q47 0 90.5 15.5t77.5 47t54.5 80.5t20.5 116t-20.5 116t-54.5 80.5t-77.5 47t-90.5 15.5q-46 0 -90 -15.5t-78.5 -47t-55 -80.5t-20.5 -116t20.5 -116t55 -80.5t78.5 -47t90 -15.5z" />
    <glyph glyph-name="uni1EDC" unicode="&#x1edc;" horiz-adv-x="792" 
d="M437 775l-137 108l12 14l134 -109zM507 693q51 -17 92.5 -49t71 -76t45.5 -99t16 -118q0 -79 -25 -145t-69.5 -113.5t-106 -74t-135.5 -26.5q-73 0 -135 26.5t-106.5 74t-69.5 113.5t-25 145t25 145t69.5 113.5t106.5 74t135 26.5q34 0 67 -6q46 1 76 28t30 92h20
q0 -56 -22.5 -88t-59.5 -43zM396 10q66 0 123 23.5t100 67.5t67.5 107.5t24.5 142.5q0 80 -24.5 143t-67.5 107t-100 67.5t-123 23.5t-123 -23.5t-100 -67.5t-67.5 -107t-24.5 -143q0 -79 24.5 -142.5t67.5 -107.5t100 -67.5t123 -23.5z" />
    <glyph glyph-name="uni1EDD" unicode="&#x1edd;" horiz-adv-x="647" 
d="M407 588l-137 108l12 14l134 -109zM430 527q71 -28 114 -93.5t43 -163.5q0 -65 -20 -116.5t-55 -87t-83.5 -54.5t-104.5 -19t-104.5 19t-84 54.5t-55.5 87t-20 116.5t20 116.5t55.5 87t84 54.5t104.5 19q37 0 65 -7q47 1 77 28t30 92h20q0 -57 -24 -89.5t-62 -43.5z
M324 11q47 0 90.5 15.5t77.5 47t54.5 80.5t20.5 116t-20.5 116t-54.5 80.5t-77.5 47t-90.5 15.5q-46 0 -90 -15.5t-78.5 -47t-55 -80.5t-20.5 -116t20.5 -116t55 -80.5t78.5 -47t90 -15.5z" />
    <glyph glyph-name="uni1EDE" unicode="&#x1ede;" horiz-adv-x="792" 
d="M395 914q-29 0 -37.5 -15t-12.5 -38h-19q1 11 4 23t10 23t20 18t35 7q70 0 70 -67q0 -26 -17 -44.5t-47 -47.5l-13 13q21 21 39.5 39t18.5 40q0 27 -12 38t-39 11zM507 693q51 -17 92.5 -49t71 -76t45.5 -99t16 -118q0 -79 -25 -145t-69.5 -113.5t-106 -74t-135.5 -26.5
q-73 0 -135 26.5t-106.5 74t-69.5 113.5t-25 145t25 145t69.5 113.5t106.5 74t135 26.5q34 0 67 -6q46 1 76 28t30 92h20q0 -56 -22.5 -88t-59.5 -43zM396 10q66 0 123 23.5t100 67.5t67.5 107.5t24.5 142.5q0 80 -24.5 143t-67.5 107t-100 67.5t-123 23.5t-123 -23.5
t-100 -67.5t-67.5 -107t-24.5 -143q0 -79 24.5 -142.5t67.5 -107.5t100 -67.5t123 -23.5z" />
    <glyph glyph-name="uni1EDF" unicode="&#x1edf;" horiz-adv-x="647" 
d="M323 750q-29 0 -37.5 -15t-12.5 -38h-19q1 11 4 23t10 23t20 18t35 7q70 0 70 -67q0 -26 -17 -44.5t-47 -47.5l-13 13q21 21 39.5 39t18.5 40q0 27 -12 38t-39 11zM430 527q71 -28 114 -93.5t43 -163.5q0 -65 -20 -116.5t-55 -87t-83.5 -54.5t-104.5 -19t-104.5 19
t-84 54.5t-55.5 87t-20 116.5t20 116.5t55.5 87t84 54.5t104.5 19q37 0 65 -7q47 1 77 28t30 92h20q0 -57 -24 -89.5t-62 -43.5zM324 11q47 0 90.5 15.5t77.5 47t54.5 80.5t20.5 116t-20.5 116t-54.5 80.5t-77.5 47t-90.5 15.5q-46 0 -90 -15.5t-78.5 -47t-55 -80.5
t-20.5 -116t20.5 -116t55 -80.5t78.5 -47t90 -15.5z" />
    <glyph glyph-name="uni1EE0" unicode="&#x1ee0;" horiz-adv-x="792" 
d="M341 858q-36 0 -42 -48h-18q4 30 19 48t41 18q19 0 31.5 -8t23.5 -17t23 -17t30 -8q16 0 28.5 12t15.5 35h18q-2 -27 -19 -46t-43 -19q-19 0 -32.5 8t-25 17t-23 17t-27.5 8zM507 693q51 -17 92.5 -49t71 -76t45.5 -99t16 -118q0 -79 -25 -145t-69.5 -113.5t-106 -74
t-135.5 -26.5q-73 0 -135 26.5t-106.5 74t-69.5 113.5t-25 145t25 145t69.5 113.5t106.5 74t135 26.5q34 0 67 -6q46 1 76 28t30 92h20q0 -56 -22.5 -88t-59.5 -43zM396 10q66 0 123 23.5t100 67.5t67.5 107.5t24.5 142.5q0 80 -24.5 143t-67.5 107t-100 67.5t-123 23.5
t-123 -23.5t-100 -67.5t-67.5 -107t-24.5 -143q0 -79 24.5 -142.5t67.5 -107.5t100 -67.5t123 -23.5z" />
    <glyph glyph-name="uni1EE1" unicode="&#x1ee1;" horiz-adv-x="647" 
d="M269 687q-36 0 -42 -48h-18q4 30 19 48t41 18q19 0 31.5 -8t23.5 -17t23 -17t30 -8q16 0 28.5 12t15.5 35h18q-2 -27 -19 -46t-43 -19q-19 0 -32.5 8t-25 17t-23 17t-27.5 8zM430 527q71 -28 114 -93.5t43 -163.5q0 -65 -20 -116.5t-55 -87t-83.5 -54.5t-104.5 -19
t-104.5 19t-84 54.5t-55.5 87t-20 116.5t20 116.5t55.5 87t84 54.5t104.5 19q37 0 65 -7q47 1 77 28t30 92h20q0 -57 -24 -89.5t-62 -43.5zM324 11q47 0 90.5 15.5t77.5 47t54.5 80.5t20.5 116t-20.5 116t-54.5 80.5t-77.5 47t-90.5 15.5q-46 0 -90 -15.5t-78.5 -47
t-55 -80.5t-20.5 -116t20.5 -116t55 -80.5t78.5 -47t90 -15.5z" />
    <glyph glyph-name="uni1EE2" unicode="&#x1ee2;" horiz-adv-x="792" 
d="M507 693q51 -17 92.5 -49t71 -76t45.5 -99t16 -118q0 -79 -25 -145t-69.5 -113.5t-106 -74t-135.5 -26.5q-73 0 -135 26.5t-106.5 74t-69.5 113.5t-25 145t25 145t69.5 113.5t106.5 74t135 26.5q34 0 67 -6q46 1 76 28t30 92h20q0 -56 -22.5 -88t-59.5 -43zM396 10
q66 0 123 23.5t100 67.5t67.5 107.5t24.5 142.5q0 80 -24.5 143t-67.5 107t-100 67.5t-123 23.5t-123 -23.5t-100 -67.5t-67.5 -107t-24.5 -143q0 -79 24.5 -142.5t67.5 -107.5t100 -67.5t123 -23.5zM396 -84q12 0 21 -9t9 -21t-9 -21t-21 -9t-21 9t-9 21t9 21t21 9z" />
    <glyph glyph-name="uni1EE3" unicode="&#x1ee3;" horiz-adv-x="647" 
d="M430 527q71 -28 114 -93.5t43 -163.5q0 -65 -20 -116.5t-55 -87t-83.5 -54.5t-104.5 -19t-104.5 19t-84 54.5t-55.5 87t-20 116.5t20 116.5t55.5 87t84 54.5t104.5 19q37 0 65 -7q47 1 77 28t30 92h20q0 -57 -24 -89.5t-62 -43.5zM324 11q47 0 90.5 15.5t77.5 47
t54.5 80.5t20.5 116t-20.5 116t-54.5 80.5t-77.5 47t-90.5 15.5q-46 0 -90 -15.5t-78.5 -47t-55 -80.5t-20.5 -116t20.5 -116t55 -80.5t78.5 -47t90 -15.5zM324 -84q12 0 21 -9t9 -21t-9 -21t-21 -9t-21 9t-9 21t9 21t21 9z" />
    <glyph glyph-name="uni1EE4" unicode="&#x1ee4;" horiz-adv-x="629" 
d="M100 704v-437q0 -70 16.5 -119t45.5 -79.5t69 -44t86 -13.5t84.5 13.5t67 44t44.5 79.5t16 119v437h20v-437q0 -73 -17 -125t-47.5 -85t-73 -48.5t-94.5 -15.5t-95.5 15.5t-75 48.5t-49 85t-17.5 125v437h20zM285 -114q0 12 9 21t21 9t21 -9t9 -21t-9 -21t-21 -9t-21 9
t-9 21z" />
    <glyph glyph-name="uni1EE5" unicode="&#x1ee5;" horiz-adv-x="599" 
d="M514 540v-540h-20v152q-10 -43 -31 -74t-49.5 -51t-62.5 -29.5t-69 -9.5q-44 0 -83.5 13.5t-69 42.5t-47 73.5t-17.5 107.5v315h19v-317q0 -108 54.5 -162.5t143.5 -54.5q46 0 85 15t67 45.5t44 77t16 109.5v287h20zM300 -84q12 0 21 -9t9 -21t-9 -21t-21 -9t-21 9t-9 21
t9 21t21 9z" />
    <glyph glyph-name="uni1EE6" unicode="&#x1ee6;" horiz-adv-x="629" 
d="M314 932q70 0 70 -67q0 -26 -17 -44.5t-47 -47.5l-13 13q21 21 39.5 39t18.5 40q0 27 -12 38t-39 11q-29 0 -37.5 -15t-12.5 -38h-19q1 11 4 23t10 23t20 18t35 7zM100 704v-437q0 -70 16.5 -119t45.5 -79.5t69 -44t86 -13.5t84.5 13.5t67 44t44.5 79.5t16 119v437h20
v-437q0 -73 -17 -125t-47.5 -85t-73 -48.5t-94.5 -15.5t-95.5 15.5t-75 48.5t-49 85t-17.5 125v437h20z" />
    <glyph glyph-name="uni1EE7" unicode="&#x1ee7;" horiz-adv-x="599" 
d="M299 750q-29 0 -37.5 -15t-12.5 -38h-19q1 11 4 23t10 23t20 18t35 7q70 0 70 -67q0 -26 -17 -44.5t-47 -47.5l-13 13q21 21 39.5 39t18.5 40q0 27 -12 38t-39 11zM514 540v-540h-20v152q-10 -43 -31 -74t-49.5 -51t-62.5 -29.5t-69 -9.5q-44 0 -83.5 13.5t-69 42.5
t-47 73.5t-17.5 107.5v315h19v-317q0 -108 54.5 -162.5t143.5 -54.5q46 0 85 15t67 45.5t44 77t16 109.5v287h20z" />
    <glyph glyph-name="uni1EE8" unicode="&#x1ee8;" horiz-adv-x="629" 
d="M256 758l-11 12l145 99l12 -19zM673 824q0 -70 -35.5 -103t-88.5 -35v-419q0 -73 -17 -125t-47.5 -85t-73 -48.5t-94.5 -15.5t-95.5 15.5t-75 48.5t-49 85t-17.5 125v437h20v-437q0 -70 16.5 -119t45.5 -79.5t69 -44t86 -13.5t84.5 13.5t67 44t44.5 79.5t16 119v437h16
q47 0 77.5 27t30.5 93h20z" />
    <glyph glyph-name="uni1EE9" unicode="&#x1ee9;" horiz-adv-x="599" 
d="M241 594l-11 12l145 99l12 -19zM627 660q0 -67 -32 -100t-81 -37v-523h-20v152q-10 -43 -31 -74t-49.5 -51t-62.5 -29.5t-69 -9.5q-44 0 -83.5 13.5t-69 42.5t-47 73.5t-17.5 107.5v315h19v-317q0 -108 54.5 -162.5t143.5 -54.5q46 0 85 15t67 45.5t44 77t16 109.5v287h5
q47 0 77.5 27t30.5 93h20z" />
    <glyph glyph-name="uni1EEA" unicode="&#x1eea;" horiz-adv-x="629" 
d="M398 752l-137 108l12 14l134 -109zM673 824q0 -70 -35.5 -103t-88.5 -35v-419q0 -73 -17 -125t-47.5 -85t-73 -48.5t-94.5 -15.5t-95.5 15.5t-75 48.5t-49 85t-17.5 125v437h20v-437q0 -70 16.5 -119t45.5 -79.5t69 -44t86 -13.5t84.5 13.5t67 44t44.5 79.5t16 119v437
h16q47 0 77.5 27t30.5 93h20z" />
    <glyph glyph-name="uni1EEB" unicode="&#x1eeb;" horiz-adv-x="599" 
d="M383 588l-137 108l12 14l134 -109zM627 660q0 -67 -32 -100t-81 -37v-523h-20v152q-10 -43 -31 -74t-49.5 -51t-62.5 -29.5t-69 -9.5q-44 0 -83.5 13.5t-69 42.5t-47 73.5t-17.5 107.5v315h19v-317q0 -108 54.5 -162.5t143.5 -54.5q46 0 85 15t67 45.5t44 77t16 109.5
v287h5q47 0 77.5 27t30.5 93h20z" />
    <glyph glyph-name="uni1EEC" unicode="&#x1eec;" horiz-adv-x="629" 
d="M314 914q-29 0 -37.5 -15t-12.5 -38h-19q1 11 4 23t10 23t20 18t35 7q70 0 70 -67q0 -26 -17 -44.5t-47 -47.5l-13 13q21 21 39.5 39t18.5 40q0 27 -12 38t-39 11zM673 824q0 -70 -35.5 -103t-88.5 -35v-419q0 -73 -17 -125t-47.5 -85t-73 -48.5t-94.5 -15.5t-95.5 15.5
t-75 48.5t-49 85t-17.5 125v437h20v-437q0 -70 16.5 -119t45.5 -79.5t69 -44t86 -13.5t84.5 13.5t67 44t44.5 79.5t16 119v437h16q47 0 77.5 27t30.5 93h20z" />
    <glyph glyph-name="uni1EED" unicode="&#x1eed;" horiz-adv-x="599" 
d="M299 750q-29 0 -37.5 -15t-12.5 -38h-19q1 11 4 23t10 23t20 18t35 7q70 0 70 -67q0 -26 -17 -44.5t-47 -47.5l-13 13q21 21 39.5 39t18.5 40q0 27 -12 38t-39 11zM627 660q0 -67 -32 -100t-81 -37v-523h-20v152q-10 -43 -31 -74t-49.5 -51t-62.5 -29.5t-69 -9.5
q-44 0 -83.5 13.5t-69 42.5t-47 73.5t-17.5 107.5v315h19v-317q0 -108 54.5 -162.5t143.5 -54.5q46 0 85 15t67 45.5t44 77t16 109.5v287h5q47 0 77.5 27t30.5 93h20z" />
    <glyph glyph-name="uni1EEE" unicode="&#x1eee;" horiz-adv-x="629" 
d="M260 816q-36 0 -42 -48h-18q4 30 19 48t41 18q19 0 31.5 -8t23.5 -17t23 -17t30 -8q16 0 28.5 12t15.5 35h18q-2 -27 -19 -46t-43 -19q-19 0 -32.5 8t-25 17t-23 17t-27.5 8zM673 824q0 -70 -35.5 -103t-88.5 -35v-419q0 -73 -17 -125t-47.5 -85t-73 -48.5t-94.5 -15.5
t-95.5 15.5t-75 48.5t-49 85t-17.5 125v437h20v-437q0 -70 16.5 -119t45.5 -79.5t69 -44t86 -13.5t84.5 13.5t67 44t44.5 79.5t16 119v437h16q47 0 77.5 27t30.5 93h20z" />
    <glyph glyph-name="uni1EEF" unicode="&#x1eef;" horiz-adv-x="599" 
d="M245 652q-36 0 -42 -48h-18q4 30 19 48t41 18q19 0 31.5 -8t23.5 -17t23 -17t30 -8q16 0 28.5 12t15.5 35h18q-2 -27 -19 -46t-43 -19q-19 0 -32.5 8t-25 17t-23 17t-27.5 8zM627 660q0 -67 -32 -100t-81 -37v-523h-20v152q-10 -43 -31 -74t-49.5 -51t-62.5 -29.5
t-69 -9.5q-44 0 -83.5 13.5t-69 42.5t-47 73.5t-17.5 107.5v315h19v-317q0 -108 54.5 -162.5t143.5 -54.5q46 0 85 15t67 45.5t44 77t16 109.5v287h5q47 0 77.5 27t30.5 93h20z" />
    <glyph glyph-name="uni1EF0" unicode="&#x1ef0;" horiz-adv-x="629" 
d="M673 824q0 -70 -35.5 -103t-88.5 -35v-419q0 -73 -17 -125t-47.5 -85t-73 -48.5t-94.5 -15.5t-95.5 15.5t-75 48.5t-49 85t-17.5 125v437h20v-437q0 -70 16.5 -119t45.5 -79.5t69 -44t86 -13.5t84.5 13.5t67 44t44.5 79.5t16 119v437h16q47 0 77.5 27t30.5 93h20z
M315 -84q12 0 21 -9t9 -21t-9 -21t-21 -9t-21 9t-9 21t9 21t21 9z" />
    <glyph glyph-name="uni1EF1" unicode="&#x1ef1;" horiz-adv-x="599" 
d="M627 660q0 -67 -32 -100t-81 -37v-523h-20v152q-10 -43 -31 -74t-49.5 -51t-62.5 -29.5t-69 -9.5q-44 0 -83.5 13.5t-69 42.5t-47 73.5t-17.5 107.5v315h19v-317q0 -108 54.5 -162.5t143.5 -54.5q46 0 85 15t67 45.5t44 77t16 109.5v287h5q47 0 77.5 27t30.5 93h20z
M300 -84q12 0 21 -9t9 -21t-9 -21t-21 -9t-21 9t-9 21t9 21t21 9z" />
    <glyph glyph-name="Ygrave" unicode="&#x1ef2;" horiz-adv-x="518" 
d="M342 752l-137 108l12 14l134 -109zM488 704l-218 -409v-295h-20v295l-220 409h24l205 -387l205 387h24z" />
    <glyph glyph-name="ygrave" unicode="&#x1ef3;" horiz-adv-x="503" 
d="M344 601l-9 -13l-137 108l12 14zM42 540l218 -511l201 511h22l-308 -794h-25l99 253l-229 541h22z" />
    <glyph glyph-name="uni1EF4" unicode="&#x1ef4;" horiz-adv-x="518" 
d="M250 295l-220 409h24l205 -387l205 387h24l-218 -409v-295h-20v295zM259 -84q12 0 21 -9t9 -21t-9 -21t-21 -9t-21 9t-9 21t9 21t21 9z" />
    <glyph glyph-name="uni1EF5" unicode="&#x1ef5;" horiz-adv-x="503" 
d="M42 540l218 -511l201 511h22l-308 -794h-25l99 253l-229 541h22zM314 -114q0 12 9 21t21 9t21 -9t9 -21t-9 -21t-21 -9t-21 9t-9 21z" />
    <glyph glyph-name="uni1EF6" unicode="&#x1ef6;" horiz-adv-x="518" 
d="M258 914q-29 0 -37.5 -15t-12.5 -38h-19q1 11 4 23t10 23t20 18t35 7q70 0 70 -67q0 -26 -17 -44.5t-47 -47.5l-13 13q21 21 39.5 39t18.5 40q0 27 -12 38t-39 11zM488 704l-218 -409v-295h-20v295l-220 409h24l205 -387l205 387h24z" />
    <glyph glyph-name="uni1EF7" unicode="&#x1ef7;" horiz-adv-x="503" 
d="M251 768q70 0 70 -67q0 -26 -17 -44.5t-47 -47.5l-13 13q21 21 39.5 39t18.5 40q0 27 -12 38t-39 11q-29 0 -37.5 -15t-12.5 -38h-19q1 11 4 23t10 23t20 18t35 7zM42 540l218 -511l201 511h22l-308 -794h-25l99 253l-229 541h22z" />
    <glyph glyph-name="uni1EF8" unicode="&#x1ef8;" horiz-adv-x="518" 
d="M204 816q-36 0 -42 -48h-18q4 30 19 48t41 18q19 0 31.5 -8t23.5 -17t23 -17t30 -8q16 0 28.5 12t15.5 35h18q-2 -27 -19 -46t-43 -19q-19 0 -32.5 8t-25 17t-23 17t-27.5 8zM488 704l-218 -409v-295h-20v295l-220 409h24l205 -387l205 387h24z" />
    <glyph glyph-name="uni1EF9" unicode="&#x1ef9;" horiz-adv-x="503" 
d="M197 670q19 0 31.5 -8t23.5 -17t23 -17t30 -8q16 0 28.5 12t15.5 35h18q-2 -27 -19 -46t-43 -19q-19 0 -32.5 8t-25 17t-23 17t-27.5 8q-36 0 -42 -48h-18q4 30 19 48t41 18zM42 540l218 -511l201 511h22l-308 -794h-25l99 253l-229 541h22z" />
    <glyph glyph-name="endash" unicode="&#x2013;" horiz-adv-x="581" 
d="M541 389v-18h-501v18h501z" />
    <glyph glyph-name="emdash" unicode="&#x2014;" horiz-adv-x="764" 
d="M724 389v-18h-684v18h684z" />
    <glyph glyph-name="quoteleft" unicode="&#x2018;" horiz-adv-x="122" 
d="M34 593q-2 22 -3 38.5t-1 30.5q0 48 18.5 63t48.5 15v-20q-26 0 -35.5 -11.5t-9.5 -33.5v-29h38v-53h-56z" />
    <glyph glyph-name="quoteright" unicode="&#x2019;" horiz-adv-x="122" 
d="M88 740q2 -22 3 -38.5t1 -30.5q0 -48 -18.5 -63t-48.5 -15v20q26 0 35.5 11.5t9.5 33.5v29h-38v53h56z" />
    <glyph glyph-name="quotesinglbase" unicode="&#x201a;" horiz-adv-x="138" 
d="M88 31q4 -34 0.5 -56.5t-12.5 -36t-22 -19t-29 -5.5v18q24 0 33.5 14.5t9.5 39.5v7h-31v38h51z" />
    <glyph glyph-name="quotedblleft" unicode="&#x201c;" horiz-adv-x="208" 
d="M34 593q-2 22 -3 38.5t-1 30.5q0 48 18.5 63t48.5 15v-20q-26 0 -35.5 -11.5t-9.5 -33.5v-29h38v-53h-56zM120 593q-2 22 -3 38.5t-1 30.5q0 48 18.5 63t48.5 15v-20q-26 0 -35.5 -11.5t-9.5 -33.5v-29h38v-53h-56z" />
    <glyph glyph-name="quotedblright" unicode="&#x201d;" horiz-adv-x="208" 
d="M88 740q2 -22 3 -38.5t1 -30.5q0 -48 -18.5 -63t-48.5 -15v20q26 0 35.5 11.5t9.5 33.5v29h-38v53h56zM174 740q2 -22 3 -38.5t1 -30.5q0 -48 -18.5 -63t-48.5 -15v20q26 0 35.5 11.5t9.5 33.5v29h-38v53h56z" />
    <glyph glyph-name="quotedblbase" unicode="&#x201e;" horiz-adv-x="208" 
d="M88 53q2 -22 3 -38.5t1 -30.5q0 -48 -18.5 -63t-48.5 -15v20q26 0 35.5 11.5t9.5 33.5v29h-38v53h56zM174 53q2 -22 3 -38.5t1 -30.5q0 -48 -18.5 -63t-48.5 -15v20q26 0 35.5 11.5t9.5 33.5v29h-38v53h56z" />
    <glyph glyph-name="dagger" unicode="&#x2020;" horiz-adv-x="429" 
d="M399 520l-177 3l2 -777h-18l1 777l-177 -3v20l177 -3l-1 237h18l-2 -237l177 3v-20z" />
    <glyph glyph-name="daggerdbl" unicode="&#x2021;" horiz-adv-x="430" 
d="M223 523v-526l177 4v-21l-177 3l1 -237h-18l2 237l-178 -3v21l178 -4v526l-178 -3v20l178 -3l-2 237h18l-1 -237l177 3v-20z" />
    <glyph glyph-name="bullet" unicode="&#x2022;" horiz-adv-x="256" 
d="M30 333q0 42 28.5 70.5t69.5 28.5q42 0 70 -28.5t28 -70.5q0 -41 -28 -69t-70 -28q-41 0 -69.5 28t-28.5 69z" />
    <glyph glyph-name="ellipsis" unicode="&#x2026;" horiz-adv-x="403" 
d="M81 49v-49h-50v49h50zM226 49v-49h-50v49h50zM371 49v-49h-50v49h50z" />
    <glyph glyph-name="perthousand" unicode="&#x2030;" horiz-adv-x="829" 
d="M167 711q27 0 50.5 -9.5t40.5 -27t26.5 -41t9.5 -51.5t-9.5 -51.5t-26.5 -40.5t-40.5 -27t-50.5 -10t-50.5 10t-40.5 27t-26.5 40.5t-9.5 51.5t9.5 51.5t26.5 41t40.5 27t50.5 9.5zM487 704l-423 -704h-23l423 704h23zM60 582q0 -48 29.5 -79.5t77.5 -31.5t77.5 31.5
t29.5 79.5t-29.5 79.5t-77.5 31.5t-77.5 -31.5t-29.5 -79.5zM362 250q27 0 50.5 -9.5t40.5 -27t26.5 -41t9.5 -51.5t-9.5 -51.5t-26.5 -40.5t-40.5 -27t-50.5 -10t-50.5 10t-40.5 27t-26.5 40.5t-9.5 51.5t9.5 51.5t26.5 41t40.5 27t50.5 9.5zM662 250q27 0 50.5 -9.5
t40.5 -27t26.5 -41t9.5 -51.5t-9.5 -51.5t-26.5 -40.5t-40.5 -27t-50.5 -10t-50.5 10t-40.5 27t-26.5 40.5t-9.5 51.5t9.5 51.5t26.5 41t40.5 27t50.5 9.5zM255 121q0 -48 29.5 -79.5t77.5 -31.5t77.5 31.5t29.5 79.5t-29.5 79.5t-77.5 31.5t-77.5 -31.5t-29.5 -79.5z
M555 121q0 -48 29.5 -79.5t77.5 -31.5t77.5 31.5t29.5 79.5t-29.5 79.5t-77.5 31.5t-77.5 -31.5t-29.5 -79.5z" />
    <glyph glyph-name="guilsinglleft" unicode="&#x2039;" horiz-adv-x="229" 
d="M152 120l-107 175l107 175h27l-109 -175l109 -175h-27z" />
    <glyph glyph-name="guilsinglright" unicode="&#x203a;" horiz-adv-x="229" 
d="M160 295l-110 175h28l106 -175l-106 -175h-28z" />
    <glyph glyph-name="fraction" unicode="&#x2044;" horiz-adv-x="207" 
d="M327 704l-423 -704h-24l423 704h24z" />
    <glyph glyph-name="uni20A8" unicode="&#x20a8;" horiz-adv-x="990" 
d="M488 505q0 -94 -53.5 -144t-156.5 -54l217 -307h-25l-215 307h-150v-307h-20v704h178q60 0 102.5 -14.5t70 -41t40 -63t12.5 -80.5zM105 328h158q57 0 96 13t63 36.5t35 56t11 71.5q0 41 -11 74t-35 56.5t-63 36t-96 12.5h-158v-356zM593 407q0 -45 25 -68.5t62.5 -36.5
t81 -21.5t81 -24t62.5 -43.5t25 -80q0 -62 -43 -101t-114 -39q-86 0 -141.5 44.5t-64.5 120.5h20q3 -29 16 -55.5t36.5 -47t57 -32.5t77.5 -12q66 0 101 35t35 87q0 47 -25 71.5t-62.5 38.5t-81 22.5t-81 23t-62.5 41.5t-25 77q0 65 45 102.5t119 37.5q81 0 130.5 -44.5
t58.5 -120.5h-20q-3 29 -14.5 55.5t-32.5 46.5t-51 32.5t-71 12.5q-69 0 -106.5 -34t-37.5 -88z" />
    <glyph glyph-name="Euro" unicode="&#x20ac;" horiz-adv-x="837" 
d="M456 11q60 0 109 15t86.5 41t64 62t41.5 78h20q-36 -97 -115 -155.5t-206 -58.5q-60 0 -112 18.5t-93.5 52.5t-70 82t-41.5 107h-119v18h115q-4 19 -5.5 39t-1.5 41q0 16 1 31.5t3 30.5h-112v18h115q11 63 39.5 114.5t70 88.5t95.5 57t116 20q127 0 206 -58.5t115 -156.5
h-20q-15 42 -41.5 78.5t-64 62.5t-86.5 41t-109 15q-55 0 -105 -17.5t-89.5 -51.5t-67 -82.5t-38.5 -110.5h302v-18h-305q-2 -15 -3 -30t-1 -32q0 -21 1.5 -41t5.5 -39h302v-18h-298q13 -57 41 -102t67 -76t87 -47.5t101 -16.5z" />
    <glyph glyph-name="uni20B9" unicode="&#x20b9;" horiz-adv-x="674" 
d="M441 548v-27h168v-18h-169q-4 -56 -20 -91.5t-51 -55t-91 -26.5t-139 -7v-129q0 -89 40.5 -137.5t124.5 -48.5q78 0 117.5 45.5t39.5 130.5h20q0 -97 -47.5 -145.5t-129.5 -48.5q-94 0 -139 55t-45 143v153q90 0 147 6.5t90 24.5t47 49.5t17 81.5h-356v18h357v29v136
h-357v18h544v-18h-168v-138z" />
    <glyph glyph-name="uni20BA" unicode="&#x20ba;" horiz-adv-x="769" 
d="M704 381q0 -96 -21 -172t-63.5 -128t-108.5 -79.5t-156 -27.5q-48 0 -96 12v270l-194 -56v20l194 56v148l-194 -58v20l194 58v260h20v-254l220 66v-20l-220 -66v-148l220 64v-20l-220 -64v-262q40 -8 76 -8q162 0 245.5 96t83.5 293h20z" />
    <glyph glyph-name="uni20BD" unicode="&#x20bd;" horiz-adv-x="588" 
d="M165 317v-138h274v-18h-274v-161h-20v161h-80v18h80v138h-80v21h80v366h178q60 0 102.5 -14t70 -39.5t40 -61t12.5 -79.5q0 -98 -57.5 -145.5t-167.5 -47.5h-158zM165 338h158q57 0 96 12.5t63 35t35 54t11 70.5q0 41 -11 73t-35 54.5t-63 34.5t-96 12h-158v-346z" />
    <glyph glyph-name="uni2113" unicode="&#x2113;" horiz-adv-x="190" 
d="M105 740v-740h-20v740h20z" />
    <glyph glyph-name="trademark" unicode="&#x2122;" horiz-adv-x="689" 
d="M30 704h230v-20h-104v-332h-20v332h-106v20zM649 704v-352h-20v303l-139 -303h-20l-139 303v-303h-20v352h20l149 -325l149 325h20z" />
    <glyph glyph-name="uni2126" unicode="&#x2126;" horiz-adv-x="794" 
d="M397 711q72 0 135 -26t110.5 -73.5t74.5 -113.5t27 -146q0 -60 -15 -113.5t-43.5 -96.5t-69 -73.5t-91.5 -43.5v-7h199v-18h-279v22q61 5 112.5 31t88.5 68.5t57.5 101t20.5 129.5q0 77 -25.5 139.5t-70 107.5t-104 69.5t-127.5 24.5q-70 0 -130 -25.5t-104 -71t-69 -108
t-25 -136.5q0 -71 21 -129.5t58 -101t88 -68.5t112 -31v-22h-279v18h199v7q-50 13 -90.5 43.5t-69 73.5t-43.5 96.5t-15 113.5q0 80 27 146t74 113.5t110.5 73.5t135.5 26z" />
    <glyph glyph-name="estimated" unicode="&#x212e;" horiz-adv-x="772" 
d="M395 -7q-72 0 -134 22t-107 64t-70.5 104t-25.5 143q0 75 21.5 141.5t63 115.5t103 77.5t140.5 28.5q80 0 141 -27t103 -71t63.5 -101.5t21.5 -119.5v-60h-572v-158q43 -66 101.5 -99.5t150.5 -33.5q40 0 74.5 10t66 28.5t62.5 45t65 59.5l24 -23q-61 -66 -133.5 -106
t-158.5 -40zM614 538q-35 58 -93 90.5t-135 32.5q-75 0 -138.5 -32.5t-104.5 -104.5v-171h471v185z" />
    <glyph glyph-name="partialdiff" unicode="&#x2202;" horiz-adv-x="530" 
d="M298 552q32 0 61.5 -9t53.5 -32t39 -62.5t18 -101.5q3 80 -3.5 148.5t-28 118.5t-60 79t-100.5 29q-20 0 -41 -3.5t-43 -9.5v20q23 6 42.5 8.5t41.5 2.5q48 0 86.5 -17.5t66 -55.5t42 -99.5t14.5 -148.5q0 -99 -19.5 -178.5t-55.5 -135.5t-86.5 -86.5t-112.5 -30.5
q-35 0 -66 12.5t-54 39t-36.5 66t-13.5 93.5q0 64 16 127t47.5 113.5t79.5 81.5t112 31zM298 534q-52 0 -95.5 -26t-74.5 -71t-48 -106t-17 -132q0 -50 12 -86t32.5 -59.5t48 -34.5t57.5 -11q56 0 101 27t76.5 72t48 104.5t16.5 123.5q0 105 -41 152t-116 47z" />
    <glyph glyph-name="uni2206" unicode="&#x2206;" horiz-adv-x="632" 
d="M325 683l287 -665v-18h-592v18l286 665h19zM39 18h554l-279 642z" />
    <glyph glyph-name="product" unicode="&#x220f;" horiz-adv-x="731" 
d="M666 704v-18h-87v-686h-20v686h-387v-686h-20v686h-87v18h601z" />
    <glyph glyph-name="summation" unicode="&#x2211;" horiz-adv-x="386" 
d="M396 665h-336l273 -356v-19l-273 -356h336v-18h-356v20l279 362l-279 365v20h356v-18z" />
    <glyph glyph-name="minus" unicode="&#x2212;" horiz-adv-x="444" 
d="M404 389v-18h-364v18h364z" />
    <glyph glyph-name="radical" unicode="&#x221a;" horiz-adv-x="660" 
d="M639 837l-456 -883h-5l-103 179l-51 -28l-10 17l67 36l99 -172l439 851h20z" />
    <glyph glyph-name="infinity" unicode="&#x221e;" horiz-adv-x="576" 
d="M464 475q58 0 93.5 -33.5t35.5 -93.5q0 -61 -38 -94.5t-95 -33.5q-29 0 -52 9.5t-42 25.5t-35 36.5t-31 42.5q-10 -20 -24.5 -40t-34 -36.5t-43.5 -27t-54 -10.5q-58 0 -93.5 33.5t-35.5 93.5q0 61 38 94.5t95 33.5q28 0 50.5 -10t41.5 -26.5t35 -37.5t31 -43
q11 20 25 40.5t33.5 37.5t44 28t55.5 11zM144 240q48 0 83 30.5t62 78.5q-14 21 -29 40.5t-31.5 34.5t-36.5 24t-44 9q-54 0 -83.5 -31t-29.5 -79t27.5 -77.5t81.5 -29.5zM460 238q54 0 83.5 31t29.5 79t-27.5 77.5t-81.5 29.5q-48 0 -84 -32t-63 -81q14 -20 29 -39
t32 -33.5t37 -23t45 -8.5z" />
    <glyph glyph-name="integral" unicode="&#x222b;" horiz-adv-x="234" 
d="M163 804q5 44 25.5 68t65.5 24h24l-2 -18h-22q-29 0 -48 -14.5t-24 -59.5l-96 -838q-3 -23 -7 -42t-13 -32.5t-24.5 -20.5t-41.5 -7h-29l2 18h28q18 0 29.5 3.5t18.5 13t11 25.5t7 42z" />
    <glyph glyph-name="approxequal" unicode="&#x2248;" horiz-adv-x="412" 
d="M129 531q25 0 44.5 -10.5t37 -23t35.5 -23t40 -10.5q26 0 43.5 20.5t22.5 46.5h20q-8 -39 -29.5 -63.5t-59.5 -24.5q-25 0 -44 10.5t-37 23t-36 23t-40 10.5q-26 0 -43.5 -20.5t-22.5 -46.5h-20q8 39 29.5 63.5t59.5 24.5zM129 356q25 0 44.5 -10.5t37 -23t35.5 -23
t40 -10.5q26 0 43.5 20.5t22.5 46.5h20q-8 -39 -29.5 -63.5t-59.5 -24.5q-25 0 -44 10.5t-37 23t-36 23t-40 10.5q-26 0 -43.5 -20.5t-22.5 -46.5h-20q8 39 29.5 63.5t59.5 24.5z" />
    <glyph glyph-name="notequal" unicode="&#x2260;" horiz-adv-x="564" 
d="M356 460l-124 -159h292v-18h-306l-85 -110h-23l85 110h-155v18h169l123 159h-292v18h306l85 110h24l-85 -110h154v-18h-168z" />
    <glyph glyph-name="lessequal" unicode="&#x2264;" horiz-adv-x="392" 
d="M318 223l-278 197l278 198h28l-274 -198l274 -197h-28zM352 191v-18h-310v18h310z" />
    <glyph glyph-name="greaterequal" unicode="&#x2265;" horiz-adv-x="392" 
d="M46 223l275 197l-275 198h28l278 -198l-278 -197h-28zM40 191h310v-18h-310v18z" />
    <glyph glyph-name="lozenge" unicode="&#x25ca;" horiz-adv-x="544" 
d="M494 347l-223 -222l-221 222l223 223zM88 347l183 -185l186 185l-184 186z" />
    <glyph glyph-name="fi" unicode="&#xfb01;" horiz-adv-x="494" 
d="M128 540h291v-540h-20v519h-271v-519h-20v519h-86v21h86v38q0 79 38.5 120.5t136.5 41.5v-20q-45 0 -74.5 -8.5t-47.5 -26t-25.5 -44.5t-7.5 -63v-38zM410 732q11 0 18.5 -7t7.5 -20t-7.5 -20t-18.5 -7t-18.5 7t-7.5 20t7.5 20t18.5 7z" />
    <glyph glyph-name="fl" unicode="&#xfb02;" horiz-adv-x="508" 
d="M108 578q0 79 38.5 120.5t136.5 41.5v-20q-45 0 -74.5 -8.5t-47.5 -26t-25.5 -44.5t-7.5 -63v-38h155v-21h-155v-519h-20v519h-88v21h88v38zM423 740v-740h-20v740h20z" />
    <glyph glyph-name="uni03020300" horiz-adv-x="0" 
d="M-32 718l-9 -13l-137 108l12 14zM-163 701l-112 -73l-12 12l124 81l123 -81l-10 -13z" />
    <glyph glyph-name="uni03020301" horiz-adv-x="0" 
d="M-78 818l-146 -92l-11 12l145 99zM-163 701l-112 -73l-12 12l124 81l123 -81l-10 -13z" />
    <glyph glyph-name="uni03020303" horiz-adv-x="0" 
d="M-205 802q19 0 31.5 -8t23.5 -17t23 -17t30 -8q16 0 28.5 12t15.5 35h18q-2 -27 -19 -46t-43 -19q-20 0 -33 8t-24.5 17t-23 17t-27.5 8q-36 0 -42 -48h-18q4 30 19 48t41 18zM-163 701l-112 -73l-12 12l124 81l123 -81l-10 -13z" />
    <glyph glyph-name="uni03020309" horiz-adv-x="0" 
d="M-19 829q70 0 70 -67q0 -26 -17 -44.5t-47 -47.5l-13 13q21 21 39.5 39t18.5 40q0 27 -12 38t-39 11q-29 0 -37.5 -15t-12.5 -38h-19q1 11 4 23t10 23t20 18t35 7zM-163 701l-112 -73l-12 12l124 81l123 -81l-10 -13z" />
    <glyph glyph-name="uni03060300" horiz-adv-x="0" 
d="M-144 744l-9 -13l-137 108l12 14zM-158 616q-32 0 -54.5 9.5t-36.5 24.5t-20.5 33.5t-6.5 36.5v4h20q0 -43 25.5 -66.5t72.5 -23.5t72.5 23.5t25.5 66.5h20v-4q0 -18 -6.5 -36.5t-20.5 -33.5t-36.5 -24.5t-54.5 -9.5z" />
    <glyph glyph-name="uni03060301" horiz-adv-x="0" 
d="M-17 836l-146 -92l-11 12l145 99zM-158 616q-32 0 -54.5 9.5t-36.5 24.5t-20.5 33.5t-6.5 36.5v4h20q0 -43 25.5 -66.5t72.5 -23.5t72.5 23.5t25.5 66.5h20v-4q0 -18 -6.5 -36.5t-20.5 -33.5t-36.5 -24.5t-54.5 -9.5z" />
    <glyph glyph-name="uni03060303" horiz-adv-x="0" 
d="M-213 826q19 0 31.5 -8t23.5 -17t23 -17t30 -8q16 0 28.5 12t15.5 35h18q-2 -27 -19 -46t-43 -19q-20 0 -33 8t-24.5 17t-23 17t-27.5 8q-36 0 -42 -48h-18q4 30 19 48t41 18zM-158 616q-32 0 -54.5 9.5t-36.5 24.5t-20.5 33.5t-6.5 36.5v4h20q0 -43 25.5 -66.5
t72.5 -23.5t72.5 23.5t25.5 66.5h20v-4q0 -18 -6.5 -36.5t-20.5 -33.5t-36.5 -24.5t-54.5 -9.5z" />
    <glyph glyph-name="uni03060309" horiz-adv-x="0" 
d="M-167 882q70 0 70 -67q0 -26 -17 -44.5t-47 -47.5l-13 13q21 21 39.5 39t18.5 40q0 27 -12 38t-39 11q-29 0 -37.5 -15t-12.5 -38h-19q1 11 4 23t10 23t20 18t35 7zM-158 616q-32 0 -54.5 9.5t-36.5 24.5t-20.5 33.5t-6.5 36.5v4h20q0 -43 25.5 -66.5t72.5 -23.5
t72.5 23.5t25.5 66.5h20v-4q0 -18 -6.5 -36.5t-20.5 -33.5t-36.5 -24.5t-54.5 -9.5z" />
  </font>
</defs>
</svg>
